0
SECTION
2
HEADER
9
$INSUNITS
70
4
9
$ACADVER
1
AC1014
9
$HANDSEED
5
FFFF
0
ENDSEC
0
SECTION
2
TABLES
0
TABLE
2
VPORT
5
8
100
AcDbSymbolTable
0
ENDTAB
0
TABLE
2
LTYPE
5
5
100
AcDbSymbolTable
0
LTYPE
5
14
100
AcDbSymbolTableRecord
100
AcDbLinetypeTableRecord
2
BYBLOCK
70
0
0
LTYPE
5
15
100
AcDbSymbolTableRecord
100
AcDbLinetypeTableRecord
2
BYLAYER
70
0
0
ENDTAB
0
TABLE
2
LAYER
5
2
100
AcDbSymbolTable
70
2
0
LAYER
5
50
100
AcDbSymbolTableRecord
100
AcDbLayerTableRecord
2
0
70
0
6
CONTINUOUS
0
ENDTAB
0
TABLE
2
STYLE
5
3
100
AcDbSymbolTable
70
1
0
STYLE
5
11
100
AcDbSymbolTableRecord
100
AcDbTextStyleTableRecord
2
STANDARD
70
0
0
ENDTAB
0
TABLE
2
VIEW
5
6
100
AcDbSymbolTable
70
0
0
ENDTAB
0
TABLE
2
UCS
5
7
100
AcDbSymbolTable
70
0
0
ENDTAB
0
TABLE
2
APPID
5
9
100
AcDbSymbolTable
70
2
0
APPID
5
12
100
AcDbSymbolTableRecord
100
AcDbRegAppTableRecord
2
ACAD
70
0
0
ENDTAB
0
TABLE
2
DIMSTYLE
5
A
100
AcDbSymbolTable
70
1
0
ENDTAB
0
TABLE
2
BLOCK_RECORD
5
1
100
AcDbSymbolTable
70
1
0
BLOCK_RECORD
5
1F
100
AcDbSymbolTableRecord
100
AcDbBlockTableRecord
2
*MODEL_SPACE
0
BLOCK_RECORD
5
1B
100
AcDbSymbolTableRecord
100
AcDbBlockTableRecord
2
*PAPER_SPACE
0
ENDTAB
0
ENDSEC
0
SECTION
2
BLOCKS
0
BLOCK
5
20
100
AcDbEntity
100
AcDbBlockBegin
2
*MODEL_SPACE
0
ENDBLK
5
21
100
AcDbEntity
100
AcDbBlockEnd
0
BLOCK
5
1C
100
AcDbEntity
100
AcDbBlockBegin
2
*PAPER_SPACE
0
ENDBLK
5
1D
100
AcDbEntity
100
AcDbBlockEnd
0
ENDSEC
0
SECTION
2
ENTITIES
0
LINE
5
100
100
AcDbEntity
8
0
100
AcDbLine
10
59.457994188201546
20
-140.34904481820757
30
0
11
75.931637320058542
21
-137.00741614021521
31
0
0
LINE
5
101
100
AcDbEntity
8
0
100
AcDbLine
10
55.236989542316472
20
-131.67253526833269
30
0
11
59.457994188201546
21
-140.34904481820757
31
0
0
LINE
5
102
100
AcDbEntity
8
0
100
AcDbLine
10
47.167052968944461
20
-122.89646608449257
30
0
11
55.236989542316472
21
-131.67253526833269
31
0
0
LINE
5
103
100
AcDbEntity
8
0
100
AcDbLine
10
47.167052968944461
20
-122.89646608449257
30
0
11
30.014746019655753
21
-119.71143461837335
31
0
0
LINE
5
104
100
AcDbEntity
8
0
100
AcDbLine
10
33.628980147306038
20
-105.78712208447857
30
0
11
47.167052968944461
21
-122.89646608449257
31
0
0
LINE
5
105
100
AcDbEntity
8
0
100
AcDbLine
10
30.014746019655753
20
-119.71143461837335
30
0
11
13.883848439406069
21
-111.26554013060112
31
0
0
LINE
5
106
100
AcDbEntity
8
0
100
AcDbLine
10
13.883848439406069
20
-111.26554013060112
30
0
11
0.073669614805518258
21
-106.58605804953811
31
0
0
LINE
5
107
100
AcDbEntity
8
0
100
AcDbLine
10
0.073669614805518258
20
-106.58605804953811
30
0
11
-15.521554323311895
21
-97.31239811112593
31
0
0
LINE
5
108
100
AcDbEntity
8
0
100
AcDbLine
10
-15.521554323311895
20
-97.31239811112593
30
0
11
-31.781994173782522
21
-82.99127677493162
31
0
0
LINE
5
109
100
AcDbEntity
8
0
100
AcDbLine
10
-31.781994173782522
20
-82.99127677493162
30
0
11
-48.266201545131167
21
-69.416047174997431
31
0
0
LINE
5
110
100
AcDbEntity
8
0
100
AcDbLine
10
33.628980147306038
20
-105.78712208447857
30
0
11
32.886819359969898
21
-88.510875623256524
31
0
0
LINE
5
111
100
AcDbEntity
8
0
100
AcDbLine
10
37.868540064559539
20
-72.878245156794918
30
0
11
32.886819359969898
21
-88.510875623256524
31
0
0
LINE
5
112
100
AcDbEntity
8
0
100
AcDbLine
10
33.506048622653005
20
-54.30004884384811
30
0
11
37.868540064559539
21
-72.878245156794918
31
0
0
LINE
5
113
100
AcDbEntity
8
0
100
AcDbLine
10
31.813702804672008
20
-39.633051754679578
30
0
11
33.506048622653005
21
-54.30004884384811
31
0
0
LINE
5
114
100
AcDbEntity
8
0
100
AcDbLine
10
31.869353746674662
20
-22.613131578114345
30
0
11
31.813702804672008
21
-39.633051754679578
31
0
0
LINE
5
115
100
AcDbEntity
8
0
100
AcDbLine
10
32.878658016635669
20
-8.5782009427649708
30
0
11
31.869353746674662
21
-22.613131578114345
31
0
0
LINE
5
116
100
AcDbEntity
8
0
100
AcDbLine
10
30.550056781331733
20
5.5420405904610259
30
0
11
32.878658016635669
21
-8.5782009427649708
31
0
0
LINE
5
117
100
AcDbEntity
8
0
100
AcDbLine
10
50.210594706040808
20
17.165734750229213
30
0
11
30.550056781331733
21
5.5420405904610259
31
0
0
LINE
5
118
100
AcDbEntity
8
0
100
AcDbLine
10
50.210594706040808
20
17.165734750229213
30
0
11
64.882935459863504
21
28.423348115116276
31
0
0
LINE
5
119
100
AcDbEntity
8
0
100
AcDbLine
10
64.882935459863504
20
28.423348115116276
30
0
11
86.425463016662803
21
42.444694183219426
31
0
0
LINE
5
120
100
AcDbEntity
8
0
100
AcDbLine
10
86.425463016662803
20
42.444694183219426
30
0
11
100.77873124115271
21
57.343023226360842
31
0
0
LINE
5
121
100
AcDbEntity
8
0
100
AcDbLine
10
100.77873124115271
20
57.343023226360842
30
0
11
117.76646008912493
21
70.606169813547709
31
0
0
LINE
5
122
100
AcDbEntity
8
0
100
AcDbLine
10
117.76646008912493
20
70.606169813547709
30
0
11
139.6611199189299
21
77.866122454785298
31
0
0
LINE
5
123
100
AcDbEntity
8
0
100
AcDbLine
10
139.6611199189299
20
77.866122454785298
30
0
11
154.01482417054467
21
93.153109417044519
31
0
0
LINE
5
124
100
AcDbEntity
8
0
100
AcDbLine
10
14.69575049841132
20
3.1143499408888387
30
0
11
30.550056781331733
21
5.5420405904610259
31
0
0
LINE
5
125
100
AcDbEntity
8
0
100
AcDbLine
10
-4.9239535267026913
20
0.73620399845077511
30
0
11
14.69575049841132
21
3.1143499408888387
31
0
0
LINE
5
126
100
AcDbEntity
8
0
100
AcDbLine
10
-25.980454058706364
20
0.73620399845077511
30
0
11
-4.9239535267026913
21
0.73620399845077511
31
0
0
LINE
5
127
100
AcDbEntity
8
0
100
AcDbLine
10
-45.583856569385723
20
1.6952812715636734
30
0
11
-25.980454058706364
21
0.73620399845077511
31
0
0
LINE
5
128
100
AcDbEntity
8
0
100
AcDbLine
10
-67.871839575943568
20
-1.7659113835723739
30
0
11
-45.583856569385723
21
1.6952812715636734
31
0
0
LINE
5
129
100
AcDbEntity
8
0
100
AcDbLine
10
-67.871839575943568
20
-1.7659113835723739
30
0
11
-84.548495096144478
21
7.5163780097470063
31
0
0
LINE
5
130
100
AcDbEntity
8
0
100
AcDbLine
10
-82.129686371340611
20
-12.429918524724277
30
0
11
-67.871839575943568
21
-1.7659113835723739
31
0
0
LINE
5
131
100
AcDbEntity
8
0
100
AcDbLine
10
-83.024756454852763
20
-30.778855236723221
30
0
11
-82.129686371340611
21
-12.429918524724277
31
0
0
LINE
5
132
100
AcDbEntity
8
0
100
AcDbLine
10
-94.586078366884607
20
-45.249154920169552
30
0
11
-83.024756454852763
21
-30.778855236723221
31
0
0
LINE
5
133
100
AcDbEntity
8
0
100
AcDbLine
10
-116.66447376018418
20
-57.85472526296558
30
0
11
-94.586078366884607
21
-45.249154920169552
31
0
0
LINE
5
134
100
AcDbEntity
8
0
100
AcDbLine
10
-116.66447376018418
20
-57.85472526296558
30
0
11
-93.456163540551557
21
-59.944794899801622
31
0
0
LINE
5
135
100
AcDbEntity
8
0
100
AcDbLine
10
-93.456163540551557
20
-59.944794899801622
30
0
11
-70.68726636110452
21
-63.76425827883989
31
0
0
LINE
5
136
100
AcDbEntity
8
0
100
AcDbLine
10
-48.266201545131167
20
-69.416047174997431
30
0
11
-70.68726636110452
21
-63.76425827883989
31
0
0
LINE
5
137
100
AcDbEntity
8
0
100
AcDbLine
10
-70.68726636110452
20
-63.76425827883989
30
0
11
-37.972895584741508
21
-48.083543517957999
31
0
0
LINE
5
138
100
AcDbEntity
8
0
100
AcDbLine
10
-119.19877431248455
20
-90.512165244136014
30
0
11
-112.44340323142208
21
-108.58574576803123
31
0
0
LINE
5
139
100
AcDbEntity
8
0
100
AcDbLine
10
-119.00887809457527
20
-74.054985230596927
30
0
11
-119.19877431248455
21
-90.512165244136014
31
0
0
LINE
5
140
100
AcDbEntity
8
0
100
AcDbLine
10
-116.66447376018418
20
-57.85472526296558
30
0
11
-119.00887809457527
21
-74.054985230596927
31
0
0
LINE
5
141
100
AcDbEntity
8
0
100
AcDbLine
10
-131.35854096450853
20
-48.30731103883604
30
0
11
-116.66447376018418
21
-57.85472526296558
31
0
0
LINE
5
142
100
AcDbEntity
8
0
100
AcDbLine
10
-147.17144577322307
20
-39.580377724592644
30
0
11
-131.35854096450853
21
-48.30731103883604
31
0
0
LINE
5
143
100
AcDbEntity
8
0
100
AcDbLine
10
-168.43586281751772
20
-47.19564162885252
30
0
11
-147.17144577322307
21
-39.580377724592644
31
0
0
LINE
5
144
100
AcDbEntity
8
0
100
AcDbLine
10
-185.36417361627471
20
-41.515747874006415
30
0
11
-168.43586281751772
21
-47.19564162885252
31
0
0
LINE
5
145
100
AcDbEntity
8
0
100
AcDbLine
10
-205.91202455292387
20
-36.448391680957442
30
0
11
-185.36417361627471
21
-41.515747874006415
31
0
0
LINE
5
146
100
AcDbEntity
8
0
100
AcDbLine
10
-215.29658693564494
20
-51.494509258263754
30
0
11
-205.91202455292387
21
-36.448391680957442
31
0
0
LINE
5
147
100
AcDbEntity
8
0
100
AcDbLine
10
-199.33303447341333
20
-70.085396396570928
30
0
11
-215.29658693564494
21
-51.494509258263754
31
0
0
LINE
5
148
100
AcDbEntity
8
0
100
AcDbLine
10
-223.39718768058734
20
-29.209311405173199
30
0
11
-205.91202455292387
21
-36.448391680957442
31
0
0
LINE
5
149
100
AcDbEntity
8
0
100
AcDbLine
10
-239.65727568465661
20
-39.566764722833739
30
0
11
-223.39718768058734
21
-29.209311405173199
31
0
0
LINE
5
150
100
AcDbEntity
8
0
100
AcDbLine
10
-258.81299579903947
20
-38.842856695255307
30
0
11
-239.65727568465661
21
-39.566764722833739
31
0
0
LINE
5
151
100
AcDbEntity
8
0
100
AcDbLine
10
-275.57425089912454
20
-27.427383952672457
30
0
11
-258.81299579903947
21
-38.842856695255307
31
0
0
LINE
5
152
100
AcDbEntity
8
0
100
AcDbLine
10
-282.8889690348139
20
-41.997160382435212
30
0
11
-275.57425089912454
21
-27.427383952672457
31
0
0
LINE
5
153
100
AcDbEntity
8
0
100
AcDbLine
10
-295.4414320108832
20
-39.780389878935111
30
0
11
-282.8889690348139
21
-41.997160382435212
31
0
0
LINE
5
154
100
AcDbEntity
8
0
100
AcDbLine
10
-275.57425089912454
20
-27.427383952672457
30
0
11
-300.15206933082095
21
-15.756139547252753
31
0
0
LINE
5
155
100
AcDbEntity
8
0
100
AcDbLine
10
-300.15206933082095
20
-15.756139547252753
30
0
11
-308.60350687541506
21
5.663405442816984
31
0
0
LINE
5
156
100
AcDbEntity
8
0
100
AcDbLine
10
-308.60350687541506
20
5.6634054428169867
30
0
11
-317.59251126710785
21
23.3975694708178
31
0
0
LINE
5
157
100
AcDbEntity
8
0
100
AcDbLine
10
-317.59251126710785
20
23.3975694708178
30
0
11
-325.59671536262073
21
40.765412173115209
31
0
0
LINE
5
158
100
AcDbEntity
8
0
100
AcDbLine
10
-342.41285930585951
20
39.997301193652426
30
0
11
-325.59671536262073
21
40.765412173115209
31
0
0
LINE
5
159
100
AcDbEntity
8
0
100
AcDbLine
10
-287.31725715848279
20
-50.843868921494689
30
0
11
-295.4414320108832
21
-39.780389878935111
31
0
0
LINE
5
160
100
AcDbEntity
8
0
100
AcDbLine
10
-282.28364395528411
20
-63.407310283204048
30
0
11
-287.31725715848279
21
-50.843868921494689
31
0
0
ENDSEC
0
SECTION
2
OBJECTS
0
DICTIONARY
5
C
100
AcDbDictionary
3
ACAD_GROUP
350
D
3
ACAD_MLINESTYLE
350
17
0
DICTIONARY
5
D
100
AcDbDictionary
0
DICTIONARY
5
1A
330
C
100
AcDbDictionary
0
DICTIONARY
5
17
100
AcDbDictionary
0
ENDSEC
0
EOF
