0
SECTION
2
HEADER
9
$INSUNITS
70
4
9
$ACADVER
1
AC1014
9
$HANDSEED
5
FFFF
0
ENDSEC
0
SECTION
2
TABLES
0
TABLE
2
VPORT
5
8
100
AcDbSymbolTable
0
ENDTAB
0
TABLE
2
LTYPE
5
5
100
AcDbSymbolTable
0
LTYPE
5
14
100
AcDbSymbolTableRecord
100
AcDbLinetypeTableRecord
2
BYBLOCK
70
0
0
LTYPE
5
15
100
AcDbSymbolTableRecord
100
AcDbLinetypeTableRecord
2
BYLAYER
70
0
0
ENDTAB
0
TABLE
2
LAYER
5
2
100
AcDbSymbolTable
70
2
0
LAYER
5
50
100
AcDbSymbolTableRecord
100
AcDbLayerTableRecord
2
0
70
0
6
CONTINUOUS
0
ENDTAB
0
TABLE
2
STYLE
5
3
100
AcDbSymbolTable
70
1
0
STYLE
5
11
100
AcDbSymbolTableRecord
100
AcDbTextStyleTableRecord
2
STANDARD
70
0
0
ENDTAB
0
TABLE
2
VIEW
5
6
100
AcDbSymbolTable
70
0
0
ENDTAB
0
TABLE
2
UCS
5
7
100
AcDbSymbolTable
70
0
0
ENDTAB
0
TABLE
2
APPID
5
9
100
AcDbSymbolTable
70
2
0
APPID
5
12
100
AcDbSymbolTableRecord
100
AcDbRegAppTableRecord
2
ACAD
70
0
0
ENDTAB
0
TABLE
2
DIMSTYLE
5
A
100
AcDbSymbolTable
70
1
0
ENDTAB
0
TABLE
2
BLOCK_RECORD
5
1
100
AcDbSymbolTable
70
1
0
BLOCK_RECORD
5
1F
100
AcDbSymbolTableRecord
100
AcDbBlockTableRecord
2
*MODEL_SPACE
0
BLOCK_RECORD
5
1B
100
AcDbSymbolTableRecord
100
AcDbBlockTableRecord
2
*PAPER_SPACE
0
ENDTAB
0
ENDSEC
0
SECTION
2
BLOCKS
0
BLOCK
5
20
100
AcDbEntity
100
AcDbBlockBegin
2
*MODEL_SPACE
0
ENDBLK
5
21
100
AcDbEntity
100
AcDbBlockEnd
0
BLOCK
5
1C
100
AcDbEntity
100
AcDbBlockBegin
2
*PAPER_SPACE
0
ENDBLK
5
1D
100
AcDbEntity
100
AcDbBlockEnd
0
ENDSEC
0
SECTION
2
ENTITIES
0
LINE
5
100
100
AcDbEntity
8
0
100
AcDbLine
10
-322.26251547732767
20
95.152783149094518
30
0
11
-326.19787406760685
21
114.86855597386844
31
0
0
LINE
5
101
100
AcDbEntity
8
0
100
AcDbLine
10
-326.19787406760685
20
114.86855597386844
30
0
11
-325.74376188175347
21
134.03918912331707
31
0
0
LINE
5
102
100
AcDbEntity
8
0
100
AcDbLine
10
-325.74376188175347
20
134.03918912331707
30
0
11
-312.86099993201265
21
149.09072324632561
31
0
0
LINE
5
103
100
AcDbEntity
8
0
100
AcDbLine
10
-312.86099993201265
20
149.09072324632561
30
0
11
-306.91731331194194
21
166.98638839588637
31
0
0
LINE
5
104
100
AcDbEntity
8
0
100
AcDbLine
10
-333.08245549812284
20
170.99191633549924
30
0
11
-306.91731331194194
21
166.98638839588637
31
0
0
LINE
5
105
100
AcDbEntity
8
0
100
AcDbLine
10
-306.91731331194194
20
166.98638839588637
30
0
11
-281.65664517664135
21
165.30665087282287
31
0
0
LINE
5
106
100
AcDbEntity
8
0
100
AcDbLine
10
-281.65664517664135
20
165.30665087282287
30
0
11
-264.34242763121796
21
176.93560295556992
31
0
0
LINE
5
107
100
AcDbEntity
8
0
100
AcDbLine
10
-297.54954635639569
20
197.73850612581742
30
0
11
-314.54073745507617
21
196.70482149623993
31
0
0
LINE
5
108
100
AcDbEntity
8
0
100
AcDbLine
10
-275.51914268852482
20
188.69376561701418
30
0
11
-297.54954635639569
21
197.73850612581742
31
0
0
LINE
5
109
100
AcDbEntity
8
0
100
AcDbLine
10
-250.01819416827874
20
189.45624914995321
30
0
11
-275.51914268852482
21
188.69376561701418
31
0
0
LINE
5
110
100
AcDbEntity
8
0
100
AcDbLine
10
-264.34242763121796
20
176.93560295556992
30
0
11
-250.01819416827874
21
189.45624914995321
31
0
0
LINE
5
111
100
AcDbEntity
8
0
100
AcDbLine
10
-250.01819416827874
20
189.45624914995321
30
0
11
-235.33465271369886
21
197.99692728321185
31
0
0
LINE
5
112
100
AcDbEntity
8
0
100
AcDbLine
10
-235.33465271369886
20
197.99692728321185
30
0
11
-219.7604151493187
21
197.34205920473119
31
0
0
LINE
5
113
100
AcDbEntity
8
0
100
AcDbLine
10
-219.7604151493187
20
197.34205920473119
30
0
11
-204.15055638165555
21
194.81057911647287
31
0
0
LINE
5
114
100
AcDbEntity
8
0
100
AcDbLine
10
-204.15055638165555
20
194.81057911647287
30
0
11
-188.30608419273759
21
196.16265109013329
31
0
0
LINE
5
115
100
AcDbEntity
8
0
100
AcDbLine
10
-188.30608419273759
20
196.16265109013329
30
0
11
-172.53186012538447
21
194.1301921554535
31
0
0
LINE
5
116
100
AcDbEntity
8
0
100
AcDbLine
10
-172.53186012538447
20
194.1301921554535
30
0
11
-169.89759713007629
21
178.04969372736696
31
0
0
LINE
5
117
100
AcDbEntity
8
0
100
AcDbLine
10
-169.89759713007629
20
178.04969372736696
30
0
11
-181.35944826014423
21
166.89902407594337
31
0
0
LINE
5
118
100
AcDbEntity
8
0
100
AcDbLine
10
-181.35944826014423
20
166.89902407594337
30
0
11
-190.88743542450501
21
152.41058302865699
31
0
0
LINE
5
119
100
AcDbEntity
8
0
100
AcDbLine
10
-147.33693992835882
20
193.34944976071546
30
0
11
-172.53186012538447
21
194.1301921554535
31
0
0
LINE
5
120
100
AcDbEntity
8
0
100
AcDbLine
10
-127.32991122511433
20
190.47974300096092
30
0
11
-147.33693992835882
21
193.34944976071546
31
0
0
LINE
5
121
100
AcDbEntity
8
0
100
AcDbLine
10
-108.36816279139029
20
185.20471875958475
30
0
11
-127.32991122511433
21
190.47974300096092
31
0
0
LINE
5
122
100
AcDbEntity
8
0
100
AcDbLine
10
-86.16311188269907
20
181.68602083350746
30
0
11
-108.36816279139029
21
185.20471875958475
31
0
0
LINE
5
123
100
AcDbEntity
8
0
100
AcDbLine
10
-66.775699993882526
20
186.99204935044673
30
0
11
-86.16311188269907
21
181.68602083350746
31
0
0
LINE
5
124
100
AcDbEntity
8
0
100
AcDbLine
10
-66.775699993882526
20
186.99204935044673
30
0
11
-77.377394362911659
21
171.65557149564111
31
0
0
LINE
5
125
100
AcDbEntity
8
0
100
AcDbLine
10
-44.874572540463902
20
188.51787195426624
30
0
11
-66.775699993882526
21
186.99204935044673
31
0
0
LINE
5
126
100
AcDbEntity
8
0
100
AcDbLine
10
-25.685989912318302
20
181.97397446494881
30
0
11
-44.874572540463902
21
188.51787195426624
31
0
0
LINE
5
127
100
AcDbEntity
8
0
100
AcDbLine
10
-8.796440945777837
20
178.4419395099689
30
0
11
-25.685989912318302
21
181.97397446494881
31
0
0
LINE
5
128
100
AcDbEntity
8
0
100
AcDbLine
10
5.9738870477746531
20
173.56130939036024
30
0
11
-8.796440945777837
21
178.4419395099689
31
0
0
LINE
5
129
100
AcDbEntity
8
0
100
AcDbLine
10
5.9738870477746531
20
173.56130939036024
30
0
11
18.111243529433008
21
167.84583464502904
31
0
0
LINE
5
130
100
AcDbEntity
8
0
100
AcDbLine
10
18.111243529433008
20
167.84583464502904
30
0
11
32.496258618805875
21
154.29566418137878
31
0
0
LINE
5
131
100
AcDbEntity
8
0
100
AcDbLine
10
32.496258618805875
20
154.29566418137878
30
0
11
51.761903827787386
21
146.65362491514944
31
0
0
LINE
5
132
100
AcDbEntity
8
0
100
AcDbLine
10
71.091767854132158
20
137.91986575374452
30
0
11
51.761903827787386
21
146.65362491514944
31
0
0
ENDSEC
0
SECTION
2
OBJECTS
0
DICTIONARY
5
C
100
AcDbDictionary
3
ACAD_GROUP
350
D
3
ACAD_MLINESTYLE
350
17
0
DICTIONARY
5
D
100
AcDbDictionary
0
DICTIONARY
5
1A
330
C
100
AcDbDictionary
0
DICTIONARY
5
17
100
AcDbDictionary
0
ENDSEC
0
EOF
