0
SECTION
2
HEADER
9
$INSUNITS
70
4
9
$ACADVER
1
AC1014
9
$HANDSEED
5
FFFF
0
ENDSEC
0
SECTION
2
TABLES
0
TABLE
2
VPORT
5
8
100
AcDbSymbolTable
0
ENDTAB
0
TABLE
2
LTYPE
5
5
100
AcDbSymbolTable
0
LTYPE
5
14
100
AcDbSymbolTableRecord
100
AcDbLinetypeTableRecord
2
BYBLOCK
70
0
0
LTYPE
5
15
100
AcDbSymbolTableRecord
100
AcDbLinetypeTableRecord
2
BYLAYER
70
0
0
ENDTAB
0
TABLE
2
LAYER
5
2
100
AcDbSymbolTable
70
2
0
LAYER
5
50
100
AcDbSymbolTableRecord
100
AcDbLayerTableRecord
2
0
70
0
6
CONTINUOUS
0
ENDTAB
0
TABLE
2
STYLE
5
3
100
AcDbSymbolTable
70
1
0
STYLE
5
11
100
AcDbSymbolTableRecord
100
AcDbTextStyleTableRecord
2
STANDARD
70
0
0
ENDTAB
0
TABLE
2
VIEW
5
6
100
AcDbSymbolTable
70
0
0
ENDTAB
0
TABLE
2
UCS
5
7
100
AcDbSymbolTable
70
0
0
ENDTAB
0
TABLE
2
APPID
5
9
100
AcDbSymbolTable
70
2
0
APPID
5
12
100
AcDbSymbolTableRecord
100
AcDbRegAppTableRecord
2
ACAD
70
0
0
ENDTAB
0
TABLE
2
DIMSTYLE
5
A
100
AcDbSymbolTable
70
1
0
ENDTAB
0
TABLE
2
BLOCK_RECORD
5
1
100
AcDbSymbolTable
70
1
0
BLOCK_RECORD
5
1F
100
AcDbSymbolTableRecord
100
AcDbBlockTableRecord
2
*MODEL_SPACE
0
BLOCK_RECORD
5
1B
100
AcDbSymbolTableRecord
100
AcDbBlockTableRecord
2
*PAPER_SPACE
0
ENDTAB
0
ENDSEC
0
SECTION
2
BLOCKS
0
BLOCK
5
20
100
AcDbEntity
100
AcDbBlockBegin
2
*MODEL_SPACE
0
ENDBLK
5
21
100
AcDbEntity
100
AcDbBlockEnd
0
BLOCK
5
1C
100
AcDbEntity
100
AcDbBlockBegin
2
*PAPER_SPACE
0
ENDBLK
5
1D
100
AcDbEntity
100
AcDbBlockEnd
0
ENDSEC
0
SECTION
2
ENTITIES
0
LINE
5
100
100
AcDbEntity
8
0
100
AcDbLine
10
243.90280054112108
20
-92.100406190496614
30
0
11
227.69699122809254
21
-92.100406190496614
31
0
0
LINE
5
101
100
AcDbEntity
8
0
100
AcDbLine
10
227.69699122809254
20
-92.100406190496614
30
0
11
215.11349052535832
21
-97.684703832530758
31
0
0
LINE
5
102
100
AcDbEntity
8
0
100
AcDbLine
10
215.11349052535832
20
-97.684703832530758
30
0
11
205.27033824483127
21
-91.863484741896499
31
0
0
LINE
5
103
100
AcDbEntity
8
0
100
AcDbLine
10
192.52630583760271
20
-98.392760576844637
30
0
11
205.27033824483127
21
-91.863484741896499
31
0
0
LINE
5
104
100
AcDbEntity
8
0
100
AcDbLine
10
192.52630583760271
20
-98.392760576844637
30
0
11
178.14714230166729
21
-107.24285890699512
31
0
0
LINE
5
105
100
AcDbEntity
8
0
100
AcDbLine
10
178.14714230166729
20
-107.24285890699512
30
0
11
163.16573333501665
21
-120.18202262120113
31
0
0
LINE
5
106
100
AcDbEntity
8
0
100
AcDbLine
10
205.27033824483127
20
-91.863484741896499
30
0
11
212.46215673756026
21
-78.558160507552415
31
0
0
LINE
5
107
100
AcDbEntity
8
0
100
AcDbLine
10
212.46215673756026
20
-78.558160507552415
30
0
11
216.57383834993931
21
-66.251717221612623
31
0
0
LINE
5
108
100
AcDbEntity
8
0
100
AcDbLine
10
202.75060862283743
20
-49.143525468285311
30
0
11
216.57383834993931
21
-66.251717221612623
31
0
0
LINE
5
109
100
AcDbEntity
8
0
100
AcDbLine
10
197.84739769373019
20
-34.968786931855007
30
0
11
202.75060862283743
21
-49.143525468285311
31
0
0
LINE
5
110
100
AcDbEntity
8
0
100
AcDbLine
10
194.12350877650789
20
-18.032744185035696
30
0
11
197.84739769373019
21
-34.968786931855007
31
0
0
LINE
5
111
100
AcDbEntity
8
0
100
AcDbLine
10
192.77493699691536
20
-2.1413623142756757
30
0
11
194.12350877650789
21
-18.032744185035696
31
0
0
LINE
5
112
100
AcDbEntity
8
0
100
AcDbLine
10
204.17290763531329
20
-17.369585884708432
30
0
11
192.77493699691536
21
-2.1413623142756766
31
0
0
LINE
5
113
100
AcDbEntity
8
0
100
AcDbLine
10
222.18020609804591
20
-16.961488469122425
30
0
11
204.17290763531329
21
-17.369585884708432
31
0
0
LINE
5
114
100
AcDbEntity
8
0
100
AcDbLine
10
222.18020609804591
20
-16.961488469122425
30
0
11
232.64697731370066
21
-26.041655965911094
31
0
0
LINE
5
115
100
AcDbEntity
8
0
100
AcDbLine
10
232.64697731370066
20
-26.041655965911094
30
0
11
241.17992327595351
21
-35.131098403963072
31
0
0
LINE
5
116
100
AcDbEntity
8
0
100
AcDbLine
10
233.50490938055759
20
-12.16634383598684
30
0
11
232.64697731370066
21
-26.041655965911094
31
0
0
LINE
5
117
100
AcDbEntity
8
0
100
AcDbLine
10
237.04472216632556
20
1.4779223100161243
30
0
11
233.50490938055759
21
-12.16634383598684
31
0
0
LINE
5
118
100
AcDbEntity
8
0
100
AcDbLine
10
237.04472216632556
20
1.4779223100161243
30
0
11
229.01207842745106
21
13.096703494230891
31
0
0
LINE
5
119
100
AcDbEntity
8
0
100
AcDbLine
10
229.01207842745106
20
13.096703494230891
30
0
11
221.82210123063589
21
24.661002482115357
31
0
0
LINE
5
120
100
AcDbEntity
8
0
100
AcDbLine
10
221.82210123063589
20
24.661002482115357
30
0
11
215.82055666405935
21
37.056031821570365
31
0
0
LINE
5
121
100
AcDbEntity
8
0
100
AcDbLine
10
200.23892063546342
20
21.865091929758922
30
0
11
198.70873997022829
21
33.953927668321924
31
0
0
LINE
5
122
100
AcDbEntity
8
0
100
AcDbLine
10
193.45755356508764
20
8.872697124944052
30
0
11
200.23892063546342
21
21.865091929758922
31
0
0
LINE
5
123
100
AcDbEntity
8
0
100
AcDbLine
10
192.77493699691536
20
-2.1413623142756757
30
0
11
193.45755356508764
21
8.872697124944052
31
0
0
LINE
5
124
100
AcDbEntity
8
0
100
AcDbLine
10
184.88865215167436
20
7.8802742896829976
30
0
11
192.77493699691536
21
-2.1413623142756744
31
0
0
LINE
5
125
100
AcDbEntity
8
0
100
AcDbLine
10
174.17930680662394
20
-3.7009347167966933
30
0
11
192.77493699691536
21
-2.1413623142756757
31
0
0
LINE
5
126
100
AcDbEntity
8
0
100
AcDbLine
10
161.4090610196381
20
-13.798798859479477
30
0
11
174.17930680662394
21
-3.7009347167966933
31
0
0
LINE
5
127
100
AcDbEntity
8
0
100
AcDbLine
10
161.4090610196381
20
-13.798798859479477
30
0
11
148.46193777294448
21
-29.371929742965804
31
0
0
LINE
5
128
100
AcDbEntity
8
0
100
AcDbLine
10
198.70873997022829
20
33.953927668321924
30
0
11
212.24331953409117
21
56.597768852287295
31
0
0
LINE
5
129
100
AcDbEntity
8
0
100
AcDbLine
10
215.82055666405935
20
37.056031821570365
30
0
11
212.24331953409117
21
56.597768852287295
31
0
0
ENDSEC
0
SECTION
2
OBJECTS
0
DICTIONARY
5
C
100
AcDbDictionary
3
ACAD_GROUP
350
D
3
ACAD_MLINESTYLE
350
17
0
DICTIONARY
5
D
100
AcDbDictionary
0
DICTIONARY
5
1A
330
C
100
AcDbDictionary
0
DICTIONARY
5
17
100
AcDbDictionary
0
ENDSEC
0
EOF
