0
SECTION
2
HEADER
9
$INSUNITS
70
4
9
$ACADVER
1
AC1014
9
$HANDSEED
5
FFFF
0
ENDSEC
0
SECTION
2
TABLES
0
TABLE
2
VPORT
5
8
100
AcDbSymbolTable
0
ENDTAB
0
TABLE
2
LTYPE
5
5
100
AcDbSymbolTable
0
LTYPE
5
14
100
AcDbSymbolTableRecord
100
AcDbLinetypeTableRecord
2
BYBLOCK
70
0
0
LTYPE
5
15
100
AcDbSymbolTableRecord
100
AcDbLinetypeTableRecord
2
BYLAYER
70
0
0
ENDTAB
0
TABLE
2
LAYER
5
2
100
AcDbSymbolTable
70
2
0
LAYER
5
50
100
AcDbSymbolTableRecord
100
AcDbLayerTableRecord
2
0
70
0
6
CONTINUOUS
0
ENDTAB
0
TABLE
2
STYLE
5
3
100
AcDbSymbolTable
70
1
0
STYLE
5
11
100
AcDbSymbolTableRecord
100
AcDbTextStyleTableRecord
2
STANDARD
70
0
0
ENDTAB
0
TABLE
2
VIEW
5
6
100
AcDbSymbolTable
70
0
0
ENDTAB
0
TABLE
2
UCS
5
7
100
AcDbSymbolTable
70
0
0
ENDTAB
0
TABLE
2
APPID
5
9
100
AcDbSymbolTable
70
2
0
APPID
5
12
100
AcDbSymbolTableRecord
100
AcDbRegAppTableRecord
2
ACAD
70
0
0
ENDTAB
0
TABLE
2
DIMSTYLE
5
A
100
AcDbSymbolTable
70
1
0
ENDTAB
0
TABLE
2
BLOCK_RECORD
5
1
100
AcDbSymbolTable
70
1
0
BLOCK_RECORD
5
1F
100
AcDbSymbolTableRecord
100
AcDbBlockTableRecord
2
*MODEL_SPACE
0
BLOCK_RECORD
5
1B
100
AcDbSymbolTableRecord
100
AcDbBlockTableRecord
2
*PAPER_SPACE
0
ENDTAB
0
ENDSEC
0
SECTION
2
BLOCKS
0
BLOCK
5
20
100
AcDbEntity
100
AcDbBlockBegin
2
*MODEL_SPACE
0
ENDBLK
5
21
100
AcDbEntity
100
AcDbBlockEnd
0
BLOCK
5
1C
100
AcDbEntity
100
AcDbBlockBegin
2
*PAPER_SPACE
0
ENDBLK
5
1D
100
AcDbEntity
100
AcDbBlockEnd
0
ENDSEC
0
SECTION
2
ENTITIES
0
LINE
5
100
100
AcDbEntity
8
0
100
AcDbLine
10
308.11918029408355
20
65.02673850781693
30
0
11
316.42925690783647
21
74.292113270195841
31
0
0
LINE
5
101
100
AcDbEntity
8
0
100
AcDbLine
10
300.2541433407427
20
52.850145152343487
30
0
11
308.11918029408355
21
65.02673850781693
31
0
0
LINE
5
102
100
AcDbEntity
8
0
100
AcDbLine
10
296.11472616088253
20
40.600108932056898
30
0
11
300.2541433407427
21
52.850145152343487
31
0
0
LINE
5
103
100
AcDbEntity
8
0
100
AcDbLine
10
299.24071835456584
20
26.546686102944136
30
0
11
296.11472616088253
21
40.600108932056898
31
0
0
LINE
5
104
100
AcDbEntity
8
0
100
AcDbLine
10
293.04317781681914
20
13.527392311418666
30
0
11
299.24071835456584
21
26.546686102944136
31
0
0
LINE
5
105
100
AcDbEntity
8
0
100
AcDbLine
10
286.70148988278277
20
-0.62102839913507735
30
0
11
293.04317781681914
21
13.527392311418666
31
0
0
LINE
5
106
100
AcDbEntity
8
0
100
AcDbLine
10
273.56633181450428
20
-7.7362946180346022
30
0
11
286.70148988278277
21
-0.62102839913507735
31
0
0
LINE
5
107
100
AcDbEntity
8
0
100
AcDbLine
10
259.56960227167838
20
-13.216941728177265
30
0
11
273.56633181450428
21
-7.7362946180346022
31
0
0
LINE
5
108
100
AcDbEntity
8
0
100
AcDbLine
10
248.59987628660821
20
-23.676545943764911
30
0
11
259.56960227167838
21
-13.216941728177265
31
0
0
LINE
5
109
100
AcDbEntity
8
0
100
AcDbLine
10
241.17992327595351
20
-35.131098403963072
30
0
11
248.59987628660821
21
-23.676545943764911
31
0
0
LINE
5
110
100
AcDbEntity
8
0
100
AcDbLine
10
226.94288843675989
20
-29.19513599543933
30
0
11
241.17992327595351
21
-35.131098403963072
31
0
0
LINE
5
111
100
AcDbEntity
8
0
100
AcDbLine
10
226.94288843675989
20
-29.19513599543933
30
0
11
230.03608134807652
21
-9.309661926884786
31
0
0
LINE
5
112
100
AcDbEntity
8
0
100
AcDbLine
10
226.94288843675989
20
-29.19513599543933
30
0
11
222.18020609804591
21
-16.961488469122425
31
0
0
LINE
5
113
100
AcDbEntity
8
0
100
AcDbLine
10
230.03608134807652
20
-9.309661926884786
30
0
11
222.18020609804591
21
-16.961488469122425
31
0
0
LINE
5
114
100
AcDbEntity
8
0
100
AcDbLine
10
230.03608134807652
20
-9.309661926884786
30
0
11
237.04472216632556
21
1.4779223100161243
31
0
0
LINE
5
115
100
AcDbEntity
8
0
100
AcDbLine
10
249.94605496197136
20
8.7131292156823434
30
0
11
237.04472216632556
21
1.4779223100161243
31
0
0
LINE
5
116
100
AcDbEntity
8
0
100
AcDbLine
10
260.31302194516252
20
17.789137047089191
30
0
11
249.94605496197136
21
8.7131292156823434
31
0
0
LINE
5
117
100
AcDbEntity
8
0
100
AcDbLine
10
206.87655301357063
20
-26.245704673704093
30
0
11
222.18020609804591
21
-16.961488469122425
31
0
0
LINE
5
118
100
AcDbEntity
8
0
100
AcDbLine
10
184.7372682180297
20
-29.000362228909648
30
0
11
206.87655301357063
21
-26.245704673704093
31
0
0
LINE
5
119
100
AcDbEntity
8
0
100
AcDbLine
10
166.4304438419087
20
-27.41224147254016
30
0
11
184.7372682180297
21
-29.000362228909648
31
0
0
LINE
5
120
100
AcDbEntity
8
0
100
AcDbLine
10
166.4304438419087
20
-27.41224147254016
30
0
11
183.76803685601294
21
-38.080529725698312
31
0
0
LINE
5
121
100
AcDbEntity
8
0
100
AcDbLine
10
183.76803685601294
20
-38.080529725698312
30
0
11
202.75060862283743
21
-49.143525468285311
31
0
0
LINE
5
122
100
AcDbEntity
8
0
100
AcDbLine
10
221.13932930980519
20
-43.260877855155826
30
0
11
202.75060862283743
21
-49.143525468285311
31
0
0
LINE
5
123
100
AcDbEntity
8
0
100
AcDbLine
10
221.13932930980519
20
-43.260877855155826
30
0
11
241.17992327595351
21
-35.131098403963072
31
0
0
LINE
5
124
100
AcDbEntity
8
0
100
AcDbLine
10
190.70660284711903
20
-60.868567613105647
30
0
11
202.75060862283743
21
-49.143525468285311
31
0
0
LINE
5
125
100
AcDbEntity
8
0
100
AcDbLine
10
177.79875276437701
20
-78.475604138482922
30
0
11
190.70660284711903
21
-60.868567613105647
31
0
0
LINE
5
126
100
AcDbEntity
8
0
100
AcDbLine
10
173.45315134848218
20
-92.413068899174405
30
0
11
177.79875276437701
21
-78.475604138482922
31
0
0
LINE
5
127
100
AcDbEntity
8
0
100
AcDbLine
10
169.58697138447124
20
-105.81582610774561
30
0
11
173.45315134848218
21
-92.413068899174405
31
0
0
LINE
5
128
100
AcDbEntity
8
0
100
AcDbLine
10
163.16573333501665
20
-120.18202262120113
30
0
11
169.58697138447124
21
-105.81582610774561
31
0
0
LINE
5
129
100
AcDbEntity
8
0
100
AcDbLine
10
148.46193777294448
20
-29.371929742965804
30
0
11
166.4304438419087
21
-27.41224147254016
31
0
0
ENDSEC
0
SECTION
2
OBJECTS
0
DICTIONARY
5
C
100
AcDbDictionary
3
ACAD_GROUP
350
D
3
ACAD_MLINESTYLE
350
17
0
DICTIONARY
5
D
100
AcDbDictionary
0
DICTIONARY
5
1A
330
C
100
AcDbDictionary
0
DICTIONARY
5
17
100
AcDbDictionary
0
ENDSEC
0
EOF
