0
SECTION
2
HEADER
9
$INSUNITS
70
4
9
$ACADVER
1
AC1014
9
$HANDSEED
5
FFFF
0
ENDSEC
0
SECTION
2
TABLES
0
TABLE
2
VPORT
5
8
100
AcDbSymbolTable
0
ENDTAB
0
TABLE
2
LTYPE
5
5
100
AcDbSymbolTable
0
LTYPE
5
14
100
AcDbSymbolTableRecord
100
AcDbLinetypeTableRecord
2
BYBLOCK
70
0
0
LTYPE
5
15
100
AcDbSymbolTableRecord
100
AcDbLinetypeTableRecord
2
BYLAYER
70
0
0
ENDTAB
0
TABLE
2
LAYER
5
2
100
AcDbSymbolTable
70
2
0
LAYER
5
50
100
AcDbSymbolTableRecord
100
AcDbLayerTableRecord
2
0
70
0
6
CONTINUOUS
0
ENDTAB
0
TABLE
2
STYLE
5
3
100
AcDbSymbolTable
70
1
0
STYLE
5
11
100
AcDbSymbolTableRecord
100
AcDbTextStyleTableRecord
2
STANDARD
70
0
0
ENDTAB
0
TABLE
2
VIEW
5
6
100
AcDbSymbolTable
70
0
0
ENDTAB
0
TABLE
2
UCS
5
7
100
AcDbSymbolTable
70
0
0
ENDTAB
0
TABLE
2
APPID
5
9
100
AcDbSymbolTable
70
2
0
APPID
5
12
100
AcDbSymbolTableRecord
100
AcDbRegAppTableRecord
2
ACAD
70
0
0
ENDTAB
0
TABLE
2
DIMSTYLE
5
A
100
AcDbSymbolTable
70
1
0
ENDTAB
0
TABLE
2
BLOCK_RECORD
5
1
100
AcDbSymbolTable
70
1
0
BLOCK_RECORD
5
1F
100
AcDbSymbolTableRecord
100
AcDbBlockTableRecord
2
*MODEL_SPACE
0
BLOCK_RECORD
5
1B
100
AcDbSymbolTableRecord
100
AcDbBlockTableRecord
2
*PAPER_SPACE
0
ENDTAB
0
ENDSEC
0
SECTION
2
BLOCKS
0
BLOCK
5
20
100
AcDbEntity
100
AcDbBlockBegin
2
*MODEL_SPACE
0
ENDBLK
5
21
100
AcDbEntity
100
AcDbBlockEnd
0
BLOCK
5
1C
100
AcDbEntity
100
AcDbBlockBegin
2
*PAPER_SPACE
0
ENDBLK
5
1D
100
AcDbEntity
100
AcDbBlockEnd
0
ENDSEC
0
SECTION
2
ENTITIES
0
LINE
5
100
100
AcDbEntity
8
0
100
AcDbLine
10
348.0830032677332
20
-150.51255404405001
30
0
11
345.85693055989958
21
-135.8204741723483
31
0
0
LINE
5
101
100
AcDbEntity
8
0
100
AcDbLine
10
345.85693055989958
20
-135.8204741723483
30
0
11
330.09633578843773
21
-131.10120003174109
31
0
0
LINE
5
102
100
AcDbEntity
8
0
100
AcDbLine
10
330.09633578843773
20
-131.10120003174109
30
0
11
315.04808428348269
21
-125.75862553294047
31
0
0
LINE
5
103
100
AcDbEntity
8
0
100
AcDbLine
10
315.04808428348269
20
-125.75862553294047
30
0
11
300.44504732009432
21
-113.55974709401238
31
0
0
LINE
5
104
100
AcDbEntity
8
0
100
AcDbLine
10
300.44504732009432
20
-113.55974709401238
30
0
11
301.33547640322774
21
-125.75862553294047
31
0
0
LINE
5
105
100
AcDbEntity
8
0
100
AcDbLine
10
284.59540964031908
20
-103.05268391303782
30
0
11
300.44504732009432
21
-113.55974709401238
31
0
0
LINE
5
106
100
AcDbEntity
8
0
100
AcDbLine
10
300.44504732009432
20
-113.55974709401238
30
0
11
297.59567425406726
21
-97.175851964357136
31
0
0
LINE
5
107
100
AcDbEntity
8
0
100
AcDbLine
10
297.59567425406726
20
-97.175851964357136
30
0
11
300.53409022840759
21
-84.086544442295619
31
0
0
LINE
5
108
100
AcDbEntity
8
0
100
AcDbLine
10
300.53409022840759
20
-84.086544442295619
30
0
11
284.59540964031908
21
-103.05268391303782
31
0
0
LINE
5
109
100
AcDbEntity
8
0
100
AcDbLine
10
284.59540964031908
20
-103.05268391303782
30
0
11
268.12247160235052
21
-92.634663640376615
31
0
0
LINE
5
110
100
AcDbEntity
8
0
100
AcDbLine
10
268.12247160235052
20
-92.634663640376615
30
0
11
283.61593764887232
21
-90.675719657483072
31
0
0
LINE
5
111
100
AcDbEntity
8
0
100
AcDbLine
10
283.61593764887232
20
-90.675719657483072
30
0
11
300.53409022840759
21
-84.086544442295619
31
0
0
LINE
5
112
100
AcDbEntity
8
0
100
AcDbLine
10
268.12247160235052
20
-92.634663640376615
30
0
11
258.84543333516046
21
-78.330880469133632
31
0
0
LINE
5
113
100
AcDbEntity
8
0
100
AcDbLine
10
258.84543333516046
20
-78.330880469133632
30
0
11
258.99422478920098
21
-63.383969261626987
31
0
0
LINE
5
114
100
AcDbEntity
8
0
100
AcDbLine
10
258.99422478920098
20
-63.383969261626987
30
0
11
286.64339653152604
21
-71.798623095054211
31
0
0
LINE
5
115
100
AcDbEntity
8
0
100
AcDbLine
10
286.64339653152604
20
-71.798623095054211
30
0
11
270.5266301268108
21
-81.94951464277537
31
0
0
LINE
5
116
100
AcDbEntity
8
0
100
AcDbLine
10
270.5266301268108
20
-81.94951464277537
30
0
11
252.45091973920208
21
-86.045488425189234
31
0
0
LINE
5
117
100
AcDbEntity
8
0
100
AcDbLine
10
286.64339653152604
20
-71.798623095054211
30
0
11
300.53409022840759
21
-84.086544442295619
31
0
0
LINE
5
118
100
AcDbEntity
8
0
100
AcDbLine
10
300.53409022840759
20
-84.086544442295619
30
0
11
297.32854552912721
21
-70.462979470354043
31
0
0
LINE
5
119
100
AcDbEntity
8
0
100
AcDbLine
10
297.32854552912721
20
-70.462979470354043
30
0
11
298.42134207426807
21
-55.785461665472923
31
0
0
LINE
5
120
100
AcDbEntity
8
0
100
AcDbLine
10
298.42134207426807
20
-55.785461665472923
30
0
11
286.64339653152604
21
-71.798623095054211
31
0
0
LINE
5
121
100
AcDbEntity
8
0
100
AcDbLine
10
298.42134207426807
20
-55.785461665472923
30
0
11
314.98773959623162
21
-39.714933219767332
31
0
0
LINE
5
122
100
AcDbEntity
8
0
100
AcDbLine
10
314.98773959623162
20
-39.714933219767332
30
0
11
311.52128445849729
21
-23.711569754538758
31
0
0
LINE
5
123
100
AcDbEntity
8
0
100
AcDbLine
10
311.52128445849729
20
-23.711569754538758
30
0
11
316.06468781794484
21
-9.4323020534178958
31
0
0
LINE
5
124
100
AcDbEntity
8
0
100
AcDbLine
10
316.06468781794484
20
-9.4323020534178958
30
0
11
319.03651028168258
21
3.681397557989464
31
0
0
LINE
5
125
100
AcDbEntity
8
0
100
AcDbLine
10
319.03651028168258
20
3.681397557989464
30
0
11
323.6159716044537
21
14.928015806559674
31
0
0
LINE
5
126
100
AcDbEntity
8
0
100
AcDbLine
10
323.6159716044537
20
14.928015806559674
30
0
11
326.6057522262048
21
29.133872993360114
31
0
0
LINE
5
127
100
AcDbEntity
8
0
100
AcDbLine
10
326.6057522262048
20
29.133872993360114
30
0
11
323.3987540812584
21
40.36364945363151
31
0
0
LINE
5
128
100
AcDbEntity
8
0
100
AcDbLine
10
323.3987540812584
20
40.36364945363151
30
0
11
343.04009335331023
21
41.98958004583011
31
0
0
LINE
5
129
100
AcDbEntity
8
0
100
AcDbLine
10
316.42925690783647
20
74.292113270195841
30
0
11
319.90391534475242
21
52.698182655815735
31
0
0
LINE
5
130
100
AcDbEntity
8
0
100
AcDbLine
10
319.90391534475242
20
52.698182655815735
30
0
11
323.3987540812584
21
40.36364945363151
31
0
0
LINE
5
131
100
AcDbEntity
8
0
100
AcDbLine
10
323.3987540812584
20
40.36364945363151
30
0
11
318.77592877015411
21
28.68160049274271
31
0
0
LINE
5
132
100
AcDbEntity
8
0
100
AcDbLine
10
318.77592877015411
20
28.68160049274271
30
0
11
317.01615969810712
21
17.150401448492708
31
0
0
LINE
5
133
100
AcDbEntity
8
0
100
AcDbLine
10
317.01615969810712
20
17.150401448492708
30
0
11
308.49701473736383
21
6.812940962531469
31
0
0
LINE
5
134
100
AcDbEntity
8
0
100
AcDbLine
10
308.49701473736383
20
6.812940962531469
30
0
11
306.4757465199732
21
-3.4940148573815177
31
0
0
LINE
5
135
100
AcDbEntity
8
0
100
AcDbLine
10
306.4757465199732
20
-3.4940148573815177
30
0
11
316.06468781794484
21
-9.4323020534178958
31
0
0
LINE
5
136
100
AcDbEntity
8
0
100
AcDbLine
10
314.98773959623162
20
-39.714933219767332
30
0
11
318.7789287859265
21
-23.003506893326158
31
0
0
LINE
5
137
100
AcDbEntity
8
0
100
AcDbLine
10
318.7789287859265
20
-23.003506893326158
30
0
11
316.06468781794484
21
-9.4323020534178958
31
0
0
LINE
5
138
100
AcDbEntity
8
0
100
AcDbLine
10
306.4757465199732
20
-3.4940148573815177
30
0
11
293.33882023494203
21
-8.9589005118356564
31
0
0
LINE
5
139
100
AcDbEntity
8
0
100
AcDbLine
10
293.33882023494203
20
-8.9589005118356564
30
0
11
286.70148988278277
21
-0.62102839913507735
31
0
0
LINE
5
140
100
AcDbEntity
8
0
100
AcDbLine
10
286.70148988278277
20
-0.62102839913507735
30
0
11
293.04317781681914
21
13.527392311418666
31
0
0
LINE
5
141
100
AcDbEntity
8
0
100
AcDbLine
10
293.04317781681914
20
13.527392311418666
30
0
11
299.24071835456584
21
26.546686102944136
31
0
0
LINE
5
142
100
AcDbEntity
8
0
100
AcDbLine
10
299.24071835456584
20
26.546686102944136
30
0
11
296.11472616088253
21
40.600108932056898
31
0
0
LINE
5
143
100
AcDbEntity
8
0
100
AcDbLine
10
296.11472616088253
20
40.600108932056898
30
0
11
309.65790223911586
21
40.90154253440376
31
0
0
LINE
5
144
100
AcDbEntity
8
0
100
AcDbLine
10
309.65790223911586
20
40.90154253440376
30
0
11
323.3987540812584
21
40.36364945363151
31
0
0
LINE
5
145
100
AcDbEntity
8
0
100
AcDbLine
10
296.11472616088253
20
40.600108932056898
30
0
11
300.2541433407427
21
52.850145152343487
31
0
0
LINE
5
146
100
AcDbEntity
8
0
100
AcDbLine
10
300.2541433407427
20
52.850145152343487
30
0
11
308.11918029408355
21
65.02673850781693
31
0
0
LINE
5
147
100
AcDbEntity
8
0
100
AcDbLine
10
308.11918029408355
20
65.02673850781693
30
0
11
316.42925690783647
21
74.292113270195841
31
0
0
LINE
5
148
100
AcDbEntity
8
0
100
AcDbLine
10
300.2541433407427
20
52.850145152343487
30
0
11
319.90391534475242
21
52.698182655815735
31
0
0
LINE
5
149
100
AcDbEntity
8
0
100
AcDbLine
10
316.42925690783647
20
74.292113270195841
30
0
11
306.15520592622539
21
81.98149733819406
31
0
0
LINE
5
150
100
AcDbEntity
8
0
100
AcDbLine
10
306.15520592622539
20
81.98149733819406
30
0
11
318.49699043872675
21
86.827747801218152
31
0
0
LINE
5
151
100
AcDbEntity
8
0
100
AcDbLine
10
318.49699043872675
20
86.827747801218152
30
0
11
316.42925690783647
21
74.292113270195841
31
0
0
LINE
5
152
100
AcDbEntity
8
0
100
AcDbLine
10
318.49699043872675
20
86.827747801218152
30
0
11
334.26087184787241
21
103.73464474054673
31
0
0
LINE
5
153
100
AcDbEntity
8
0
100
AcDbLine
10
334.26087184787241
20
103.73464474054673
30
0
11
338.81764926875474
21
113.06263616682342
31
0
0
LINE
5
154
100
AcDbEntity
8
0
100
AcDbLine
10
338.81764926875474
20
113.06263616682342
30
0
11
342.83833522835675
21
123.30198307727657
31
0
0
LINE
5
155
100
AcDbEntity
8
0
100
AcDbLine
10
342.83833522835675
20
123.30198307727657
30
0
11
353.59232994163904
21
137.59418143500855
31
0
0
LINE
5
156
100
AcDbEntity
8
0
100
AcDbLine
10
353.59232994163904
20
137.59418143500855
30
0
11
366.10194719562202
21
148.54710363992027
31
0
0
LINE
5
157
100
AcDbEntity
8
0
100
AcDbLine
10
366.10194719562202
20
148.54710363992027
30
0
11
365.24602304077575
21
163.17010323537676
31
0
0
LINE
5
158
100
AcDbEntity
8
0
100
AcDbLine
10
365.24602304077575
20
163.17010323537676
30
0
11
350.22085002530281
21
162.29097077170547
31
0
0
LINE
5
159
100
AcDbEntity
8
0
100
AcDbLine
10
350.22085002530281
20
162.29097077170547
30
0
11
360.29091279099214
21
173.16024486800501
31
0
0
LINE
5
160
100
AcDbEntity
8
0
100
AcDbLine
10
360.29091279099214
20
173.16024486800501
30
0
11
365.24602304077575
21
163.17010323537676
31
0
0
LINE
5
161
100
AcDbEntity
8
0
100
AcDbLine
10
360.29091279099214
20
173.16024486800501
30
0
11
366.04523437138596
21
189.94368281082043
31
0
0
LINE
5
162
100
AcDbEntity
8
0
100
AcDbLine
10
330.2271469893688
20
158.88367596699126
30
0
11
350.22085002530281
21
162.29097077170547
31
0
0
LINE
5
163
100
AcDbEntity
8
0
100
AcDbLine
10
330.2271469893688
20
158.88367596699126
30
0
11
335.74048428100605
21
140.87506117804381
31
0
0
LINE
5
164
100
AcDbEntity
8
0
100
AcDbLine
10
335.74048428100605
20
140.87506117804381
30
0
11
342.83833522835675
21
123.30198307727657
31
0
0
LINE
5
165
100
AcDbEntity
8
0
100
AcDbLine
10
330.2271469893688
20
158.88367596699126
30
0
11
308.81651699677985
21
157.08475977321524
31
0
0
LINE
5
166
100
AcDbEntity
8
0
100
AcDbLine
10
308.81651699677985
20
157.08475977321524
30
0
11
285.67751654350411
21
150.10073219737899
31
0
0
LINE
5
167
100
AcDbEntity
8
0
100
AcDbLine
10
285.67751654350411
20
150.10073219737899
30
0
11
265.99525701160195
21
142.12906435829314
31
0
0
LINE
5
168
100
AcDbEntity
8
0
100
AcDbLine
10
265.99525701160195
20
142.12906435829314
30
0
11
255.65125671204484
21
121.48699792048478
31
0
0
LINE
5
169
100
AcDbEntity
8
0
100
AcDbLine
10
255.65125671204484
20
121.48699792048478
30
0
11
254.90882927827391
21
99.719015187584304
31
0
0
LINE
5
170
100
AcDbEntity
8
0
100
AcDbLine
10
254.90882927827391
20
99.719015187584304
30
0
11
267.25596887635209
21
91.673998264242243
31
0
0
LINE
5
171
100
AcDbEntity
8
0
100
AcDbLine
10
267.25596887635209
20
91.673998264242243
30
0
11
282.24703697530657
21
95.874081998863119
31
0
0
LINE
5
172
100
AcDbEntity
8
0
100
AcDbLine
10
282.24703697530657
20
95.874081998863119
30
0
11
294.16123054410832
21
99.660349634816683
31
0
0
LINE
5
173
100
AcDbEntity
8
0
100
AcDbLine
10
294.16123054410832
20
99.660349634816683
30
0
11
311.42337559733295
21
100.35726853448104
31
0
0
LINE
5
174
100
AcDbEntity
8
0
100
AcDbLine
10
311.42337559733295
20
100.35726853448104
30
0
11
334.26087184787241
21
103.73464474054673
31
0
0
LINE
5
175
100
AcDbEntity
8
0
100
AcDbLine
10
311.42337559733295
20
100.35726853448104
30
0
11
318.49699043872675
21
86.827747801218152
31
0
0
LINE
5
176
100
AcDbEntity
8
0
100
AcDbLine
10
238.95743861270654
20
109.05366211323212
30
0
11
239.12158071890099
21
95.420573810306053
31
0
0
LINE
5
177
100
AcDbEntity
8
0
100
AcDbLine
10
239.12158071890099
20
95.420573810306053
30
0
11
254.90882927827391
21
99.719015187584304
31
0
0
LINE
5
178
100
AcDbEntity
8
0
100
AcDbLine
10
238.95743861270654
20
109.05366211323212
30
0
11
255.65125671204484
21
121.48699792048478
31
0
0
LINE
5
179
100
AcDbEntity
8
0
100
AcDbLine
10
219.87107733467803
20
95.889886403767576
30
0
11
239.12158071890099
21
95.420573810306053
31
0
0
LINE
5
180
100
AcDbEntity
8
0
100
AcDbLine
10
229.58444861044481
20
75.390596708481297
30
0
11
239.12158071890099
21
95.420573810306053
31
0
0
LINE
5
181
100
AcDbEntity
8
0
100
AcDbLine
10
229.58444861044481
20
75.390596708481297
30
0
11
246.96633360449118
21
87.086214492579444
31
0
0
LINE
5
182
100
AcDbEntity
8
0
100
AcDbLine
10
246.96633360449118
20
87.086214492579444
30
0
11
267.25596887635209
21
91.673998264242243
31
0
0
LINE
5
183
100
AcDbEntity
8
0
100
AcDbLine
10
267.25596887635209
20
91.673998264242243
30
0
11
279.85622008021471
21
89.089331350629394
31
0
0
LINE
5
184
100
AcDbEntity
8
0
100
AcDbLine
10
279.85622008021471
20
89.089331350629394
30
0
11
290.9702878087499
21
82.756897412277922
31
0
0
LINE
5
185
100
AcDbEntity
8
0
100
AcDbLine
10
290.9702878087499
20
82.756897412277922
30
0
11
306.15520592622539
21
81.98149733819406
31
0
0
LINE
5
186
100
AcDbEntity
8
0
100
AcDbLine
10
290.9702878087499
20
82.756897412277922
30
0
11
279.08082000613081
21
76.036763436884513
31
0
0
LINE
5
187
100
AcDbEntity
8
0
100
AcDbLine
10
279.08082000613081
20
76.036763436884513
30
0
11
264.9943853269408
21
70.092029535574966
31
0
0
LINE
5
188
100
AcDbEntity
8
0
100
AcDbLine
10
264.9943853269408
20
70.092029535574966
30
0
11
250.6494839563895
21
65.633479109592798
31
0
0
LINE
5
189
100
AcDbEntity
8
0
100
AcDbLine
10
250.6494839563895
20
65.633479109592798
30
0
11
233.46144898086408
21
63.565745578702526
31
0
0
LINE
5
190
100
AcDbEntity
8
0
100
AcDbLine
10
233.46144898086408
20
63.565745578702526
30
0
11
229.58444861044481
21
75.390596708481297
31
0
0
LINE
5
191
100
AcDbEntity
8
0
100
AcDbLine
10
229.58444861044481
20
75.390596708481297
30
0
11
217.25498398520449
21
85.901614984781247
31
0
0
LINE
5
192
100
AcDbEntity
8
0
100
AcDbLine
10
217.25498398520449
20
85.901614984781247
30
0
11
211.70352604165274
21
104.20022705506254
31
0
0
LINE
5
193
100
AcDbEntity
8
0
100
AcDbLine
10
219.87107733467803
20
95.889886403767576
30
0
11
196.58525580610439
21
93.914927918501633
31
0
0
LINE
5
194
100
AcDbEntity
8
0
100
AcDbLine
10
196.58525580610439
20
93.914927918501633
30
0
11
175.02766701156585
21
90.445132039729558
31
0
0
LINE
5
195
100
AcDbEntity
8
0
100
AcDbLine
10
206.17088352505934
20
84.298254540860867
30
0
11
211.70352604165274
21
104.20022705506254
31
0
0
LINE
5
196
100
AcDbEntity
8
0
100
AcDbLine
10
238.95743861270654
20
109.05366211323212
30
0
11
211.70352604165274
21
104.20022705506254
31
0
0
LINE
5
197
100
AcDbEntity
8
0
100
AcDbLine
10
211.70352604165274
20
104.20022705506254
30
0
11
213.03356938969742
21
120.73253953635043
31
0
0
LINE
5
198
100
AcDbEntity
8
0
100
AcDbLine
10
213.03356938969742
20
120.73253953635043
30
0
11
230.27143929788636
21
128.0526969284164
31
0
0
LINE
5
199
100
AcDbEntity
8
0
100
AcDbLine
10
230.27143929788636
20
128.0526969284164
30
0
11
247.59370195152417
21
138.85410782098501
31
0
0
LINE
5
200
100
AcDbEntity
8
0
100
AcDbLine
10
247.59370195152417
20
138.85410782098501
30
0
11
265.99525701160195
21
142.12906435829314
31
0
0
LINE
5
201
100
AcDbEntity
8
0
100
AcDbLine
10
287.46161335639323
20
49.817841748645826
30
0
11
300.2541433407427
21
52.850145152343487
31
0
0
LINE
5
202
100
AcDbEntity
8
0
100
AcDbLine
10
287.46161335639323
20
49.817841748645826
30
0
11
273.95838726180205
21
40.910450500283915
31
0
0
LINE
5
203
100
AcDbEntity
8
0
100
AcDbLine
10
273.95838726180205
20
40.910450500283915
30
0
11
258.27569309580315
21
49.391424082500841
31
0
0
LINE
5
204
100
AcDbEntity
8
0
100
AcDbLine
10
258.27569309580315
20
49.391424082500841
30
0
11
241.34799037802648
21
51.601136385113136
31
0
0
LINE
5
205
100
AcDbEntity
8
0
100
AcDbLine
10
241.34799037802648
20
51.601136385113136
30
0
11
233.46144898086408
21
63.565745578702526
31
0
0
LINE
5
206
100
AcDbEntity
8
0
100
AcDbLine
10
233.46144898086408
20
63.565745578702526
30
0
11
212.24331953409117
21
56.597768852287295
31
0
0
LINE
5
207
100
AcDbEntity
8
0
100
AcDbLine
10
212.24331953409117
20
56.597768852287295
30
0
11
226.05694139533622
21
56.597768852287295
31
0
0
LINE
5
208
100
AcDbEntity
8
0
100
AcDbLine
10
226.05694139533622
20
56.597768852287295
30
0
11
241.34799037802648
21
51.601136385113136
31
0
0
LINE
5
209
100
AcDbEntity
8
0
100
AcDbLine
10
241.34799037802648
20
51.601136385113136
30
0
11
251.50039017816619
21
38.44670398477956
31
0
0
LINE
5
210
100
AcDbEntity
8
0
100
AcDbLine
10
251.50039017816619
20
38.44670398477956
30
0
11
266.8988059000684
21
33.75610965718473
31
0
0
LINE
5
211
100
AcDbEntity
8
0
100
AcDbLine
10
266.8988059000684
20
33.75610965718473
30
0
11
282.86577851016392
21
33.092793287625867
31
0
0
LINE
5
212
100
AcDbEntity
8
0
100
AcDbLine
10
282.86577851016392
20
33.092793287625867
30
0
11
296.11472616088253
21
40.600108932056898
31
0
0
LINE
5
213
100
AcDbEntity
8
0
100
AcDbLine
10
282.86577851016392
20
33.092793287625867
30
0
11
269.12565371215885
21
26.127971407257782
31
0
0
LINE
5
214
100
AcDbEntity
8
0
100
AcDbLine
10
269.12565371215885
20
26.127971407257782
30
0
11
260.31302194516252
21
17.789137047089191
31
0
0
LINE
5
215
100
AcDbEntity
8
0
100
AcDbLine
10
260.31302194516252
20
17.789137047089191
30
0
11
249.94605496197136
21
8.7131292156823434
31
0
0
LINE
5
216
100
AcDbEntity
8
0
100
AcDbLine
10
249.94605496197136
20
8.7131292156823434
30
0
11
237.04472216632556
21
1.4779223100161243
31
0
0
LINE
5
217
100
AcDbEntity
8
0
100
AcDbLine
10
237.04472216632556
20
1.4779223100161243
30
0
11
233.50490938055759
21
-12.16634383598684
31
0
0
LINE
5
218
100
AcDbEntity
8
0
100
AcDbLine
10
233.50490938055759
20
-12.16634383598684
30
0
11
232.64697731370066
21
-26.041655965911094
31
0
0
LINE
5
219
100
AcDbEntity
8
0
100
AcDbLine
10
232.64697731370066
20
-26.041655965911094
30
0
11
241.17992327595351
21
-35.131098403963072
31
0
0
LINE
5
220
100
AcDbEntity
8
0
100
AcDbLine
10
241.17992327595351
20
-35.131098403963072
30
0
11
248.59987628660821
21
-23.676545943764911
31
0
0
LINE
5
221
100
AcDbEntity
8
0
100
AcDbLine
10
248.59987628660821
20
-23.676545943764911
30
0
11
259.56960227167838
21
-13.216941728177265
31
0
0
LINE
5
222
100
AcDbEntity
8
0
100
AcDbLine
10
259.56960227167838
20
-13.216941728177265
30
0
11
273.56633181450428
21
-7.7362946180346022
31
0
0
LINE
5
223
100
AcDbEntity
8
0
100
AcDbLine
10
273.56633181450428
20
-7.7362946180346022
30
0
11
286.70148988278277
21
-0.62102839913507735
31
0
0
LINE
5
224
100
AcDbEntity
8
0
100
AcDbLine
10
293.33882023494203
20
-8.9589005118356564
30
0
11
278.54107303755683
21
-18.023047655533134
31
0
0
LINE
5
225
100
AcDbEntity
8
0
100
AcDbLine
10
278.54107303755683
20
-18.023047655533134
30
0
11
265.21888467751774
21
-25.906747729353725
31
0
0
LINE
5
226
100
AcDbEntity
8
0
100
AcDbLine
10
265.21888467751774
20
-25.906747729353725
30
0
11
253.23734691826735
21
-31.699370136535279
31
0
0
LINE
5
227
100
AcDbEntity
8
0
100
AcDbLine
10
253.23734691826735
20
-31.699370136535279
30
0
11
241.17992327595351
21
-35.131098403963072
31
0
0
LINE
5
228
100
AcDbEntity
8
0
100
AcDbLine
10
241.17992327595351
20
-35.131098403963072
30
0
11
243.53380917610446
21
-52.712149191992538
31
0
0
LINE
5
229
100
AcDbEntity
8
0
100
AcDbLine
10
243.53380917610446
20
-52.712149191992538
30
0
11
258.99422478920098
21
-63.383969261626987
31
0
0
LINE
5
230
100
AcDbEntity
8
0
100
AcDbLine
10
243.53380917610446
20
-52.712149191992538
30
0
11
224.36389170515019
21
-49.143525468285311
31
0
0
LINE
5
231
100
AcDbEntity
8
0
100
AcDbLine
10
224.36389170515019
20
-49.143525468285311
30
0
11
202.75060862283743
21
-49.143525468285311
31
0
0
LINE
5
232
100
AcDbEntity
8
0
100
AcDbLine
10
202.75060862283743
20
-49.143525468285311
30
0
11
216.57383834993931
21
-66.251717221612623
31
0
0
LINE
5
233
100
AcDbEntity
8
0
100
AcDbLine
10
216.57383834993931
20
-66.251717221612623
30
0
11
240.43012711690068
21
-68.682121304087218
31
0
0
LINE
5
234
100
AcDbEntity
8
0
100
AcDbLine
10
240.43012711690068
20
-68.682121304087218
30
0
11
252.45091973920208
21
-86.045488425189234
31
0
0
LINE
5
235
100
AcDbEntity
8
0
100
AcDbLine
10
252.45091973920208
20
-86.045488425189234
30
0
11
243.90280054112108
21
-92.100406190496614
31
0
0
LINE
5
236
100
AcDbEntity
8
0
100
AcDbLine
10
243.90280054112108
20
-92.100406190496614
30
0
11
268.12247160235052
21
-92.634663640376615
31
0
0
LINE
5
237
100
AcDbEntity
8
0
100
AcDbLine
10
252.45091973920208
20
-86.045488425189234
30
0
11
268.12247160235052
21
-92.634663640376615
31
0
0
LINE
5
238
100
AcDbEntity
8
0
100
AcDbLine
10
243.90280054112108
20
-92.100406190496614
30
0
11
227.69699122809254
21
-92.100406190496614
31
0
0
LINE
5
239
100
AcDbEntity
8
0
100
AcDbLine
10
227.69699122809254
20
-92.100406190496614
30
0
11
215.11349052535832
21
-97.684703832530758
31
0
0
LINE
5
240
100
AcDbEntity
8
0
100
AcDbLine
10
215.11349052535832
20
-97.684703832530758
30
0
11
205.27033824483127
21
-91.863484741896499
31
0
0
LINE
5
241
100
AcDbEntity
8
0
100
AcDbLine
10
205.27033824483127
20
-91.863484741896499
30
0
11
212.46215673756026
21
-78.558160507552415
31
0
0
LINE
5
242
100
AcDbEntity
8
0
100
AcDbLine
10
212.46215673756026
20
-78.558160507552415
30
0
11
216.57383834993931
21
-66.251717221612623
31
0
0
LINE
5
243
100
AcDbEntity
8
0
100
AcDbLine
10
216.57383834993931
20
-66.251717221612623
30
0
11
231.97105082713304
21
-79.011098668435082
31
0
0
LINE
5
244
100
AcDbEntity
8
0
100
AcDbLine
10
231.97105082713304
20
-79.011098668435082
30
0
11
252.45091973920208
21
-86.045488425189234
31
0
0
LINE
5
245
100
AcDbEntity
8
0
100
AcDbLine
10
190.70660284711903
20
-60.868567613105647
30
0
11
216.57383834993931
21
-66.251717221612623
31
0
0
LINE
5
246
100
AcDbEntity
8
0
100
AcDbLine
10
190.70660284711903
20
-60.868567613105647
30
0
11
202.75060862283743
21
-49.143525468285311
31
0
0
LINE
5
247
100
AcDbEntity
8
0
100
AcDbLine
10
177.79875276437701
20
-78.475604138482922
30
0
11
190.70660284711903
21
-60.868567613105647
31
0
0
LINE
5
248
100
AcDbEntity
8
0
100
AcDbLine
10
177.79875276437701
20
-78.475604138482922
30
0
11
192.52630583760271
21
-98.392760576844637
31
0
0
LINE
5
249
100
AcDbEntity
8
0
100
AcDbLine
10
192.52630583760271
20
-98.392760576844637
30
0
11
205.27033824483127
21
-91.863484741896499
31
0
0
LINE
5
250
100
AcDbEntity
8
0
100
AcDbLine
10
192.52630583760271
20
-98.392760576844637
30
0
11
178.14714230166729
21
-107.24285890699512
31
0
0
LINE
5
251
100
AcDbEntity
8
0
100
AcDbLine
10
178.14714230166729
20
-107.24285890699512
30
0
11
163.16573333501665
21
-120.18202262120113
31
0
0
LINE
5
252
100
AcDbEntity
8
0
100
AcDbLine
10
163.16573333501665
20
-120.18202262120113
30
0
11
169.58697138447124
21
-105.81582610774561
31
0
0
LINE
5
253
100
AcDbEntity
8
0
100
AcDbLine
10
169.58697138447124
20
-105.81582610774561
30
0
11
173.45315134848218
21
-92.413068899174405
31
0
0
LINE
5
254
100
AcDbEntity
8
0
100
AcDbLine
10
173.45315134848218
20
-92.413068899174405
30
0
11
177.79875276437701
21
-78.475604138482922
31
0
0
LINE
5
255
100
AcDbEntity
8
0
100
AcDbLine
10
177.79875276437701
20
-78.475604138482922
30
0
11
158.754169081181
21
-75.810749279256001
31
0
0
LINE
5
256
100
AcDbEntity
8
0
100
AcDbLine
10
158.754169081181
20
-75.810749279256001
30
0
11
151.66766098472834
21
-92.06803255935327
31
0
0
LINE
5
257
100
AcDbEntity
8
0
100
AcDbLine
10
151.66766098472834
20
-92.06803255935327
30
0
11
153.90297313987998
21
-108.33975958691246
31
0
0
LINE
5
258
100
AcDbEntity
8
0
100
AcDbLine
10
153.90297313987998
20
-108.33975958691246
30
0
11
163.16573333501665
21
-120.18202262120113
31
0
0
LINE
5
259
100
AcDbEntity
8
0
100
AcDbLine
10
141.94345997653895
20
-118.71639600804659
30
0
11
163.16573333501665
21
-120.18202262120113
31
0
0
LINE
5
260
100
AcDbEntity
8
0
100
AcDbLine
10
140.94683387959384
20
-126.10315413834545
30
0
11
163.16573333501665
21
-120.18202262120113
31
0
0
LINE
5
261
100
AcDbEntity
8
0
100
AcDbLine
10
140.94683387959384
20
-126.10315413834545
30
0
11
117.08643261743799
21
-123.46502623466728
31
0
0
LINE
5
262
100
AcDbEntity
8
0
100
AcDbLine
10
117.08643261743799
20
-123.46502623466728
30
0
11
96.626285097800618
21
-129.26890762275926
31
0
0
LINE
5
263
100
AcDbEntity
8
0
100
AcDbLine
10
96.626285097800618
20
-129.26890762275926
30
0
11
75.931637320058542
21
-137.00741614021521
31
0
0
LINE
5
264
100
AcDbEntity
8
0
100
AcDbLine
10
75.931637320058542
20
-137.00741614021521
30
0
11
79.038765739946157
21
-115.31614226552804
31
0
0
LINE
5
265
100
AcDbEntity
8
0
100
AcDbLine
10
79.038765739946157
20
-115.31614226552804
30
0
11
87.07039958003304
21
-99.194249520828137
31
0
0
LINE
5
266
100
AcDbEntity
8
0
100
AcDbLine
10
87.07039958003304
20
-99.194249520828137
30
0
11
97.894354393694357
21
-83.522425641733818
31
0
0
LINE
5
267
100
AcDbEntity
8
0
100
AcDbLine
10
97.894354393694357
20
-83.522425641733818
30
0
11
110.46180032597945
21
-97.0837471978856
31
0
0
LINE
5
268
100
AcDbEntity
8
0
100
AcDbLine
10
110.46180032597945
20
-97.0837471978856
30
0
11
124.06281529605359
21
-109.16051049027899
31
0
0
LINE
5
269
100
AcDbEntity
8
0
100
AcDbLine
10
124.06281529605359
20
-109.16051049027899
30
0
11
141.94345997653895
21
-118.71639600804659
31
0
0
LINE
5
270
100
AcDbEntity
8
0
100
AcDbLine
10
97.894354393694357
20
-83.522425641733818
30
0
11
115.18250205831916
21
-82.048813442597435
31
0
0
LINE
5
271
100
AcDbEntity
8
0
100
AcDbLine
10
115.18250205831916
20
-82.048813442597435
30
0
11
129.92180770835895
21
-81.090892566808947
31
0
0
LINE
5
272
100
AcDbEntity
8
0
100
AcDbLine
10
129.92180770835895
20
-81.090892566808947
30
0
11
143.9558727621181
21
-80.118234592786038
31
0
0
LINE
5
273
100
AcDbEntity
8
0
100
AcDbLine
10
143.9558727621181
20
-80.118234592786038
30
0
11
158.754169081181
21
-75.810749279256001
31
0
0
LINE
5
274
100
AcDbEntity
8
0
100
AcDbLine
10
158.754169081181
20
-75.810749279256001
30
0
11
159.57977733632322
21
-58.594960508668464
31
0
0
LINE
5
275
100
AcDbEntity
8
0
100
AcDbLine
10
159.57977733632322
20
-58.594960508668464
30
0
11
151.94958289505615
21
-45.519238379353467
31
0
0
LINE
5
276
100
AcDbEntity
8
0
100
AcDbLine
10
151.94958289505615
20
-45.519238379353467
30
0
11
148.46193777294448
21
-29.371929742965804
31
0
0
LINE
5
277
100
AcDbEntity
8
0
100
AcDbLine
10
148.46193777294448
20
-29.371929742965804
30
0
11
168.10835045663043
21
-39.774864454782787
31
0
0
LINE
5
278
100
AcDbEntity
8
0
100
AcDbLine
10
168.10835045663043
20
-39.774864454782787
30
0
11
175.30225845993346
21
-57.437557350754993
31
0
0
LINE
5
279
100
AcDbEntity
8
0
100
AcDbLine
10
175.30225845993346
20
-57.437557350754993
30
0
11
177.79875276437701
21
-78.475604138482922
31
0
0
LINE
5
280
100
AcDbEntity
8
0
100
AcDbLine
10
175.30225845993346
20
-57.437557350754993
30
0
11
190.70660284711903
21
-60.868567613105647
31
0
0
LINE
5
281
100
AcDbEntity
8
0
100
AcDbLine
10
168.10835045663043
20
-39.774864454782787
30
0
11
184.92836511343032
21
-45.396061062884307
31
0
0
LINE
5
282
100
AcDbEntity
8
0
100
AcDbLine
10
184.92836511343032
20
-45.396061062884307
30
0
11
202.75060862283743
21
-49.143525468285311
31
0
0
LINE
5
283
100
AcDbEntity
8
0
100
AcDbLine
10
183.76803685601294
20
-38.080529725698312
30
0
11
202.75060862283743
21
-49.143525468285311
31
0
0
LINE
5
284
100
AcDbEntity
8
0
100
AcDbLine
10
148.46193777294448
20
-29.371929742965804
30
0
11
166.4304438419087
21
-27.41224147254016
31
0
0
LINE
5
285
100
AcDbEntity
8
0
100
AcDbLine
10
166.4304438419087
20
-27.41224147254016
30
0
11
183.76803685601294
21
-38.080529725698312
31
0
0
LINE
5
286
100
AcDbEntity
8
0
100
AcDbLine
10
168.10835045663043
20
-39.774864454782787
30
0
11
166.4304438419087
21
-27.41224147254016
31
0
0
LINE
5
287
100
AcDbEntity
8
0
100
AcDbLine
10
166.4304438419087
20
-27.41224147254016
30
0
11
184.7372682180297
21
-29.000362228909648
31
0
0
LINE
5
288
100
AcDbEntity
8
0
100
AcDbLine
10
184.7372682180297
20
-29.000362228909648
30
0
11
206.87655301357063
21
-26.245704673704093
31
0
0
LINE
5
289
100
AcDbEntity
8
0
100
AcDbLine
10
206.87655301357063
20
-26.245704673704093
30
0
11
222.18020609804591
21
-16.961488469122425
31
0
0
LINE
5
290
100
AcDbEntity
8
0
100
AcDbLine
10
222.18020609804591
20
-16.961488469122425
30
0
11
232.64697731370066
21
-26.041655965911094
31
0
0
LINE
5
291
100
AcDbEntity
8
0
100
AcDbLine
10
226.94288843675989
20
-29.19513599543933
30
0
11
241.17992327595351
21
-35.131098403963072
31
0
0
LINE
5
292
100
AcDbEntity
8
0
100
AcDbLine
10
226.94288843675989
20
-29.19513599543933
30
0
11
230.03608134807652
21
-9.309661926884786
31
0
0
LINE
5
293
100
AcDbEntity
8
0
100
AcDbLine
10
230.03608134807652
20
-9.309661926884786
30
0
11
222.18020609804591
21
-16.961488469122425
31
0
0
LINE
5
294
100
AcDbEntity
8
0
100
AcDbLine
10
226.94288843675989
20
-29.19513599543933
30
0
11
222.18020609804591
21
-16.961488469122425
31
0
0
LINE
5
295
100
AcDbEntity
8
0
100
AcDbLine
10
230.03608134807652
20
-9.309661926884786
30
0
11
237.04472216632556
21
1.4779223100161243
31
0
0
LINE
5
296
100
AcDbEntity
8
0
100
AcDbLine
10
222.18020609804591
20
-16.961488469122425
30
0
11
204.17290763531329
21
-17.369585884708432
31
0
0
LINE
5
297
100
AcDbEntity
8
0
100
AcDbLine
10
204.17290763531329
20
-17.369585884708432
30
0
11
192.77493699691536
21
-2.1413623142756757
31
0
0
LINE
5
298
100
AcDbEntity
8
0
100
AcDbLine
10
192.77493699691536
20
-2.1413623142756757
30
0
11
194.12350877650789
21
-18.032744185035696
31
0
0
LINE
5
299
100
AcDbEntity
8
0
100
AcDbLine
10
194.12350877650789
20
-18.032744185035696
30
0
11
197.84739769373019
21
-34.968786931855007
31
0
0
LINE
5
300
100
AcDbEntity
8
0
100
AcDbLine
10
197.84739769373019
20
-34.968786931855007
30
0
11
202.75060862283743
21
-49.143525468285311
31
0
0
LINE
5
301
100
AcDbEntity
8
0
100
AcDbLine
10
202.75060862283743
20
-49.143525468285311
30
0
11
218.1762179194881
21
-37.988282587091618
31
0
0
LINE
5
302
100
AcDbEntity
8
0
100
AcDbLine
10
218.1762179194881
20
-37.988282587091618
30
0
11
241.17992327595351
21
-35.131098403963072
31
0
0
LINE
5
303
100
AcDbEntity
8
0
100
AcDbLine
10
221.13932930980519
20
-43.260877855155826
30
0
11
241.17992327595351
21
-35.131098403963072
31
0
0
LINE
5
304
100
AcDbEntity
8
0
100
AcDbLine
10
221.13932930980519
20
-43.260877855155826
30
0
11
202.75060862283743
21
-49.143525468285311
31
0
0
LINE
5
305
100
AcDbEntity
8
0
100
AcDbLine
10
237.04472216632556
20
1.4779223100161243
30
0
11
229.01207842745106
21
13.096703494230891
31
0
0
LINE
5
306
100
AcDbEntity
8
0
100
AcDbLine
10
229.01207842745106
20
13.096703494230891
30
0
11
221.82210123063589
21
24.661002482115357
31
0
0
LINE
5
307
100
AcDbEntity
8
0
100
AcDbLine
10
221.82210123063589
20
24.661002482115357
30
0
11
215.82055666405935
21
37.056031821570365
31
0
0
LINE
5
308
100
AcDbEntity
8
0
100
AcDbLine
10
215.82055666405935
20
37.056031821570365
30
0
11
230.61377430171655
21
41.566543809171598
31
0
0
LINE
5
309
100
AcDbEntity
8
0
100
AcDbLine
10
230.61377430171655
20
41.566543809171598
30
0
11
241.34799037802648
21
51.601136385113136
31
0
0
LINE
5
310
100
AcDbEntity
8
0
100
AcDbLine
10
241.34799037802648
20
51.601136385113136
30
0
11
224.80580004376318
21
51.95067240358749
31
0
0
LINE
5
311
100
AcDbEntity
8
0
100
AcDbLine
10
224.80580004376318
20
51.95067240358749
30
0
11
212.24331953409117
21
56.597768852287295
31
0
0
LINE
5
312
100
AcDbEntity
8
0
100
AcDbLine
10
215.82055666405935
20
37.056031821570365
30
0
11
212.24331953409117
21
56.597768852287295
31
0
0
LINE
5
313
100
AcDbEntity
8
0
100
AcDbLine
10
198.70873997022829
20
33.953927668321924
30
0
11
215.82055666405935
21
37.056031821570365
31
0
0
LINE
5
314
100
AcDbEntity
8
0
100
AcDbLine
10
198.70873997022829
20
33.953927668321924
30
0
11
212.24331953409117
21
56.597768852287295
31
0
0
LINE
5
315
100
AcDbEntity
8
0
100
AcDbLine
10
190.89670833014108
20
49.824011735084369
30
0
11
198.70873997022829
21
33.953927668321924
31
0
0
LINE
5
316
100
AcDbEntity
8
0
100
AcDbLine
10
190.89670833014108
20
49.824011735084369
30
0
11
212.24331953409117
21
56.597768852287295
31
0
0
LINE
5
317
100
AcDbEntity
8
0
100
AcDbLine
10
212.24331953409117
20
56.597768852287295
30
0
11
210.42327426763075
21
67.532681203345703
31
0
0
LINE
5
318
100
AcDbEntity
8
0
100
AcDbLine
10
210.42327426763075
20
67.532681203345703
30
0
11
229.58444861044481
21
75.390596708481297
31
0
0
LINE
5
319
100
AcDbEntity
8
0
100
AcDbLine
10
210.42327426763075
20
67.532681203345703
30
0
11
206.17088352505934
21
84.298254540860867
31
0
0
LINE
5
320
100
AcDbEntity
8
0
100
AcDbLine
10
192.77493699691536
20
-2.1413623142756757
30
0
11
193.45755356508764
21
8.872697124944052
31
0
0
LINE
5
321
100
AcDbEntity
8
0
100
AcDbLine
10
193.45755356508764
20
8.872697124944052
30
0
11
200.23892063546342
21
21.865091929758922
31
0
0
LINE
5
322
100
AcDbEntity
8
0
100
AcDbLine
10
200.23892063546342
20
21.865091929758922
30
0
11
198.70873997022829
21
33.953927668321924
31
0
0
LINE
5
323
100
AcDbEntity
8
0
100
AcDbLine
10
198.70873997022829
20
33.953927668321924
30
0
11
188.48613519344229
21
17.430462083099702
31
0
0
LINE
5
324
100
AcDbEntity
8
0
100
AcDbLine
10
188.48613519344229
20
17.430462083099702
30
0
11
184.88865215167436
21
7.8802742896829976
31
0
0
LINE
5
325
100
AcDbEntity
8
0
100
AcDbLine
10
184.88865215167436
20
7.8802742896829976
30
0
11
192.77493699691536
21
-2.1413623142756757
31
0
0
LINE
5
326
100
AcDbEntity
8
0
100
AcDbLine
10
184.88865215167436
20
7.8802742896829976
30
0
11
172.21938359796985
21
7.0261662972984258
31
0
0
LINE
5
327
100
AcDbEntity
8
0
100
AcDbLine
10
172.21938359796985
20
7.0261662972984258
30
0
11
188.48613519344229
21
17.430462083099702
31
0
0
LINE
5
328
100
AcDbEntity
8
0
100
AcDbLine
10
172.21938359796985
20
7.0261662972984258
30
0
11
154.60218375610722
21
0.16642975444410846
31
0
0
LINE
5
329
100
AcDbEntity
8
0
100
AcDbLine
10
154.60218375610722
20
0.16642975444410846
30
0
11
161.4090610196381
21
-13.798798859479477
31
0
0
LINE
5
330
100
AcDbEntity
8
0
100
AcDbLine
10
161.4090610196381
20
-13.798798859479477
30
0
11
174.17930680662394
21
-3.7009347167966933
31
0
0
LINE
5
331
100
AcDbEntity
8
0
100
AcDbLine
10
174.17930680662394
20
-3.7009347167966933
30
0
11
192.77493699691536
21
-2.1413623142756757
31
0
0
LINE
5
332
100
AcDbEntity
8
0
100
AcDbLine
10
161.4090610196381
20
-13.798798859479477
30
0
11
166.4304438419087
21
-27.41224147254016
31
0
0
LINE
5
333
100
AcDbEntity
8
0
100
AcDbLine
10
161.4090610196381
20
-13.798798859479477
30
0
11
148.46193777294448
21
-29.371929742965804
31
0
0
LINE
5
334
100
AcDbEntity
8
0
100
AcDbLine
10
152.53182343392015
20
-13.376073260159576
30
0
11
148.46193777294448
21
-29.371929742965804
31
0
0
LINE
5
335
100
AcDbEntity
8
0
100
AcDbLine
10
152.53182343392015
20
-13.376073260159576
30
0
11
154.60218375610722
21
0.16642975444410846
31
0
0
LINE
5
336
100
AcDbEntity
8
0
100
AcDbLine
10
154.60218375610722
20
0.16642975444410846
30
0
11
143.877988394906
21
15.281385197209794
31
0
0
LINE
5
337
100
AcDbEntity
8
0
100
AcDbLine
10
143.877988394906
20
15.281385197209794
30
0
11
154.60218375610722
21
0.16642975444410846
31
0
0
LINE
5
338
100
AcDbEntity
8
0
100
AcDbLine
10
151.0549453968847
20
16.268398880757438
30
0
11
154.60218375610722
21
0.16642975444410846
31
0
0
LINE
5
339
100
AcDbEntity
8
0
100
AcDbLine
10
143.877988394906
20
15.281385197209794
30
0
11
132.83295298945737
21
32.2615374606372
31
0
0
LINE
5
340
100
AcDbEntity
8
0
100
AcDbLine
10
132.83295298945737
20
32.2615374606372
30
0
11
151.0549453968847
21
16.268398880757438
31
0
0
LINE
5
341
100
AcDbEntity
8
0
100
AcDbLine
10
132.83295298945737
20
32.2615374606372
30
0
11
149.71620168652547
21
31.173560835107157
31
0
0
LINE
5
342
100
AcDbEntity
8
0
100
AcDbLine
10
149.71620168652547
20
31.173560835107157
30
0
11
151.0549453968847
21
16.268398880757438
31
0
0
LINE
5
343
100
AcDbEntity
8
0
100
AcDbLine
10
149.71620168652547
20
31.173560835107157
30
0
11
169.93152025440853
21
38.6934027930591
31
0
0
LINE
5
344
100
AcDbEntity
8
0
100
AcDbLine
10
169.93152025440853
20
38.6934027930591
30
0
11
190.89670833014108
21
49.824011735084369
31
0
0
LINE
5
345
100
AcDbEntity
8
0
100
AcDbLine
10
149.71620168652547
20
31.173560835107157
30
0
11
151.15287810612151
21
43.447352656257152
31
0
0
LINE
5
346
100
AcDbEntity
8
0
100
AcDbLine
10
151.15287810612151
20
43.447352656257152
30
0
11
150.56731017718647
21
54.779419825712083
31
0
0
LINE
5
347
100
AcDbEntity
8
0
100
AcDbLine
10
150.56731017718647
20
54.779419825712083
30
0
11
167.7206458755131
21
53.940812302682772
31
0
0
LINE
5
348
100
AcDbEntity
8
0
100
AcDbLine
10
167.7206458755131
20
53.940812302682772
30
0
11
151.15287810612151
21
43.447352656257152
31
0
0
LINE
5
349
100
AcDbEntity
8
0
100
AcDbLine
10
132.83295298945737
20
32.2615374606372
30
0
11
151.15287810612151
21
43.447352656257152
31
0
0
LINE
5
350
100
AcDbEntity
8
0
100
AcDbLine
10
132.83295298945737
20
32.2615374606372
30
0
11
150.56731017718647
21
54.779419825712083
31
0
0
LINE
5
351
100
AcDbEntity
8
0
100
AcDbLine
10
167.7206458755131
20
53.940812302682772
30
0
11
184.34032224100289
21
62.784309818264497
31
0
0
LINE
5
352
100
AcDbEntity
8
0
100
AcDbLine
10
184.34032224100289
20
62.784309818264497
30
0
11
190.89670833014108
21
49.824011735084369
31
0
0
LINE
5
353
100
AcDbEntity
8
0
100
AcDbLine
10
184.34032224100289
20
62.784309818264497
30
0
11
210.42327426763075
21
67.532681203345703
31
0
0
LINE
5
354
100
AcDbEntity
8
0
100
AcDbLine
10
184.34032224100289
20
62.784309818264497
30
0
11
195.40048402133337
21
73.667277684432349
31
0
0
LINE
5
355
100
AcDbEntity
8
0
100
AcDbLine
10
195.40048402133337
20
73.667277684432349
30
0
11
212.24331953409117
21
56.597768852287295
31
0
0
LINE
5
356
100
AcDbEntity
8
0
100
AcDbLine
10
195.40048402133337
20
73.667277684432349
30
0
11
206.17088352505934
21
84.298254540860867
31
0
0
LINE
5
357
100
AcDbEntity
8
0
100
AcDbLine
10
174.71619831394219
20
84.747547872301269
30
0
11
195.40048402133337
21
73.667277684432349
31
0
0
LINE
5
358
100
AcDbEntity
8
0
100
AcDbLine
10
174.71619831394219
20
84.747547872301269
30
0
11
154.01482417054467
21
93.153109417044519
31
0
0
LINE
5
359
100
AcDbEntity
8
0
100
AcDbLine
10
154.01482417054467
20
93.153109417044519
30
0
11
175.02766701156585
21
90.445132039729558
31
0
0
LINE
5
360
100
AcDbEntity
8
0
100
AcDbLine
10
154.01482417054467
20
93.153109417044519
30
0
11
174.44150715272545
21
97.163304574961202
31
0
0
LINE
5
361
100
AcDbEntity
8
0
100
AcDbLine
10
174.44150715272545
20
97.163304574961202
30
0
11
194.887680521791
21
99.754301495183526
31
0
0
LINE
5
362
100
AcDbEntity
8
0
100
AcDbLine
10
194.887680521791
20
99.754301495183526
30
0
11
211.70352604165274
21
104.20022705506254
31
0
0
LINE
5
363
100
AcDbEntity
8
0
100
AcDbLine
10
154.01482417054467
20
93.153109417044519
30
0
11
168.69638252006081
21
75.019528082125404
31
0
0
LINE
5
364
100
AcDbEntity
8
0
100
AcDbLine
10
168.69638252006081
20
75.019528082125404
30
0
11
184.34032224100289
21
62.784309818264497
31
0
0
LINE
5
365
100
AcDbEntity
8
0
100
AcDbLine
10
150.56731017718647
20
54.779419825712083
30
0
11
154.31358990030557
21
72.742252583997498
31
0
0
LINE
5
366
100
AcDbEntity
8
0
100
AcDbLine
10
154.31358990030557
20
72.742252583997498
30
0
11
154.01482417054467
21
93.153109417044519
31
0
0
LINE
5
367
100
AcDbEntity
8
0
100
AcDbLine
10
154.01482417054467
20
93.153109417044519
30
0
11
145.59402187457894
21
73.880890333061458
31
0
0
LINE
5
368
100
AcDbEntity
8
0
100
AcDbLine
10
145.59402187457894
20
73.880890333061458
30
0
11
135.63623527682151
21
54.320318484128919
31
0
0
LINE
5
369
100
AcDbEntity
8
0
100
AcDbLine
10
135.63623527682151
20
54.320318484128919
30
0
11
132.83295298945737
21
32.2615374606372
31
0
0
LINE
5
370
100
AcDbEntity
8
0
100
AcDbLine
10
122.96030452886549
20
44.149247677798385
30
0
11
135.63623527682151
21
54.320318484128919
31
0
0
LINE
5
371
100
AcDbEntity
8
0
100
AcDbLine
10
122.96030452886549
20
44.149247677798385
30
0
11
132.83295298945737
21
32.2615374606372
31
0
0
LINE
5
372
100
AcDbEntity
8
0
100
AcDbLine
10
122.96030452886549
20
44.149247677798385
30
0
11
119.57519581444274
21
56.452115908711221
31
0
0
LINE
5
373
100
AcDbEntity
8
0
100
AcDbLine
10
119.57519581444274
20
56.452115908711221
30
0
11
117.76646008912493
21
70.606169813547709
31
0
0
LINE
5
374
100
AcDbEntity
8
0
100
AcDbLine
10
117.76646008912493
20
70.606169813547709
30
0
11
139.6611199189299
21
77.866122454785298
31
0
0
LINE
5
375
100
AcDbEntity
8
0
100
AcDbLine
10
139.6611199189299
20
77.866122454785298
30
0
11
154.01482417054467
21
93.153109417044519
31
0
0
LINE
5
376
100
AcDbEntity
8
0
100
AcDbLine
10
134.40042146472928
20
83.535238889593245
30
0
11
154.01482417054467
21
93.153109417044519
31
0
0
LINE
5
377
100
AcDbEntity
8
0
100
AcDbLine
10
134.40042146472928
20
83.535238889593245
30
0
11
117.76646008912493
21
70.606169813547709
31
0
0
LINE
5
378
100
AcDbEntity
8
0
100
AcDbLine
10
134.40042146472928
20
83.535238889593245
30
0
11
113.88575789322974
21
81.729034048198997
31
0
0
LINE
5
379
100
AcDbEntity
8
0
100
AcDbLine
10
113.88575789322974
20
81.729034048198997
30
0
11
94.964417558340358
21
80.065194305049232
31
0
0
LINE
5
380
100
AcDbEntity
8
0
100
AcDbLine
10
94.964417558340358
20
80.065194305049232
30
0
11
73.246908960612345
21
76.726695645247688
31
0
0
LINE
5
381
100
AcDbEntity
8
0
100
AcDbLine
10
73.246908960612345
20
76.726695645247688
30
0
11
57.148528956384375
21
72.873168440656201
31
0
0
LINE
5
382
100
AcDbEntity
8
0
100
AcDbLine
10
57.148528956384375
20
72.873168440656201
30
0
11
41.653364498041469
21
67.287613516509538
31
0
0
LINE
5
383
100
AcDbEntity
8
0
100
AcDbLine
10
41.653364498041469
20
67.287613516509538
30
0
11
53.873477789841957
21
62.961909696403175
31
0
0
LINE
5
384
100
AcDbEntity
8
0
100
AcDbLine
10
53.873477789841957
20
62.961909696403175
30
0
11
71.163760094420383
21
62.521101003550243
31
0
0
LINE
5
385
100
AcDbEntity
8
0
100
AcDbLine
10
71.163760094420383
20
62.521101003550243
30
0
11
94.964749175536554
21
69.061830827368425
31
0
0
LINE
5
386
100
AcDbEntity
8
0
100
AcDbLine
10
94.964749175536554
20
69.061830827368425
30
0
11
117.76646008912493
21
70.606169813547709
31
0
0
LINE
5
387
100
AcDbEntity
8
0
100
AcDbLine
10
71.163760094420383
20
62.521101003550243
30
0
11
73.246908960612345
21
76.726695645247688
31
0
0
LINE
5
388
100
AcDbEntity
8
0
100
AcDbLine
10
75.252295755337869
20
89.278413581123715
30
0
11
73.246908960612345
21
76.726695645247688
31
0
0
LINE
5
389
100
AcDbEntity
8
0
100
AcDbLine
10
75.252295755337869
20
89.278413581123715
30
0
11
95.80122749533281
21
89.278413581123715
31
0
0
LINE
5
390
100
AcDbEntity
8
0
100
AcDbLine
10
95.80122749533281
20
89.334420793230549
30
0
11
114.3182438703294
21
90.046046467236323
31
0
0
LINE
5
391
100
AcDbEntity
8
0
100
AcDbLine
10
114.3182438703294
20
90.046046467236323
30
0
11
134.95365789410974
21
92.612301702756639
31
0
0
LINE
5
392
100
AcDbEntity
8
0
100
AcDbLine
10
134.95365789410974
20
92.612301702756639
30
0
11
154.01482417054467
21
93.153109417044519
31
0
0
LINE
5
393
100
AcDbEntity
8
0
100
AcDbLine
10
154.01482417054467
20
93.153109417044519
30
0
11
147.03877226089008
21
105.05587285160249
31
0
0
LINE
5
394
100
AcDbEntity
8
0
100
AcDbLine
10
147.03877226089008
20
105.05587285160249
30
0
11
143.2182652029548
21
116.71373130249296
31
0
0
LINE
5
395
100
AcDbEntity
8
0
100
AcDbLine
10
143.2182652029548
20
116.71373130249296
30
0
11
124.05522354362226
21
120.20566333819355
31
0
0
LINE
5
396
100
AcDbEntity
8
0
100
AcDbLine
10
124.05522354362226
20
120.20566333819355
30
0
11
107.44725410553403
21
129.14841611254874
31
0
0
LINE
5
397
100
AcDbEntity
8
0
100
AcDbLine
10
107.44725410553403
20
129.14841611254874
30
0
11
125.67343595041035
21
124.97513148451631
31
0
0
LINE
5
398
100
AcDbEntity
8
0
100
AcDbLine
10
125.67343595041035
20
124.97513148451631
30
0
11
143.2182652029548
21
116.71373130249296
31
0
0
LINE
5
399
100
AcDbEntity
8
0
100
AcDbLine
10
107.44725410553403
20
129.14841611254874
30
0
11
92.372328000192425
21
140.13522666389943
31
0
0
LINE
5
400
100
AcDbEntity
8
0
100
AcDbLine
10
92.372328000192425
20
140.13522666389943
30
0
11
71.091767854132158
21
137.91986575374452
31
0
0
LINE
5
401
100
AcDbEntity
8
0
100
AcDbLine
10
71.091767854132158
20
137.91986575374452
30
0
11
88.795226890450323
21
128.21155629809249
31
0
0
LINE
5
402
100
AcDbEntity
8
0
100
AcDbLine
10
88.795226890450323
20
128.21155629809249
30
0
11
107.44725410553403
21
129.14841611254874
31
0
0
LINE
5
403
100
AcDbEntity
8
0
100
AcDbLine
10
71.091767854132158
20
137.91986575374452
30
0
11
73.209286340859848
21
121.5683685228572
31
0
0
LINE
5
404
100
AcDbEntity
8
0
100
AcDbLine
10
73.209286340859848
20
121.5683685228572
30
0
11
75.764358562104192
21
105.55658260305933
31
0
0
LINE
5
405
100
AcDbEntity
8
0
100
AcDbLine
10
75.764358562104192
20
105.55658260305933
30
0
11
75.252295755337869
21
89.278413581123715
31
0
0
LINE
5
406
100
AcDbEntity
8
0
100
AcDbLine
10
75.252295755337869
20
89.278413581123715
30
0
11
55.621554526076771
21
84.458657840154842
31
0
0
LINE
5
407
100
AcDbEntity
8
0
100
AcDbLine
10
55.621554526076771
20
84.458657840154842
30
0
11
41.653364498041469
21
67.287613516509538
31
0
0
LINE
5
408
100
AcDbEntity
8
0
100
AcDbLine
10
71.163760094420383
20
62.521101003550243
30
0
11
68.256769061612303
21
46.623493792881035
31
0
0
LINE
5
409
100
AcDbEntity
8
0
100
AcDbLine
10
68.256769061612303
20
46.623493792881035
30
0
11
64.882935459863504
21
28.423348115116276
31
0
0
LINE
5
410
100
AcDbEntity
8
0
100
AcDbLine
10
64.882935459863504
20
28.423348115116276
30
0
11
86.425463016662803
21
42.444694183219426
31
0
0
LINE
5
411
100
AcDbEntity
8
0
100
AcDbLine
10
86.425463016662803
20
42.444694183219426
30
0
11
100.77873124115271
21
57.343023226360842
31
0
0
LINE
5
412
100
AcDbEntity
8
0
100
AcDbLine
10
100.77873124115271
20
57.343023226360842
30
0
11
117.76646008912493
21
70.606169813547709
31
0
0
LINE
5
413
100
AcDbEntity
8
0
100
AcDbLine
10
64.882935459863504
20
28.423348115116276
30
0
11
90.541187043617711
21
33.79552295054264
31
0
0
LINE
5
414
100
AcDbEntity
8
0
100
AcDbLine
10
90.541187043617711
20
33.79552295054264
30
0
11
108.24276492451273
21
38.591672394207599
31
0
0
LINE
5
415
100
AcDbEntity
8
0
100
AcDbLine
10
108.24276492451273
20
38.591672394207599
30
0
11
122.96030452886549
21
44.149247677798385
31
0
0
LINE
5
416
100
AcDbEntity
8
0
100
AcDbLine
10
64.882935459863504
20
28.423348115116276
30
0
11
83.093158775471409
21
23.763135122608752
31
0
0
LINE
5
417
100
AcDbEntity
8
0
100
AcDbLine
10
83.093158775471409
20
23.763135122608752
30
0
11
99.145618742464322
21
24.597668919446281
31
0
0
LINE
5
418
100
AcDbEntity
8
0
100
AcDbLine
10
99.145618742464322
20
24.597668919446281
30
0
11
118.85270927695527
21
27.62952900167566
31
0
0
LINE
5
419
100
AcDbEntity
8
0
100
AcDbLine
10
118.85270927695527
20
27.62952900167566
30
0
11
132.83295298945737
21
32.2615374606372
31
0
0
LINE
5
420
100
AcDbEntity
8
0
100
AcDbLine
10
132.83295298945737
20
32.2615374606372
30
0
11
120.28442098245245
21
18.702385426222502
31
0
0
LINE
5
421
100
AcDbEntity
8
0
100
AcDbLine
10
120.28442098245245
20
18.702385426222502
30
0
11
105.37777557815804
21
12.133355248058862
31
0
0
LINE
5
422
100
AcDbEntity
8
0
100
AcDbLine
10
105.37777557815804
20
12.133355248058862
30
0
11
92.021608985908614
21
0.83300207698894568
31
0
0
LINE
5
423
100
AcDbEntity
8
0
100
AcDbLine
10
92.021608985908614
20
0.83300207698894568
30
0
11
72.666296690368483
21
3.1073903599548225
31
0
0
LINE
5
424
100
AcDbEntity
8
0
100
AcDbLine
10
72.666296690368483
20
3.1073903599548225
30
0
11
70.747446985516461
21
16.620319571401861
31
0
0
LINE
5
425
100
AcDbEntity
8
0
100
AcDbLine
10
70.747446985516461
20
16.620319571401861
30
0
11
64.882935459863504
21
28.423348115116276
31
0
0
LINE
5
426
100
AcDbEntity
8
0
100
AcDbLine
10
64.882935459863504
20
28.423348115116276
30
0
11
64.625338597583067
21
15.689026275481815
31
0
0
LINE
5
427
100
AcDbEntity
8
0
100
AcDbLine
10
64.625338597583067
20
15.689026275481815
30
0
11
72.666296690368483
21
3.1073903599548225
31
0
0
LINE
5
428
100
AcDbEntity
8
0
100
AcDbLine
10
72.666296690368483
20
3.1073903599548225
30
0
11
78.873101136795626
21
-9.0656447171464656
31
0
0
LINE
5
429
100
AcDbEntity
8
0
100
AcDbLine
10
78.873101136795626
20
-9.0656447171464656
30
0
11
92.021608985908614
21
0.83300207698894568
31
0
0
LINE
5
430
100
AcDbEntity
8
0
100
AcDbLine
10
92.021608985908614
20
0.83300207698894568
30
0
11
108.71293492502382
21
-0.22059996093280798
31
0
0
LINE
5
431
100
AcDbEntity
8
0
100
AcDbLine
10
108.71293492502382
20
-0.22059996093280798
30
0
11
120.74879417694234
21
-9.4367785204279091
31
0
0
LINE
5
432
100
AcDbEntity
8
0
100
AcDbLine
10
120.74879417694234
20
-9.4367785204279091
30
0
11
133.58603066440085
21
-14.721109257995629
31
0
0
LINE
5
433
100
AcDbEntity
8
0
100
AcDbLine
10
133.58603066440085
20
-14.721109257995629
30
0
11
135.31536266161865
21
0.95816751677894718
31
0
0
LINE
5
434
100
AcDbEntity
8
0
100
AcDbLine
10
135.31536266161865
20
0.95816751677894718
30
0
11
128.53781787296575
21
16.596927035785441
31
0
0
LINE
5
435
100
AcDbEntity
8
0
100
AcDbLine
10
128.53781787296575
20
16.596927035785441
30
0
11
132.83295298945737
21
32.2615374606372
31
0
0
LINE
5
436
100
AcDbEntity
8
0
100
AcDbLine
10
133.58603066440085
20
-14.721109257995629
30
0
11
116.89040018374016
21
-17.18373454418029
31
0
0
LINE
5
437
100
AcDbEntity
8
0
100
AcDbLine
10
116.89040018374016
20
-17.18373454418029
30
0
11
126.055070154323
21
-29.156392988022382
31
0
0
LINE
5
438
100
AcDbEntity
8
0
100
AcDbLine
10
126.055070154323
20
-29.156392988022382
30
0
11
133.58603066440085
21
-14.721109257995629
31
0
0
LINE
5
439
100
AcDbEntity
8
0
100
AcDbLine
10
116.89040018374016
20
-17.18373454418029
30
0
11
99.360808828082199
21
-13.261588533096997
31
0
0
LINE
5
440
100
AcDbEntity
8
0
100
AcDbLine
10
99.360808828082199
20
-13.261588533096997
30
0
11
78.873101136795626
21
-9.0656447171464656
31
0
0
LINE
5
441
100
AcDbEntity
8
0
100
AcDbLine
10
78.873101136795626
20
-9.0656447171464656
30
0
11
80.169362303328171
21
-26.845705152799834
31
0
0
LINE
5
442
100
AcDbEntity
8
0
100
AcDbLine
10
80.169362303328171
20
-26.845705152799834
30
0
11
72.153823396892406
21
-44.528140577610571
31
0
0
LINE
5
443
100
AcDbEntity
8
0
100
AcDbLine
10
72.153823396892406
20
-44.528140577610571
30
0
11
96.237911465049649
21
-39.840418217614953
31
0
0
LINE
5
444
100
AcDbEntity
8
0
100
AcDbLine
10
96.237911465049649
20
-39.840418217614953
30
0
11
114.56913009554803
21
-39.756085056945366
31
0
0
LINE
5
445
100
AcDbEntity
8
0
100
AcDbLine
10
114.56913009554803
20
-39.756085056945366
30
0
11
126.055070154323
21
-29.156392988022382
31
0
0
LINE
5
446
100
AcDbEntity
8
0
100
AcDbLine
10
148.46193777294448
20
-29.371929742965804
30
0
11
126.055070154323
21
-29.156392988022382
31
0
0
LINE
5
447
100
AcDbEntity
8
0
100
AcDbLine
10
148.46193777294448
20
-29.371929742965804
30
0
11
133.58603066440085
21
-14.721109257995629
31
0
0
LINE
5
448
100
AcDbEntity
8
0
100
AcDbLine
10
114.56913009554803
20
-39.756085056945366
30
0
11
133.37942218951892
21
-35.193588676705616
31
0
0
LINE
5
449
100
AcDbEntity
8
0
100
AcDbLine
10
133.37942218951892
20
-35.193588676705616
30
0
11
148.46193777294448
21
-29.371929742965804
31
0
0
LINE
5
450
100
AcDbEntity
8
0
100
AcDbLine
10
114.56913009554803
20
-39.756085056945366
30
0
11
98.445412253251945
21
-52.048209886747884
31
0
0
LINE
5
451
100
AcDbEntity
8
0
100
AcDbLine
10
98.445412253251945
20
-52.048209886747884
30
0
11
88.309164092044767
21
-69.249256015899746
31
0
0
LINE
5
452
100
AcDbEntity
8
0
100
AcDbLine
10
88.309164092044767
20
-69.249256015899746
30
0
11
97.894354393694357
21
-83.522425641733818
31
0
0
LINE
5
453
100
AcDbEntity
8
0
100
AcDbLine
10
97.894354393694357
20
-83.522425641733818
30
0
11
79.838632158652985
21
-86.991739276557411
31
0
0
LINE
5
454
100
AcDbEntity
8
0
100
AcDbLine
10
79.838632158652985
20
-86.991739276557411
30
0
11
88.309164092044767
21
-69.249256015899746
31
0
0
LINE
5
455
100
AcDbEntity
8
0
100
AcDbLine
10
79.838632158652985
20
-86.991739276557411
30
0
11
63.732311498093296
21
-86.533569855384286
31
0
0
LINE
5
456
100
AcDbEntity
8
0
100
AcDbLine
10
63.732311498093296
20
-86.533569855384286
30
0
11
48.504723704262247
21
-86.533569855384286
31
0
0
LINE
5
457
100
AcDbEntity
8
0
100
AcDbLine
10
48.504723704262247
20
-86.533569855384286
30
0
11
59.784418366359318
21
-74.313900638112443
31
0
0
LINE
5
458
100
AcDbEntity
8
0
100
AcDbLine
10
59.784418366359318
20
-74.313900638112443
30
0
11
61.722401094393021
21
-59.866013664211273
31
0
0
LINE
5
459
100
AcDbEntity
8
0
100
AcDbLine
10
61.722401094393021
20
-59.866013664211273
30
0
11
72.153823396892406
21
-44.528140577610571
31
0
0
LINE
5
460
100
AcDbEntity
8
0
100
AcDbLine
10
72.153823396892406
20
-44.528140577610571
30
0
11
50.38633774499101
21
-48.485599026055503
31
0
0
LINE
5
461
100
AcDbEntity
8
0
100
AcDbLine
10
50.38633774499101
20
-48.485599026055503
30
0
11
31.813702804672008
21
-39.633051754679578
31
0
0
LINE
5
462
100
AcDbEntity
8
0
100
AcDbLine
10
31.813702804672008
20
-39.633051754679578
30
0
11
47.58202237565024
21
-29.467675823841301
31
0
0
LINE
5
463
100
AcDbEntity
8
0
100
AcDbLine
10
47.58202237565024
20
-29.467675823841301
30
0
11
59.952979088831711
21
-16.43727023048482
31
0
0
LINE
5
464
100
AcDbEntity
8
0
100
AcDbLine
10
59.952979088831711
20
-16.43727023048482
30
0
11
78.873101136795626
21
-9.0656447171464656
31
0
0
LINE
5
465
100
AcDbEntity
8
0
100
AcDbLine
10
41.653364498041469
20
67.287613516509538
30
0
11
33.395322061891662
21
84.5540285248657
31
0
0
LINE
5
466
100
AcDbEntity
8
0
100
AcDbLine
10
33.395322061891662
20
84.5540285248657
30
0
11
39.303453259312661
21
105.61780062001885
31
0
0
LINE
5
467
100
AcDbEntity
8
0
100
AcDbLine
10
39.303453259312661
20
105.61780062001885
30
0
11
61.881799493343266
21
122.42005926327198
31
0
0
LINE
5
468
100
AcDbEntity
8
0
100
AcDbLine
10
61.881799493343266
20
122.42005926327198
30
0
11
71.091767854132158
21
137.91986575374452
31
0
0
LINE
5
469
100
AcDbEntity
8
0
100
AcDbLine
10
53.046280175052807
20
133.03923563413588
30
0
11
71.091767854132158
21
137.91986575374452
31
0
0
LINE
5
470
100
AcDbEntity
8
0
100
AcDbLine
10
40.973142510757725
20
120.32390979620807
30
0
11
61.881799493343266
21
122.42005926327198
31
0
0
LINE
5
471
100
AcDbEntity
8
0
100
AcDbLine
10
40.973142510757725
20
120.32390979620807
30
0
11
23.955155909490713
21
118.71843936212628
31
0
0
LINE
5
472
100
AcDbEntity
8
0
100
AcDbLine
10
23.955155909490713
20
118.71843936212628
30
0
11
-0.25533823646271436
21
119.87437807466515
31
0
0
LINE
5
473
100
AcDbEntity
8
0
100
AcDbLine
10
-0.25533823646271436
20
119.87437807466515
30
0
11
-20.548484523256576
21
114.86531032032997
31
0
0
LINE
5
474
100
AcDbEntity
8
0
100
AcDbLine
10
-20.548484523256576
20
114.86531032032997
30
0
11
-38.258607267216632
21
110.02749274563016
31
0
0
LINE
5
475
100
AcDbEntity
8
0
100
AcDbLine
10
-38.258607267216632
20
110.02749274563016
30
0
11
-63.803425729495807
21
108.2436367077615
31
0
0
LINE
5
476
100
AcDbEntity
8
0
100
AcDbLine
10
-63.803425729495807
20
108.2436367077615
30
0
11
-62.804466348289367
21
94.186851129356469
31
0
0
LINE
5
477
100
AcDbEntity
8
0
100
AcDbLine
10
-62.804466348289367
20
94.186851129356469
30
0
11
-70.439260173277091
21
86.00579373816521
31
0
0
LINE
5
478
100
AcDbEntity
8
0
100
AcDbLine
10
-70.439260173277091
20
86.00579373816521
30
0
11
-44.038300829911073
21
87.194135460911326
31
0
0
LINE
5
479
100
AcDbEntity
8
0
100
AcDbLine
10
-44.038300829911073
20
87.194135460911326
30
0
11
-62.804466348289367
21
94.186851129356469
31
0
0
LINE
5
480
100
AcDbEntity
8
0
100
AcDbLine
10
-44.038300829911073
20
87.194135460911326
30
0
11
-17.209106020366445
21
83.697777626688747
31
0
0
LINE
5
481
100
AcDbEntity
8
0
100
AcDbLine
10
-17.209106020366445
20
83.697777626688747
30
0
11
4.1757601616030282
21
77.361520980179264
31
0
0
LINE
5
482
100
AcDbEntity
8
0
100
AcDbLine
10
4.1757601616030282
20
77.361520980179264
30
0
11
25.175313439392887
21
78.003709153811968
31
0
0
LINE
5
483
100
AcDbEntity
8
0
100
AcDbLine
10
25.175313439392887
20
78.003709153811968
30
0
11
41.653364498041469
21
67.287613516509538
31
0
0
LINE
5
484
100
AcDbEntity
8
0
100
AcDbLine
10
-93.43813288358993
20
85.593968205802312
30
0
11
-70.439260173277091
21
86.00579373816521
31
0
0
LINE
5
485
100
AcDbEntity
8
0
100
AcDbLine
10
-93.43813288358993
20
85.593968205802312
30
0
11
-79.087006313585533
21
75.010802216915906
31
0
0
LINE
5
486
100
AcDbEntity
8
0
100
AcDbLine
10
-79.087006313585533
20
75.010802216915906
30
0
11
-70.439260173277091
21
86.00579373816521
31
0
0
LINE
5
487
100
AcDbEntity
8
0
100
AcDbLine
10
-79.087006313585533
20
75.010802216915906
30
0
11
-58.002977628643038
21
75.093161703966459
31
0
0
LINE
5
488
100
AcDbEntity
8
0
100
AcDbLine
10
-58.002977628643038
20
75.093161703966459
30
0
11
-70.439260173277091
21
86.00579373816521
31
0
0
LINE
5
489
100
AcDbEntity
8
0
100
AcDbLine
10
-58.002977628643038
20
75.093161703966459
30
0
11
-30.700807671383515
21
72.869455553601426
31
0
0
LINE
5
490
100
AcDbEntity
8
0
100
AcDbLine
10
-30.700807671383515
20
72.869455553601426
30
0
11
-5.4518521562129152
21
60.859125479818601
31
0
0
LINE
5
491
100
AcDbEntity
8
0
100
AcDbLine
10
-5.4518521562129152
20
60.859125479818601
30
0
11
26.996828985687458
21
55.04432181919006
31
0
0
LINE
5
492
100
AcDbEntity
8
0
100
AcDbLine
10
26.996828985687458
20
55.04432181919006
30
0
11
41.653364498041469
21
67.287613516509538
31
0
0
LINE
5
493
100
AcDbEntity
8
0
100
AcDbLine
10
41.653364498041469
20
67.287613516509538
30
0
11
19.31365715496743
21
67.200420751956912
31
0
0
LINE
5
494
100
AcDbEntity
8
0
100
AcDbLine
10
19.31365715496743
20
67.200420751956912
30
0
11
-0.57157051247109791
21
52.967606226108437
31
0
0
LINE
5
495
100
AcDbEntity
8
0
100
AcDbLine
10
-0.57157051247109791
20
52.967606226108437
30
0
11
17.443937257511983
21
46.737459446863561
31
0
0
LINE
5
496
100
AcDbEntity
8
0
100
AcDbLine
10
17.443937257511983
20
46.737459446863561
30
0
11
26.996828985687458
21
55.04432181919006
31
0
0
LINE
5
497
100
AcDbEntity
8
0
100
AcDbLine
10
-93.43813288358993
20
85.593968205802312
30
0
11
-88.352448606773152
21
69.698615302154991
31
0
0
LINE
5
498
100
AcDbEntity
8
0
100
AcDbLine
10
-88.352448606773152
20
69.698615302154991
30
0
11
-89.834919373683164
21
53.514976096720623
31
0
0
LINE
5
499
100
AcDbEntity
8
0
100
AcDbLine
10
-89.834919373683164
20
53.514976096720623
30
0
11
-66.93898197362843
21
57.097613783419831
31
0
0
LINE
5
500
100
AcDbEntity
8
0
100
AcDbLine
10
-66.93898197362843
20
57.097613783419831
30
0
11
-42.642933293714222
21
58.822587484423167
31
0
0
LINE
5
501
100
AcDbEntity
8
0
100
AcDbLine
10
-42.642933293714222
20
58.822587484423167
30
0
11
-20.940538167541281
21
54.503202385101346
31
0
0
LINE
5
502
100
AcDbEntity
8
0
100
AcDbLine
10
-20.940538167541281
20
54.503202385101346
30
0
11
-0.57157051247109791
21
52.967606226108437
31
0
0
LINE
5
503
100
AcDbEntity
8
0
100
AcDbLine
10
17.443937257511983
20
46.737459446863561
30
0
11
1.920488199226833
21
45.02416908257122
31
0
0
LINE
5
504
100
AcDbEntity
8
0
100
AcDbLine
10
1.920488199226833
20
45.02416908257122
30
0
11
-14.427878441865714
21
43.33972199040501
31
0
0
LINE
5
505
100
AcDbEntity
8
0
100
AcDbLine
10
-14.427878441865714
20
43.33972199040501
30
0
11
-30.407051199743769
21
42.128304561107399
31
0
0
LINE
5
506
100
AcDbEntity
8
0
100
AcDbLine
10
-30.407051199743769
20
42.128304561107399
30
0
11
-48.809058816217046
21
37.917186830691882
31
0
0
LINE
5
507
100
AcDbEntity
8
0
100
AcDbLine
10
-48.809058816217046
20
37.917186830691882
30
0
11
-68.537856950492483
21
40.109275512278032
31
0
0
LINE
5
508
100
AcDbEntity
8
0
100
AcDbLine
10
-68.537856950492483
20
40.109275512278032
30
0
11
-89.593445602570057
21
31.167861153176602
31
0
0
LINE
5
509
100
AcDbEntity
8
0
100
AcDbLine
10
-89.834919373683164
20
53.514976096720623
30
0
11
-89.593445602570057
21
31.167861153176602
31
0
0
LINE
5
510
100
AcDbEntity
8
0
100
AcDbLine
10
-89.834919373683164
20
53.514976096720623
30
0
11
-102.87626644215763
21
65.246190237528324
31
0
0
LINE
5
511
100
AcDbEntity
8
0
100
AcDbLine
10
-102.87626644215763
20
65.246190237528324
30
0
11
-123.57707578047658
21
68.570314141365159
31
0
0
LINE
5
512
100
AcDbEntity
8
0
100
AcDbLine
10
-123.57707578047658
20
68.570314141365159
30
0
11
-142.92885102459931
21
68.374245388747582
31
0
0
LINE
5
513
100
AcDbEntity
8
0
100
AcDbLine
10
-142.92885102459931
20
68.374245388747582
30
0
11
-164.23853161692284
21
70.200346533349304
31
0
0
LINE
5
514
100
AcDbEntity
8
0
100
AcDbLine
10
-164.23853161692284
20
70.200346533349304
30
0
11
-178.40233585946589
21
66.782263261647742
31
0
0
LINE
5
515
100
AcDbEntity
8
0
100
AcDbLine
10
-178.40233585946589
20
66.782263261647742
30
0
11
-190.4895109561831
21
69.977723344687917
31
0
0
LINE
5
516
100
AcDbEntity
8
0
100
AcDbLine
10
-190.4895109561831
20
69.977723344687917
30
0
11
-190.51449589042682
21
58.259932917978688
31
0
0
LINE
5
517
100
AcDbEntity
8
0
100
AcDbLine
10
-190.51449589042682
20
58.259932917978688
30
0
11
-182.19001917383295
21
45.659940099173213
31
0
0
LINE
5
518
100
AcDbEntity
8
0
100
AcDbLine
10
-182.19001917383295
20
45.659940099173213
30
0
11
-169.60561992038038
21
35.287642276991591
31
0
0
LINE
5
519
100
AcDbEntity
8
0
100
AcDbLine
10
-169.60561992038038
20
35.287642276991591
30
0
11
-154.85690730646525
21
25.207959961393172
31
0
0
LINE
5
520
100
AcDbEntity
8
0
100
AcDbLine
10
-154.85690730646525
20
25.207959961393172
30
0
11
-134.55106339846554
21
26.103806016157868
31
0
0
LINE
5
521
100
AcDbEntity
8
0
100
AcDbLine
10
-134.55106339846554
20
26.103806016157868
30
0
11
-121.83004942080689
21
31.120543922840149
31
0
0
LINE
5
522
100
AcDbEntity
8
0
100
AcDbLine
10
-121.83004942080689
20
31.120543922840149
30
0
11
-103.42544376312033
21
39.716483212898616
31
0
0
LINE
5
523
100
AcDbEntity
8
0
100
AcDbLine
10
-103.42544376312033
20
39.716483212898616
30
0
11
-89.593445602570057
21
31.167861153176602
31
0
0
LINE
5
524
100
AcDbEntity
8
0
100
AcDbLine
10
-121.83004942080689
20
31.120543922840149
30
0
11
-108.51180473997181
21
24.192667765993185
31
0
0
LINE
5
525
100
AcDbEntity
8
0
100
AcDbLine
10
-108.51180473997181
20
24.192667765993185
30
0
11
-102.00199007534837
21
10.635530803887502
31
0
0
LINE
5
526
100
AcDbEntity
8
0
100
AcDbLine
10
-102.00199007534837
20
10.635530803887502
30
0
11
-84.548495096144478
21
7.5163780097470063
31
0
0
LINE
5
527
100
AcDbEntity
8
0
100
AcDbLine
10
-84.548495096144478
20
7.5163780097470063
30
0
11
-87.343670376731637
21
18.707567594686864
31
0
0
LINE
5
528
100
AcDbEntity
8
0
100
AcDbLine
10
-87.343670376731637
20
18.707567594686864
30
0
11
-89.593445602570057
21
31.167861153176602
31
0
0
LINE
5
529
100
AcDbEntity
8
0
100
AcDbLine
10
-87.343670376731637
20
18.707567594686864
30
0
11
-65.422783560870045
21
24.995400918184004
31
0
0
LINE
5
530
100
AcDbEntity
8
0
100
AcDbLine
10
-65.422783560870045
20
24.995400918184004
30
0
11
-47.193835577153564
21
24.995400918184004
31
0
0
LINE
5
531
100
AcDbEntity
8
0
100
AcDbLine
10
-47.193835577153564
20
24.995400918184004
30
0
11
-28.157275973905342
21
28.860399383085905
31
0
0
LINE
5
532
100
AcDbEntity
8
0
100
AcDbLine
10
-28.157275973905342
20
28.860399383085905
30
0
11
-10.735939609720608
21
35.955844326114786
31
0
0
LINE
5
533
100
AcDbEntity
8
0
100
AcDbLine
10
-10.735939609720608
20
35.955844326114786
30
0
11
5.6066583769467204
21
35.471277354395752
31
0
0
LINE
5
534
100
AcDbEntity
8
0
100
AcDbLine
10
5.6066583769467204
20
35.471277354395752
30
0
11
17.443937257511983
21
46.737459446863561
31
0
0
LINE
5
535
100
AcDbEntity
8
0
100
AcDbLine
10
5.6066583769467204
20
35.471277354395752
30
0
11
27.266824669040673
21
31.515765459279809
31
0
0
LINE
5
536
100
AcDbEntity
8
0
100
AcDbLine
10
27.266824669040673
20
31.515765459279809
30
0
11
47.154893681582386
21
28.879997276894763
31
0
0
LINE
5
537
100
AcDbEntity
8
0
100
AcDbLine
10
47.154893681582386
20
28.879997276894763
30
0
11
33.856245125003291
21
38.105185915242423
31
0
0
LINE
5
538
100
AcDbEntity
8
0
100
AcDbLine
10
33.856245125003291
20
38.105185915242423
30
0
11
17.443937257511983
21
46.737459446863561
31
0
0
LINE
5
539
100
AcDbEntity
8
0
100
AcDbLine
10
41.653364498041469
20
67.287613516509538
30
0
11
45.287618266265248
21
53.517424959806057
31
0
0
LINE
5
540
100
AcDbEntity
8
0
100
AcDbLine
10
45.287618266265248
20
53.517424959806057
30
0
11
57.322464941636326
21
42.091615598007607
31
0
0
LINE
5
541
100
AcDbEntity
8
0
100
AcDbLine
10
57.322464941636326
20
42.091615598007607
30
0
11
64.882935459863504
21
28.423348115116276
31
0
0
LINE
5
542
100
AcDbEntity
8
0
100
AcDbLine
10
47.154893681582386
20
28.879997276894763
30
0
11
64.882935459863504
21
28.423348115116276
31
0
0
LINE
5
543
100
AcDbEntity
8
0
100
AcDbLine
10
47.154893681582386
20
28.879997276894763
30
0
11
31.939322810541437
21
18.456732192008445
31
0
0
LINE
5
544
100
AcDbEntity
8
0
100
AcDbLine
10
31.939322810541437
20
18.456732192008445
30
0
11
50.210594706040808
21
17.165734750229213
31
0
0
LINE
5
545
100
AcDbEntity
8
0
100
AcDbLine
10
50.210594706040808
20
17.165734750229213
30
0
11
64.882935459863504
21
28.423348115116276
31
0
0
LINE
5
546
100
AcDbEntity
8
0
100
AcDbLine
10
50.210594706040808
20
17.165734750229213
30
0
11
30.550056781331733
21
5.5420405904610259
31
0
0
LINE
5
547
100
AcDbEntity
8
0
100
AcDbLine
10
30.550056781331733
20
5.5420405904610259
30
0
11
31.939322810541437
21
18.456732192008445
31
0
0
LINE
5
548
100
AcDbEntity
8
0
100
AcDbLine
10
31.939322810541437
20
18.456732192008445
30
0
11
14.69575049841132
21
3.1143499408888387
31
0
0
LINE
5
549
100
AcDbEntity
8
0
100
AcDbLine
10
14.69575049841132
20
3.1143499408888387
30
0
11
30.550056781331733
21
5.5420405904610259
31
0
0
LINE
5
550
100
AcDbEntity
8
0
100
AcDbLine
10
31.939322810541437
20
18.456732192008445
30
0
11
14.267695224096242
21
11.028658223468764
31
0
0
LINE
5
551
100
AcDbEntity
8
0
100
AcDbLine
10
14.267695224096242
20
11.028658223468764
30
0
11
-5.5604699661185375
21
12.406446136988221
31
0
0
LINE
5
552
100
AcDbEntity
8
0
100
AcDbLine
10
-5.5604699661185375
20
12.406446136988221
30
0
11
-24.969308400044767
21
10.423538575137446
31
0
0
LINE
5
553
100
AcDbEntity
8
0
100
AcDbLine
10
-24.969308400044767
20
10.423538575137446
30
0
11
-44.797221875036612
21
9.194532024358427
31
0
0
LINE
5
554
100
AcDbEntity
8
0
100
AcDbLine
10
-44.797221875036612
20
9.194532024358427
30
0
11
-67.871839575943568
21
5.8382239951355945
31
0
0
LINE
5
555
100
AcDbEntity
8
0
100
AcDbLine
10
-67.871839575943568
20
5.8382239951355945
30
0
11
-84.548495096144478
21
7.5163780097470063
31
0
0
LINE
5
556
100
AcDbEntity
8
0
100
AcDbLine
10
-84.548495096144478
20
7.5163780097470063
30
0
11
-82.129686371340611
21
-12.429918524724277
31
0
0
LINE
5
557
100
AcDbEntity
8
0
100
AcDbLine
10
-82.129686371340611
20
-12.429918524724277
30
0
11
-67.871839575943568
21
-1.7659113835723739
31
0
0
LINE
5
558
100
AcDbEntity
8
0
100
AcDbLine
10
-67.871839575943568
20
-1.7659113835723739
30
0
11
-84.548495096144478
21
7.5163780097470063
31
0
0
LINE
5
559
100
AcDbEntity
8
0
100
AcDbLine
10
-67.871839575943568
20
-1.7659113835723739
30
0
11
-45.583856569385723
21
1.6952812715636734
31
0
0
LINE
5
560
100
AcDbEntity
8
0
100
AcDbLine
10
-45.583856569385723
20
1.6952812715636734
30
0
11
-25.980454058706364
21
0.73620399845077511
31
0
0
LINE
5
561
100
AcDbEntity
8
0
100
AcDbLine
10
-25.980454058706364
20
0.73620399845077511
30
0
11
-4.9239535267026913
21
0.73620399845077511
31
0
0
LINE
5
562
100
AcDbEntity
8
0
100
AcDbLine
10
-4.9239535267026913
20
0.73620399845077511
30
0
11
14.69575049841132
21
3.1143499408888387
31
0
0
LINE
5
563
100
AcDbEntity
8
0
100
AcDbLine
10
-93.43813288358993
20
85.593968205802312
30
0
11
-107.61075582391098
21
88.253949580647273
31
0
0
LINE
5
564
100
AcDbEntity
8
0
100
AcDbLine
10
-107.61075582391098
20
88.253949580647273
30
0
11
-124.27420521464981
21
94.86521506722778
31
0
0
LINE
5
565
100
AcDbEntity
8
0
100
AcDbLine
10
-124.27420521464981
20
94.86521506722778
30
0
11
-130.88330890826822
21
109.2636195426108
31
0
0
LINE
5
566
100
AcDbEntity
8
0
100
AcDbLine
10
-130.88330890826822
20
109.2636195426108
30
0
11
-134.89597900796514
21
125.13727037817648
31
0
0
LINE
5
567
100
AcDbEntity
8
0
100
AcDbLine
10
-134.89597900796514
20
125.13727037817648
30
0
11
-138.37756041799628
21
139.29963543593027
31
0
0
LINE
5
568
100
AcDbEntity
8
0
100
AcDbLine
10
-138.37756041799628
20
139.29963543593027
30
0
11
-112.23619491555908
21
150.15744864687485
31
0
0
LINE
5
569
100
AcDbEntity
8
0
100
AcDbLine
10
-112.23619491555908
20
150.15744864687485
30
0
11
-89.224282180933272
21
157.94494452053561
31
0
0
LINE
5
570
100
AcDbEntity
8
0
100
AcDbLine
10
-89.224282180933272
20
157.94494452053561
30
0
11
-66.775699993882526
21
152.02668194394954
31
0
0
LINE
5
571
100
AcDbEntity
8
0
100
AcDbLine
10
-66.775699993882526
20
152.02668194394954
30
0
11
-47.320262098438548
21
147.06078346014735
31
0
0
LINE
5
572
100
AcDbEntity
8
0
100
AcDbLine
10
-47.320262098438548
20
147.06078346014735
30
0
11
-24.871679911387801
21
142.43501500948236
31
0
0
LINE
5
573
100
AcDbEntity
8
0
100
AcDbLine
10
-24.871679911387801
20
142.43501500948236
30
0
11
-4.7359819496695632
21
141.27857289681609
31
0
0
LINE
5
574
100
AcDbEntity
8
0
100
AcDbLine
10
-4.7359819496695632
20
141.27857289681609
30
0
11
16.891085999530844
21
139.20424210100992
31
0
0
LINE
5
575
100
AcDbEntity
8
0
100
AcDbLine
10
16.891085999530844
20
139.20424210100992
30
0
11
33.909072600797849
21
136.57127058911578
31
0
0
LINE
5
576
100
AcDbEntity
8
0
100
AcDbLine
10
33.909072600797849
20
136.57127058911578
30
0
11
53.046280175052807
21
133.03923563413588
31
0
0
LINE
5
577
100
AcDbEntity
8
0
100
AcDbLine
10
71.091767854132158
20
137.91986575374452
30
0
11
51.761903827787386
21
146.65362491514944
31
0
0
LINE
5
578
100
AcDbEntity
8
0
100
AcDbLine
10
51.761903827787386
20
146.65362491514944
30
0
11
38.725483903043227
21
162.13035989969794
31
0
0
LINE
5
579
100
AcDbEntity
8
0
100
AcDbLine
10
38.725483903043227
20
162.13035989969794
30
0
11
18.111243529433008
21
167.84583464502904
31
0
0
LINE
5
580
100
AcDbEntity
8
0
100
AcDbLine
10
18.111243529433008
20
167.84583464502904
30
0
11
32.496258618805875
21
154.29566418137878
31
0
0
LINE
5
581
100
AcDbEntity
8
0
100
AcDbLine
10
32.496258618805875
20
154.29566418137878
30
0
11
51.761903827787386
21
146.65362491514944
31
0
0
LINE
5
582
100
AcDbEntity
8
0
100
AcDbLine
10
-89.224282180933272
20
157.94494452053561
30
0
11
-77.377394362911659
21
171.65557149564111
31
0
0
LINE
5
583
100
AcDbEntity
8
0
100
AcDbLine
10
-77.377394362911659
20
171.65557149564111
30
0
11
-72.415251570441484
21
163.28916795019722
31
0
0
LINE
5
584
100
AcDbEntity
8
0
100
AcDbLine
10
-72.415251570441484
20
163.28916795019722
30
0
11
-89.224282180933272
21
157.94494452053561
31
0
0
LINE
5
585
100
AcDbEntity
8
0
100
AcDbLine
10
-72.415251570441484
20
163.28916795019722
30
0
11
-54.179879176401968
21
163.67161151641639
31
0
0
LINE
5
586
100
AcDbEntity
8
0
100
AcDbLine
10
-54.179879176401968
20
163.67161151641639
30
0
11
-36.924282950890856
21
163.67161151641639
31
0
0
LINE
5
587
100
AcDbEntity
8
0
100
AcDbLine
10
-36.924282950890856
20
163.67161151641639
30
0
11
-14.833009777925383
21
164.44223732477565
31
0
0
LINE
5
588
100
AcDbEntity
8
0
100
AcDbLine
10
-14.833009777925383
20
164.44223732477565
30
0
11
3.0198214490641551
21
167.20364647139633
31
0
0
LINE
5
589
100
AcDbEntity
8
0
100
AcDbLine
10
3.0198214490641551
20
167.20364647139633
30
0
11
18.111243529433008
21
167.84583464502904
31
0
0
LINE
5
590
100
AcDbEntity
8
0
100
AcDbLine
10
5.9738870477746531
20
173.56130939036024
30
0
11
18.111243529433008
21
167.84583464502904
31
0
0
LINE
5
591
100
AcDbEntity
8
0
100
AcDbLine
10
5.9738870477746531
20
173.56130939036024
30
0
11
-8.796440945777837
21
178.4419395099689
31
0
0
LINE
5
592
100
AcDbEntity
8
0
100
AcDbLine
10
-8.796440945777837
20
178.4419395099689
30
0
11
-25.685989912318302
21
181.97397446494881
31
0
0
LINE
5
593
100
AcDbEntity
8
0
100
AcDbLine
10
-25.685989912318302
20
181.97397446494881
30
0
11
-44.874572540463902
21
188.51787195426624
31
0
0
LINE
5
594
100
AcDbEntity
8
0
100
AcDbLine
10
-44.874572540463902
20
188.51787195426624
30
0
11
-66.775699993882526
21
186.99204935044673
31
0
0
LINE
5
595
100
AcDbEntity
8
0
100
AcDbLine
10
-66.775699993882526
20
186.99204935044673
30
0
11
-77.377394362911659
21
171.65557149564111
31
0
0
LINE
5
596
100
AcDbEntity
8
0
100
AcDbLine
10
-66.775699993882526
20
186.99204935044673
30
0
11
-86.16311188269907
21
181.68602083350746
31
0
0
LINE
5
597
100
AcDbEntity
8
0
100
AcDbLine
10
-86.16311188269907
20
181.68602083350746
30
0
11
-108.36816279139029
21
185.20471875958475
31
0
0
LINE
5
598
100
AcDbEntity
8
0
100
AcDbLine
10
-108.36816279139029
20
185.20471875958475
30
0
11
-127.32991122511433
21
190.47974300096092
31
0
0
LINE
5
599
100
AcDbEntity
8
0
100
AcDbLine
10
-127.32991122511433
20
190.47974300096092
30
0
11
-147.33693992835882
21
193.34944976071546
31
0
0
LINE
5
600
100
AcDbEntity
8
0
100
AcDbLine
10
-147.33693992835882
20
193.34944976071546
30
0
11
-172.53186012538447
21
194.1301921554535
31
0
0
LINE
5
601
100
AcDbEntity
8
0
100
AcDbLine
10
-172.53186012538447
20
194.1301921554535
30
0
11
-169.89759713007629
21
178.04969372736696
31
0
0
LINE
5
602
100
AcDbEntity
8
0
100
AcDbLine
10
-169.89759713007629
20
178.04969372736696
30
0
11
-181.35944826014423
21
166.89902407594337
31
0
0
LINE
5
603
100
AcDbEntity
8
0
100
AcDbLine
10
-181.35944826014423
20
166.89902407594337
30
0
11
-190.88743542450501
21
152.41058302865699
31
0
0
LINE
5
604
100
AcDbEntity
8
0
100
AcDbLine
10
-190.88743542450501
20
152.41058302865699
30
0
11
-198.83747464400352
21
166.89902407594337
31
0
0
LINE
5
605
100
AcDbEntity
8
0
100
AcDbLine
10
-198.83747464400352
20
166.89902407594337
30
0
11
-212.14728724948827
21
178.55362326130137
31
0
0
LINE
5
606
100
AcDbEntity
8
0
100
AcDbLine
10
-212.14728724948827
20
178.55362326130137
30
0
11
-224.75393750375491
21
190.19786138081005
31
0
0
LINE
5
607
100
AcDbEntity
8
0
100
AcDbLine
10
-224.75393750375491
20
190.19786138081005
30
0
11
-235.33465271369886
21
197.99692728321185
31
0
0
LINE
5
608
100
AcDbEntity
8
0
100
AcDbLine
10
-235.33465271369886
20
197.99692728321185
30
0
11
-219.7604151493187
21
197.34205920473119
31
0
0
LINE
5
609
100
AcDbEntity
8
0
100
AcDbLine
10
-219.7604151493187
20
197.34205920473119
30
0
11
-204.15055638165555
21
194.81057911647287
31
0
0
LINE
5
610
100
AcDbEntity
8
0
100
AcDbLine
10
-204.15055638165555
20
194.81057911647287
30
0
11
-188.30608419273759
21
196.16265109013329
31
0
0
LINE
5
611
100
AcDbEntity
8
0
100
AcDbLine
10
-188.30608419273759
20
196.16265109013329
30
0
11
-172.53186012538447
21
194.1301921554535
31
0
0
LINE
5
612
100
AcDbEntity
8
0
100
AcDbLine
10
-198.83747464400352
20
166.89902407594337
30
0
11
-214.67714646680128
21
173.90125503963247
31
0
0
LINE
5
613
100
AcDbEntity
8
0
100
AcDbLine
10
-214.67714646680128
20
173.90125503963247
30
0
11
-231.6521512208289
21
184.49442180935552
31
0
0
LINE
5
614
100
AcDbEntity
8
0
100
AcDbLine
10
-231.6521512208289
20
184.49442180935552
30
0
11
-250.01819416827874
21
189.45624914995321
31
0
0
LINE
5
615
100
AcDbEntity
8
0
100
AcDbLine
10
-250.01819416827874
20
189.45624914995321
30
0
11
-235.33465271369886
21
197.99692728321185
31
0
0
LINE
5
616
100
AcDbEntity
8
0
100
AcDbLine
10
-250.01819416827874
20
189.45624914995321
30
0
11
-275.51914268852482
21
188.69376561701418
31
0
0
LINE
5
617
100
AcDbEntity
8
0
100
AcDbLine
10
-275.51914268852482
20
188.69376561701418
30
0
11
-297.54954635639569
21
197.73850612581742
31
0
0
LINE
5
618
100
AcDbEntity
8
0
100
AcDbLine
10
-297.54954635639569
20
197.73850612581742
30
0
11
-314.54073745507617
21
196.70482149623993
31
0
0
LINE
5
619
100
AcDbEntity
8
0
100
AcDbLine
10
-314.54073745507617
20
196.70482149623993
30
0
11
-296.32204585877241
21
187.59547569808805
31
0
0
LINE
5
620
100
AcDbEntity
8
0
100
AcDbLine
10
-296.32204585877241
20
187.59547569808805
30
0
11
-271.12598301282043
21
181.52257849932013
31
0
0
LINE
5
621
100
AcDbEntity
8
0
100
AcDbLine
10
-271.12598301282043
20
181.52257849932013
30
0
11
-250.01819416827874
21
189.45624914995321
31
0
0
LINE
5
622
100
AcDbEntity
8
0
100
AcDbLine
10
-271.12598301282043
20
181.52257849932013
30
0
11
-286.30822600974022
21
173.3823120413972
31
0
0
LINE
5
623
100
AcDbEntity
8
0
100
AcDbLine
10
-286.30822600974022
20
173.3823120413972
30
0
11
-296.32204585877241
21
187.59547569808805
31
0
0
LINE
5
624
100
AcDbEntity
8
0
100
AcDbLine
10
-314.54073745507617
20
196.70482149623993
30
0
11
-329.65837516264736
21
186.30336991111616
31
0
0
LINE
5
625
100
AcDbEntity
8
0
100
AcDbLine
10
-329.65837516264736
20
186.30336991111616
30
0
11
-333.08245549812284
21
170.99191633549924
31
0
0
LINE
5
626
100
AcDbEntity
8
0
100
AcDbLine
10
-333.08245549812284
20
170.99191633549924
30
0
11
-306.91731331194194
21
166.98638839588637
31
0
0
LINE
5
627
100
AcDbEntity
8
0
100
AcDbLine
10
-306.91731331194194
20
166.98638839588637
30
0
11
-281.65664517664135
21
165.30665087282287
31
0
0
LINE
5
628
100
AcDbEntity
8
0
100
AcDbLine
10
-281.65664517664135
20
165.30665087282287
30
0
11
-264.34242763121796
21
176.93560295556992
31
0
0
LINE
5
629
100
AcDbEntity
8
0
100
AcDbLine
10
-264.34242763121796
20
176.93560295556992
30
0
11
-250.01819416827874
21
189.45624914995321
31
0
0
LINE
5
630
100
AcDbEntity
8
0
100
AcDbLine
10
-333.08245549812284
20
170.99191633549924
30
0
11
-343.60873493744282
21
153.39068644224182
31
0
0
LINE
5
631
100
AcDbEntity
8
0
100
AcDbLine
10
-343.60873493744282
20
153.39068644224182
30
0
11
-351.73108186865636
21
136.14928408371654
31
0
0
LINE
5
632
100
AcDbEntity
8
0
100
AcDbLine
10
-351.73108186865636
20
136.14928408371654
30
0
11
-340.80296048831576
21
120.86235278000139
31
0
0
LINE
5
633
100
AcDbEntity
8
0
100
AcDbLine
10
-340.80296048831576
20
120.86235278000139
30
0
11
-340.80296048831576
21
103.13188429417471
31
0
0
LINE
5
634
100
AcDbEntity
8
0
100
AcDbLine
10
-340.80296048831576
20
103.13188429417471
30
0
11
-340.80296048831576
21
82.991480827293898
31
0
0
LINE
5
635
100
AcDbEntity
8
0
100
AcDbLine
10
-340.80296048831576
20
82.991480827293898
30
0
11
-338.16081638383338
21
64.71401521136562
31
0
0
LINE
5
636
100
AcDbEntity
8
0
100
AcDbLine
10
-338.16081638383338
20
64.71401521136562
30
0
11
-338.2979790587375
21
51.326938140728515
31
0
0
LINE
5
637
100
AcDbEntity
8
0
100
AcDbLine
10
-338.2979790587375
20
51.326938140728515
30
0
11
-330.15051616943583
21
55.359520782908135
31
0
0
LINE
5
638
100
AcDbEntity
8
0
100
AcDbLine
10
-330.15051616943583
20
55.359520782908135
30
0
11
-338.16081638383338
21
64.71401521136562
31
0
0
LINE
5
639
100
AcDbEntity
8
0
100
AcDbLine
10
-330.15051616943583
20
55.359520782908135
30
0
11
-328.17537365081711
21
70.063359532624304
31
0
0
LINE
5
640
100
AcDbEntity
8
0
100
AcDbLine
10
-328.17537365081711
20
70.063359532624304
30
0
11
-310.55641292816
21
75.830494047458188
31
0
0
LINE
5
641
100
AcDbEntity
8
0
100
AcDbLine
10
-310.55641292816
20
75.830494047458188
30
0
11
-322.60634535655191
21
80.009426842489773
31
0
0
LINE
5
642
100
AcDbEntity
8
0
100
AcDbLine
10
-322.60634535655191
20
80.009426842489773
30
0
11
-328.17537365081711
21
70.063359532624304
31
0
0
LINE
5
643
100
AcDbEntity
8
0
100
AcDbLine
10
-322.60634535655191
20
80.009426842489773
30
0
11
-322.26251547732767
21
95.152783149094518
31
0
0
LINE
5
644
100
AcDbEntity
8
0
100
AcDbLine
10
-322.26251547732767
20
95.152783149094518
30
0
11
-326.19787406760685
21
114.86855597386844
31
0
0
LINE
5
645
100
AcDbEntity
8
0
100
AcDbLine
10
-326.19787406760685
20
114.86855597386844
30
0
11
-325.74376188175347
21
134.03918912331707
31
0
0
LINE
5
646
100
AcDbEntity
8
0
100
AcDbLine
10
-325.74376188175347
20
134.03918912331707
30
0
11
-312.86099993201265
21
149.09072324632561
31
0
0
LINE
5
647
100
AcDbEntity
8
0
100
AcDbLine
10
-312.86099993201265
20
149.09072324632561
30
0
11
-306.91731331194194
21
166.98638839588637
31
0
0
LINE
5
648
100
AcDbEntity
8
0
100
AcDbLine
10
-281.65664517664135
20
165.30665087282287
30
0
11
-271.15970214331554
21
154.2662299321502
31
0
0
LINE
5
649
100
AcDbEntity
8
0
100
AcDbLine
10
-271.15970214331554
20
154.2662299321502
30
0
11
-264.52032252291514
21
141.38489834468319
31
0
0
LINE
5
650
100
AcDbEntity
8
0
100
AcDbLine
10
-264.52032252291514
20
141.38489834468319
30
0
11
-255.54053561065996
21
131.13749904793843
31
0
0
LINE
5
651
100
AcDbEntity
8
0
100
AcDbLine
10
-255.54053561065996
20
131.13749904793843
30
0
11
-246.70880998101936
21
115.78588185053371
31
0
0
LINE
5
652
100
AcDbEntity
8
0
100
AcDbLine
10
-246.70880998101936
20
115.78588185053371
30
0
11
-234.63012639930497
21
101.88890181565804
31
0
0
LINE
5
653
100
AcDbEntity
8
0
100
AcDbLine
10
-234.63012639930497
20
101.88890181565804
30
0
11
-215.22630567771222
21
99.213408463149278
31
0
0
LINE
5
654
100
AcDbEntity
8
0
100
AcDbLine
10
-215.22630567771222
20
99.213408463149278
30
0
11
-197.94573409350531
21
98.288680615863328
31
0
0
LINE
5
655
100
AcDbEntity
8
0
100
AcDbLine
10
-197.94573409350531
20
98.288680615863328
30
0
11
-190.88743542450501
21
112.06471845639578
31
0
0
LINE
5
656
100
AcDbEntity
8
0
100
AcDbLine
10
-190.88743542450501
20
112.06471845639578
30
0
11
-190.97728596591563
21
127.88068817892942
31
0
0
LINE
5
657
100
AcDbEntity
8
0
100
AcDbLine
10
-190.97728596591563
20
127.88068817892942
30
0
11
-193.56920808638176
21
140.02836389169312
31
0
0
LINE
5
658
100
AcDbEntity
8
0
100
AcDbLine
10
-193.56920808638176
20
140.02836389169312
30
0
11
-190.88743542450501
21
152.41058302865699
31
0
0
LINE
5
659
100
AcDbEntity
8
0
100
AcDbLine
10
-197.94573409350531
20
98.288680615863328
30
0
11
-182.70926031921567
21
86.441289424699278
31
0
0
LINE
5
660
100
AcDbEntity
8
0
100
AcDbLine
10
-182.70926031921567
20
86.441289424699278
30
0
11
-164.23853161692284
21
70.200346533349304
31
0
0
LINE
5
661
100
AcDbEntity
8
0
100
AcDbLine
10
-190.4895109561831
20
69.977723344687917
30
0
11
-189.3085800559291
21
85.989757021660992
31
0
0
LINE
5
662
100
AcDbEntity
8
0
100
AcDbLine
10
-189.3085800559291
20
85.989757021660992
30
0
11
-197.94573409350531
21
98.288680615863328
31
0
0
LINE
5
663
100
AcDbEntity
8
0
100
AcDbLine
10
-190.4895109561831
20
69.977723344687917
30
0
11
-208.80208813994847
21
70.467255469086808
31
0
0
LINE
5
664
100
AcDbEntity
8
0
100
AcDbLine
10
-208.80208813994847
20
70.467255469086808
30
0
11
-232.20659152388788
21
71.770289918727997
31
0
0
LINE
5
665
100
AcDbEntity
8
0
100
AcDbLine
10
-232.20659152388788
20
71.770289918727997
30
0
11
-259.11926457993809
21
71.068655984305821
31
0
0
LINE
5
666
100
AcDbEntity
8
0
100
AcDbLine
10
-259.11926457993809
20
71.068655984305821
30
0
11
-283.01206148374257
21
80.091242454712713
31
0
0
LINE
5
667
100
AcDbEntity
8
0
100
AcDbLine
10
-283.01206148374257
20
80.091242454712713
30
0
11
-310.55641292816
21
75.830494047458188
31
0
0
LINE
5
668
100
AcDbEntity
8
0
100
AcDbLine
10
-306.33690797006983
20
64.226855412710236
30
0
11
-310.55641292816
21
75.830494047458188
31
0
0
LINE
5
669
100
AcDbEntity
8
0
100
AcDbLine
10
-306.33690797006983
20
64.226855412710236
30
0
11
-280.87068853443043
21
70.204903791533482
31
0
0
LINE
5
670
100
AcDbEntity
8
0
100
AcDbLine
10
-280.87068853443043
20
70.204903791533482
30
0
11
-259.11926457993809
21
71.068655984305821
31
0
0
LINE
5
671
100
AcDbEntity
8
0
100
AcDbLine
10
-306.33690797006983
20
64.226855412710236
30
0
11
-319.2872323170335
21
62.409682272977271
31
0
0
LINE
5
672
100
AcDbEntity
8
0
100
AcDbLine
10
-319.2872323170335
20
62.409682272977271
30
0
11
-330.15051616943583
21
55.359520782908135
31
0
0
LINE
5
673
100
AcDbEntity
8
0
100
AcDbLine
10
-338.2979790587375
20
51.326938140728515
30
0
11
-342.41285930585951
21
39.997301193652426
31
0
0
LINE
5
674
100
AcDbEntity
8
0
100
AcDbLine
10
-342.41285930585951
20
39.997301193652426
30
0
11
-325.59671536262073
21
40.765412173115209
31
0
0
LINE
5
675
100
AcDbEntity
8
0
100
AcDbLine
10
-325.59671536262073
20
40.765412173115209
30
0
11
-330.15051616943583
21
55.359520782908135
31
0
0
LINE
5
676
100
AcDbEntity
8
0
100
AcDbLine
10
-190.88743542450501
20
152.41058302865699
30
0
11
-173.42182685610794
21
155.30277029858445
31
0
0
LINE
5
677
100
AcDbEntity
8
0
100
AcDbLine
10
-173.42182685610794
20
155.30277029858445
30
0
11
-151.83770820830307
21
155.47423652897325
31
0
0
LINE
5
678
100
AcDbEntity
8
0
100
AcDbLine
10
-151.83770820830307
20
155.47423652897325
30
0
11
-133.53875235659706
21
154.05209903775713
31
0
0
LINE
5
679
100
AcDbEntity
8
0
100
AcDbLine
10
-133.53875235659706
20
154.05209903775713
30
0
11
-112.23619491555908
21
150.15744864687485
31
0
0
LINE
5
680
100
AcDbEntity
8
0
100
AcDbLine
10
-138.37756041799628
20
139.29963543593027
30
0
11
-155.55532903596344
21
146.12707559085575
31
0
0
LINE
5
681
100
AcDbEntity
8
0
100
AcDbLine
10
-155.55532903596344
20
146.12707559085575
30
0
11
-174.09032430529868
21
147.56101505295331
31
0
0
LINE
5
682
100
AcDbEntity
8
0
100
AcDbLine
10
-174.09032430529868
20
147.56101505295331
30
0
11
-190.88743542450501
21
152.41058302865699
31
0
0
LINE
5
683
100
AcDbEntity
8
0
100
AcDbLine
10
-232.20659152388788
20
71.770289918727997
30
0
11
-210.2554727183944
21
61.746947998411329
31
0
0
LINE
5
684
100
AcDbEntity
8
0
100
AcDbLine
10
-210.2554727183944
20
61.746947998411329
30
0
11
-190.51449589042682
21
58.259932917978688
31
0
0
LINE
5
685
100
AcDbEntity
8
0
100
AcDbLine
10
-190.51449589042682
20
58.259932917978688
30
0
11
-196.5234942875606
21
39.845945902519446
31
0
0
LINE
5
686
100
AcDbEntity
8
0
100
AcDbLine
10
-196.5234942875606
20
39.845945902519446
30
0
11
-207.49905369030733
21
21.753813736347919
31
0
0
LINE
5
687
100
AcDbEntity
8
0
100
AcDbLine
10
-207.49905369030733
20
21.753813736347919
30
0
11
-222.13313289396964
21
10.87848775280435
31
0
0
LINE
5
688
100
AcDbEntity
8
0
100
AcDbLine
10
-222.13313289396964
20
10.87848775280435
30
0
11
-234.41172674635752
21
2.5591139589415279
31
0
0
LINE
5
689
100
AcDbEntity
8
0
100
AcDbLine
10
-234.41172674635752
20
2.5591139589415279
30
0
11
-244.58541879547894
21
-11.623914858306541
31
0
0
LINE
5
690
100
AcDbEntity
8
0
100
AcDbLine
10
-244.58541879547894
20
-11.623914858306541
30
0
11
-252.85467587974014
21
-28.095606747360232
31
0
0
LINE
5
691
100
AcDbEntity
8
0
100
AcDbLine
10
-252.85467587974014
20
-28.095606747360232
30
0
11
-275.57425089912454
21
-27.427383952672457
31
0
0
LINE
5
692
100
AcDbEntity
8
0
100
AcDbLine
10
-275.57425089912454
20
-27.427383952672457
30
0
11
-300.15206933082095
21
-15.756139547252753
31
0
0
LINE
5
693
100
AcDbEntity
8
0
100
AcDbLine
10
-300.15206933082095
20
-15.756139547252753
30
0
11
-308.60350687541506
21
5.6634054428169867
31
0
0
LINE
5
694
100
AcDbEntity
8
0
100
AcDbLine
10
-308.60350687541506
20
5.6634054428169867
30
0
11
-317.59251126710785
21
23.3975694708178
31
0
0
LINE
5
695
100
AcDbEntity
8
0
100
AcDbLine
10
-317.59251126710785
20
23.3975694708178
30
0
11
-325.59671536262073
21
40.765412173115209
31
0
0
LINE
5
696
100
AcDbEntity
8
0
100
AcDbLine
10
-342.41285930585951
20
39.997301193652426
30
0
11
-337.34393645329368
21
27.542930312362994
31
0
0
LINE
5
697
100
AcDbEntity
8
0
100
AcDbLine
10
-337.34393645329368
20
27.542930312362994
30
0
11
-332.25367718463161
21
11.174851107144113
31
0
0
LINE
5
698
100
AcDbEntity
8
0
100
AcDbLine
10
-332.25367718463161
20
11.174851107144113
30
0
11
-326.42079979729715
21
-4.3951907168147279
31
0
0
LINE
5
699
100
AcDbEntity
8
0
100
AcDbLine
10
-326.42079979729715
20
-4.3951907168147279
30
0
11
-324.53654486932203
21
-21.353485068590501
31
0
0
LINE
5
700
100
AcDbEntity
8
0
100
AcDbLine
10
-324.53654486932203
20
-21.353485068590501
30
0
11
-311.01424479797146
21
-29.943470769653402
31
0
0
LINE
5
701
100
AcDbEntity
8
0
100
AcDbLine
10
-311.01424479797146
20
-29.943470769653402
30
0
11
-295.4414320108832
21
-39.780389878935111
31
0
0
LINE
5
702
100
AcDbEntity
8
0
100
AcDbLine
10
-295.4414320108832
20
-39.780389878935111
30
0
11
-282.8889690348139
21
-41.997160382435212
31
0
0
LINE
5
703
100
AcDbEntity
8
0
100
AcDbLine
10
-282.8889690348139
20
-41.997160382435212
30
0
11
-275.57425089912454
21
-27.427383952672457
31
0
0
LINE
5
704
100
AcDbEntity
8
0
100
AcDbLine
10
-275.57425089912454
20
-27.427383952672457
30
0
11
-258.81299579903947
21
-38.842856695255307
31
0
0
LINE
5
705
100
AcDbEntity
8
0
100
AcDbLine
10
-258.81299579903947
20
-38.842856695255307
30
0
11
-239.65727568465661
21
-39.566764722833739
31
0
0
LINE
5
706
100
AcDbEntity
8
0
100
AcDbLine
10
-239.65727568465661
20
-39.566764722833739
30
0
11
-223.39718768058734
21
-29.209311405173199
31
0
0
LINE
5
707
100
AcDbEntity
8
0
100
AcDbLine
10
-223.39718768058734
20
-29.209311405173199
30
0
11
-205.91202455292387
21
-36.448391680957442
31
0
0
LINE
5
708
100
AcDbEntity
8
0
100
AcDbLine
10
-205.91202455292387
20
-36.448391680957442
30
0
11
-185.36417361627471
21
-41.515747874006415
31
0
0
LINE
5
709
100
AcDbEntity
8
0
100
AcDbLine
10
-185.36417361627471
20
-41.515747874006415
30
0
11
-168.43586281751772
21
-47.19564162885252
31
0
0
LINE
5
710
100
AcDbEntity
8
0
100
AcDbLine
10
-168.43586281751772
20
-47.19564162885252
30
0
11
-147.17144577322307
21
-39.580377724592644
31
0
0
LINE
5
711
100
AcDbEntity
8
0
100
AcDbLine
10
-147.17144577322307
20
-39.580377724592644
30
0
11
-131.35854096450853
21
-48.30731103883604
31
0
0
LINE
5
712
100
AcDbEntity
8
0
100
AcDbLine
10
-131.35854096450853
20
-48.30731103883604
30
0
11
-116.66447376018418
21
-57.85472526296558
31
0
0
LINE
5
713
100
AcDbEntity
8
0
100
AcDbLine
10
-116.66447376018418
20
-57.85472526296558
30
0
11
-94.586078366884607
21
-45.249154920169552
31
0
0
LINE
5
714
100
AcDbEntity
8
0
100
AcDbLine
10
-94.586078366884607
20
-45.249154920169552
30
0
11
-83.024756454852763
21
-30.778855236723221
31
0
0
LINE
5
715
100
AcDbEntity
8
0
100
AcDbLine
10
-83.024756454852763
20
-30.778855236723221
30
0
11
-82.129686371340611
21
-12.429918524724277
31
0
0
LINE
5
716
100
AcDbEntity
8
0
100
AcDbLine
10
-82.129686371340611
20
-12.429918524724277
30
0
11
-66.615138257130127
21
-25.184667214772325
31
0
0
LINE
5
717
100
AcDbEntity
8
0
100
AcDbLine
10
-66.615138257130127
20
-25.184667214772325
30
0
11
-50.280109233033492
21
-32.643584577373524
31
0
0
LINE
5
718
100
AcDbEntity
8
0
100
AcDbLine
10
-50.280109233033492
20
-32.643584577373524
30
0
11
-35.096680171385614
21
-21.856182454710826
31
0
0
LINE
5
719
100
AcDbEntity
8
0
100
AcDbLine
10
-35.096680171385614
20
-21.856182454710826
30
0
11
-21.967332780842135
21
-10.956346885203034
31
0
0
LINE
5
720
100
AcDbEntity
8
0
100
AcDbLine
10
-21.967332780842135
20
-10.956346885203034
30
0
11
-2.9917099484717635
21
-4.6146243720348679
31
0
0
LINE
5
721
100
AcDbEntity
8
0
100
AcDbLine
10
-2.9917099484717635
20
-4.6146243720348679
30
0
11
14.69575049841132
21
3.1143499408888387
31
0
0
LINE
5
722
100
AcDbEntity
8
0
100
AcDbLine
10
30.550056781331733
20
5.5420405904610259
30
0
11
32.878658016635669
21
-8.5782009427649708
31
0
0
LINE
5
723
100
AcDbEntity
8
0
100
AcDbLine
10
32.878658016635669
20
-8.5782009427649708
30
0
11
31.869353746674662
21
-22.613131578114345
31
0
0
LINE
5
724
100
AcDbEntity
8
0
100
AcDbLine
10
31.869353746674662
20
-22.613131578114345
30
0
11
31.813702804672008
21
-39.633051754679578
31
0
0
LINE
5
725
100
AcDbEntity
8
0
100
AcDbLine
10
31.813702804672008
20
-39.633051754679578
30
0
11
18.989482272860542
21
-39.219367221395338
31
0
0
LINE
5
726
100
AcDbEntity
8
0
100
AcDbLine
10
18.989482272860542
20
-39.219367221395338
30
0
11
20.321902505020375
21
-24.156602783681997
31
0
0
LINE
5
727
100
AcDbEntity
8
0
100
AcDbLine
10
20.321902505020375
20
-24.156602783681997
30
0
11
24.555147218102455
21
-9.4204609640451196
31
0
0
LINE
5
728
100
AcDbEntity
8
0
100
AcDbLine
10
24.555147218102455
20
-9.4204609640451196
30
0
11
30.550056781331733
21
5.5420405904610259
31
0
0
LINE
5
729
100
AcDbEntity
8
0
100
AcDbLine
10
18.989482272860542
20
-39.219367221395338
30
0
11
3.0814315838392803
21
-44.785304578310573
31
0
0
LINE
5
730
100
AcDbEntity
8
0
100
AcDbLine
10
3.0814315838392803
20
-44.785304578310573
30
0
11
-16.627237750609027
21
-47.916965743926156
31
0
0
LINE
5
731
100
AcDbEntity
8
0
100
AcDbLine
10
-16.627237750609027
20
-47.916965743926156
30
0
11
-37.972895584741508
21
-48.083543517957999
31
0
0
LINE
5
732
100
AcDbEntity
8
0
100
AcDbLine
10
-37.972895584741508
20
-48.083543517957999
30
0
11
-50.280109233033492
21
-32.643584577373524
31
0
0
LINE
5
733
100
AcDbEntity
8
0
100
AcDbLine
10
-50.280109233033492
20
-32.643584577373524
30
0
11
-70.532603460616684
21
-49.745301445367353
31
0
0
LINE
5
734
100
AcDbEntity
8
0
100
AcDbLine
10
-70.532603460616684
20
-49.745301445367353
30
0
11
-37.972895584741508
21
-48.083543517957999
31
0
0
LINE
5
735
100
AcDbEntity
8
0
100
AcDbLine
10
-116.66447376018418
20
-57.85472526296558
30
0
11
-93.456163540551557
21
-59.944794899801622
31
0
0
LINE
5
736
100
AcDbEntity
8
0
100
AcDbLine
10
-93.456163540551557
20
-59.944794899801622
30
0
11
-70.532603460616684
21
-49.745301445367353
31
0
0
LINE
5
737
100
AcDbEntity
8
0
100
AcDbLine
10
-116.66447376018418
20
-57.85472526296558
30
0
11
-119.00887809457527
21
-74.054985230596927
31
0
0
LINE
5
738
100
AcDbEntity
8
0
100
AcDbLine
10
-119.00887809457527
20
-74.054985230596927
30
0
11
-119.19877431248455
21
-90.512165244136014
31
0
0
LINE
5
739
100
AcDbEntity
8
0
100
AcDbLine
10
-119.19877431248455
20
-90.512165244136014
30
0
11
-112.44340323142208
21
-108.58574576803123
31
0
0
LINE
5
740
100
AcDbEntity
8
0
100
AcDbLine
10
-112.44340323142208
20
-108.58574576803123
30
0
11
-104.10595015479234
21
-91.268404998255704
31
0
0
LINE
5
741
100
AcDbEntity
8
0
100
AcDbLine
10
-104.10595015479234
20
-91.268404998255704
30
0
11
-101.30676878473416
21
-74.345369908652941
31
0
0
LINE
5
742
100
AcDbEntity
8
0
100
AcDbLine
10
-101.30676878473416
20
-74.345369908652941
30
0
11
-93.456163540551557
21
-59.944794899801622
31
0
0
LINE
5
743
100
AcDbEntity
8
0
100
AcDbLine
10
-93.456163540551557
20
-59.944794899801622
30
0
11
-70.68726636110452
21
-63.76425827883989
31
0
0
LINE
5
744
100
AcDbEntity
8
0
100
AcDbLine
10
-70.68726636110452
20
-63.76425827883989
30
0
11
-37.972895584741508
21
-48.083543517957999
31
0
0
LINE
5
745
100
AcDbEntity
8
0
100
AcDbLine
10
-19.623958872742548
20
-56.661298484949398
30
0
11
-37.972895584741508
21
-48.083543517957999
31
0
0
LINE
5
746
100
AcDbEntity
8
0
100
AcDbLine
10
-19.623958872742548
20
-56.661298484949398
30
0
11
-4.4077674530360955
21
-63.598091632168504
31
0
0
LINE
5
747
100
AcDbEntity
8
0
100
AcDbLine
10
-4.4077674530360955
20
-63.598091632168504
30
0
11
12.076439918312554
21
-67.625907007973154
31
0
0
LINE
5
748
100
AcDbEntity
8
0
100
AcDbLine
10
12.076439918312554
20
-67.625907007973154
30
0
11
26.099204560002811
21
-76.0544836277125
31
0
0
LINE
5
749
100
AcDbEntity
8
0
100
AcDbLine
10
26.099204560002811
20
-76.0544836277125
30
0
11
22.562212333042634
21
-55.804356237608971
31
0
0
LINE
5
750
100
AcDbEntity
8
0
100
AcDbLine
10
22.562212333042634
20
-55.804356237608971
30
0
11
18.989482272860542
21
-39.219367221395338
31
0
0
LINE
5
751
100
AcDbEntity
8
0
100
AcDbLine
10
31.813702804672008
20
-39.633051754679578
30
0
11
33.506048622653005
21
-54.30004884384811
31
0
0
LINE
5
752
100
AcDbEntity
8
0
100
AcDbLine
10
33.506048622653005
20
-54.30004884384811
30
0
11
37.868540064559539
21
-72.878245156794918
31
0
0
LINE
5
753
100
AcDbEntity
8
0
100
AcDbLine
10
37.868540064559539
20
-72.878245156794918
30
0
11
32.886819359969898
21
-88.510875623256524
31
0
0
LINE
5
754
100
AcDbEntity
8
0
100
AcDbLine
10
32.886819359969898
20
-88.510875623256524
30
0
11
26.099204560002811
21
-76.0544836277125
31
0
0
LINE
5
755
100
AcDbEntity
8
0
100
AcDbLine
10
32.886819359969898
20
-88.510875623256524
30
0
11
48.504723704262247
21
-86.533569855384286
31
0
0
LINE
5
756
100
AcDbEntity
8
0
100
AcDbLine
10
-112.44340323142208
20
-108.58574576803123
30
0
11
-92.147661167703703
21
-123.54830013617402
31
0
0
LINE
5
757
100
AcDbEntity
8
0
100
AcDbLine
10
-92.147661167703703
20
-123.54830013617402
30
0
11
-64.804043578808475
21
-116.94701190038033
31
0
0
LINE
5
758
100
AcDbEntity
8
0
100
AcDbLine
10
-64.804043578808475
20
-116.94701190038033
30
0
11
-42.196467039603462
21
-107.61798182245539
31
0
0
LINE
5
759
100
AcDbEntity
8
0
100
AcDbLine
10
-42.196467039603462
20
-107.61798182245539
30
0
11
-15.521554323311895
21
-97.31239811112593
31
0
0
LINE
5
760
100
AcDbEntity
8
0
100
AcDbLine
10
-15.521554323311895
20
-97.31239811112593
30
0
11
-31.781994173782522
21
-82.99127677493162
31
0
0
LINE
5
761
100
AcDbEntity
8
0
100
AcDbLine
10
-31.781994173782522
20
-82.99127677493162
30
0
11
-48.266201545131167
21
-69.416047174997431
31
0
0
LINE
5
762
100
AcDbEntity
8
0
100
AcDbLine
10
-48.266201545131167
20
-69.416047174997431
30
0
11
-70.68726636110452
21
-63.76425827883989
31
0
0
LINE
5
763
100
AcDbEntity
8
0
100
AcDbLine
10
-92.147661167703703
20
-123.54830013617402
30
0
11
-71.348229154958688
21
-138.03679337582116
31
0
0
LINE
5
764
100
AcDbEntity
8
0
100
AcDbLine
10
-71.348229154958688
20
-138.03679337582116
30
0
11
-48.267377961328549
21
-140.49598547989217
31
0
0
LINE
5
765
100
AcDbEntity
8
0
100
AcDbLine
10
-48.267377961328549
20
-140.49598547989217
30
0
11
-23.053251689468151
21
-142.57000291706046
31
0
0
LINE
5
766
100
AcDbEntity
8
0
100
AcDbLine
10
-23.053251689468151
20
-142.57000291706046
30
0
11
-0.56497690645753051
21
-147.99207707422906
31
0
0
LINE
5
767
100
AcDbEntity
8
0
100
AcDbLine
10
-0.56497690645753051
20
-147.99207707422906
30
0
11
23.819542390535538
21
-149.56240456237077
31
0
0
LINE
5
768
100
AcDbEntity
8
0
100
AcDbLine
10
23.819542390535538
20
-149.56240456237077
30
0
11
41.952380555492716
21
-144.37736096945
31
0
0
LINE
5
769
100
AcDbEntity
8
0
100
AcDbLine
10
41.952380555492716
20
-144.37736096945
30
0
11
59.457994188201546
21
-140.34904481820757
31
0
0
LINE
5
770
100
AcDbEntity
8
0
100
AcDbLine
10
59.457994188201546
20
-140.34904481820757
30
0
11
75.931637320058542
21
-137.00741614021521
31
0
0
LINE
5
771
100
AcDbEntity
8
0
100
AcDbLine
10
71.358882287016385
20
-117.01626913678734
30
0
11
75.931637320058542
21
-137.00741614021521
31
0
0
LINE
5
772
100
AcDbEntity
8
0
100
AcDbLine
10
71.358882287016385
20
-117.01626913678734
30
0
11
68.277846377004124
21
-101.0159178667392
31
0
0
LINE
5
773
100
AcDbEntity
8
0
100
AcDbLine
10
68.277846377004124
20
-101.0159178667392
30
0
11
79.838632158652985
21
-86.991739276557411
31
0
0
LINE
5
774
100
AcDbEntity
8
0
100
AcDbLine
10
68.277846377004124
20
-101.0159178667392
30
0
11
59.877816976733072
21
-112.76340946289885
31
0
0
LINE
5
775
100
AcDbEntity
8
0
100
AcDbLine
10
59.877816976733072
20
-112.76340946289885
30
0
11
47.167052968944461
21
-122.89646608449257
31
0
0
LINE
5
776
100
AcDbEntity
8
0
100
AcDbLine
10
47.167052968944461
20
-122.89646608449257
30
0
11
55.236989542316472
21
-131.67253526833269
31
0
0
LINE
5
777
100
AcDbEntity
8
0
100
AcDbLine
10
55.236989542316472
20
-131.67253526833269
30
0
11
59.457994188201546
21
-140.34904481820757
31
0
0
LINE
5
778
100
AcDbEntity
8
0
100
AcDbLine
10
47.167052968944461
20
-122.89646608449257
30
0
11
34.160000755846085
21
-135.0739113227236
31
0
0
LINE
5
779
100
AcDbEntity
8
0
100
AcDbLine
10
34.160000755846085
20
-135.0739113227236
30
0
11
23.819542390535538
21
-149.56240456237077
31
0
0
LINE
5
780
100
AcDbEntity
8
0
100
AcDbLine
10
47.167052968944461
20
-122.89646608449257
30
0
11
30.014746019655753
21
-119.71143461837335
31
0
0
LINE
5
781
100
AcDbEntity
8
0
100
AcDbLine
10
30.014746019655753
20
-119.71143461837335
30
0
11
13.883848439406069
21
-111.26554013060112
31
0
0
LINE
5
782
100
AcDbEntity
8
0
100
AcDbLine
10
13.883848439406069
20
-111.26554013060112
30
0
11
0.073669614805518258
21
-106.58605804953811
31
0
0
LINE
5
783
100
AcDbEntity
8
0
100
AcDbLine
10
0.073669614805518258
20
-106.58605804953811
30
0
11
-15.521554323311895
21
-97.31239811112593
31
0
0
LINE
5
784
100
AcDbEntity
8
0
100
AcDbLine
10
3.0511499095651029
20
-95.82061463860569
30
0
11
-15.521554323311895
21
-97.31239811112593
31
0
0
LINE
5
785
100
AcDbEntity
8
0
100
AcDbLine
10
3.0511499095651029
20
-95.82061463860569
30
0
11
19.013233065531658
21
-92.464101825435137
31
0
0
LINE
5
786
100
AcDbEntity
8
0
100
AcDbLine
10
19.013233065531658
20
-92.464101825435137
30
0
11
32.886819359969898
21
-88.510875623256524
31
0
0
LINE
5
787
100
AcDbEntity
8
0
100
AcDbLine
10
33.628980147306038
20
-105.78712208447857
30
0
11
32.886819359969898
21
-88.510875623256524
31
0
0
LINE
5
788
100
AcDbEntity
8
0
100
AcDbLine
10
33.628980147306038
20
-105.78712208447857
30
0
11
47.167052968944461
21
-122.89646608449257
31
0
0
LINE
5
789
100
AcDbEntity
8
0
100
AcDbLine
10
-282.28364395528411
20
-63.407310283204048
30
0
11
-287.31725715848279
21
-50.843868921494689
31
0
0
LINE
5
790
100
AcDbEntity
8
0
100
AcDbLine
10
-287.31725715848279
20
-50.843868921494689
30
0
11
-295.4414320108832
21
-39.780389878935111
31
0
0
LINE
5
791
100
AcDbEntity
8
0
100
AcDbLine
10
-282.8889690348139
20
-41.997160382435212
30
0
11
-260.07435159220444
21
-55.086308562265849
31
0
0
LINE
5
792
100
AcDbEntity
8
0
100
AcDbLine
10
-260.07435159220444
20
-55.086308562265849
30
0
11
-242.29494503739406
21
-72.566398508409407
31
0
0
LINE
5
793
100
AcDbEntity
8
0
100
AcDbLine
10
-242.29494503739406
20
-72.566398508409407
30
0
11
-220.92373917858154
21
-74.781341412544023
31
0
0
LINE
5
794
100
AcDbEntity
8
0
100
AcDbLine
10
-220.92373917858154
20
-74.781341412544023
30
0
11
-199.33303447341333
21
-70.085396396570928
31
0
0
LINE
5
795
100
AcDbEntity
8
0
100
AcDbLine
10
-199.33303447341333
20
-70.085396396570928
30
0
11
-215.29658693564494
21
-51.494509258263754
31
0
0
LINE
5
796
100
AcDbEntity
8
0
100
AcDbLine
10
-215.29658693564494
20
-51.494509258263754
30
0
11
-205.91202455292387
21
-36.448391680957442
31
0
0
LINE
5
797
100
AcDbEntity
8
0
100
AcDbLine
10
-199.33303447341333
20
-70.085396396570928
30
0
11
-189.15626977874072
21
-88.909085341618976
31
0
0
LINE
5
798
100
AcDbEntity
8
0
100
AcDbLine
10
-189.15626977874072
20
-88.909085341618976
30
0
11
-168.93576999324745
21
-100.74872008444072
31
0
0
LINE
5
799
100
AcDbEntity
8
0
100
AcDbLine
10
-168.93576999324745
20
-100.74872008444072
30
0
11
-148.73870838186741
21
-96.734217555640925
31
0
0
LINE
5
800
100
AcDbEntity
8
0
100
AcDbLine
10
-148.73870838186741
20
-96.734217555640925
30
0
11
-127.19855585584801
21
-100.20078955776511
31
0
0
LINE
5
801
100
AcDbEntity
8
0
100
AcDbLine
10
-127.19855585584801
20
-100.20078955776511
30
0
11
-112.44340323142208
21
-108.58574576803123
31
0
0
ENDSEC
0
SECTION
2
OBJECTS
0
DICTIONARY
5
C
100
AcDbDictionary
3
ACAD_GROUP
350
D
3
ACAD_MLINESTYLE
350
17
0
DICTIONARY
5
D
100
AcDbDictionary
0
DICTIONARY
5
1A
330
C
100
AcDbDictionary
0
DICTIONARY
5
17
100
AcDbDictionary
0
ENDSEC
0
EOF
