0
SECTION
2
HEADER
9
$INSUNITS
70
4
9
$ACADVER
1
AC1014
9
$HANDSEED
5
FFFF
0
ENDSEC
0
SECTION
2
TABLES
0
TABLE
2
VPORT
5
8
100
AcDbSymbolTable
0
ENDTAB
0
TABLE
2
LTYPE
5
5
100
AcDbSymbolTable
0
LTYPE
5
14
100
AcDbSymbolTableRecord
100
AcDbLinetypeTableRecord
2
BYBLOCK
70
0
0
LTYPE
5
15
100
AcDbSymbolTableRecord
100
AcDbLinetypeTableRecord
2
BYLAYER
70
0
0
ENDTAB
0
TABLE
2
LAYER
5
2
100
AcDbSymbolTable
70
2
0
LAYER
5
50
100
AcDbSymbolTableRecord
100
AcDbLayerTableRecord
2
0
70
0
6
CONTINUOUS
0
ENDTAB
0
TABLE
2
STYLE
5
3
100
AcDbSymbolTable
70
1
0
STYLE
5
11
100
AcDbSymbolTableRecord
100
AcDbTextStyleTableRecord
2
STANDARD
70
0
0
ENDTAB
0
TABLE
2
VIEW
5
6
100
AcDbSymbolTable
70
0
0
ENDTAB
0
TABLE
2
UCS
5
7
100
AcDbSymbolTable
70
0
0
ENDTAB
0
TABLE
2
APPID
5
9
100
AcDbSymbolTable
70
2
0
APPID
5
12
100
AcDbSymbolTableRecord
100
AcDbRegAppTableRecord
2
ACAD
70
0
0
ENDTAB
0
TABLE
2
DIMSTYLE
5
A
100
AcDbSymbolTable
70
1
0
ENDTAB
0
TABLE
2
BLOCK_RECORD
5
1
100
AcDbSymbolTable
70
1
0
BLOCK_RECORD
5
1F
100
AcDbSymbolTableRecord
100
AcDbBlockTableRecord
2
*MODEL_SPACE
0
BLOCK_RECORD
5
1B
100
AcDbSymbolTableRecord
100
AcDbBlockTableRecord
2
*PAPER_SPACE
0
ENDTAB
0
ENDSEC
0
SECTION
2
BLOCKS
0
BLOCK
5
20
100
AcDbEntity
100
AcDbBlockBegin
2
*MODEL_SPACE
0
ENDBLK
5
21
100
AcDbEntity
100
AcDbBlockEnd
0
BLOCK
5
1C
100
AcDbEntity
100
AcDbBlockBegin
2
*PAPER_SPACE
0
ENDBLK
5
1D
100
AcDbEntity
100
AcDbBlockEnd
0
ENDSEC
0
SECTION
2
ENTITIES
0
LINE
5
100
100
AcDbEntity
8
0
100
AcDbLine
10
134.95365789410974
20
92.612301702756639
30
0
11
154.01482417054467
21
93.153109417044519
31
0
0
LINE
5
101
100
AcDbEntity
8
0
100
AcDbLine
10
154.01482417054467
20
93.153109417044519
30
0
11
147.03877226089008
21
105.05587285160249
31
0
0
LINE
5
102
100
AcDbEntity
8
0
100
AcDbLine
10
147.03877226089008
20
105.05587285160249
30
0
11
143.2182652029548
21
116.71373130249296
31
0
0
LINE
5
103
100
AcDbEntity
8
0
100
AcDbLine
10
125.67343595041035
20
124.97513148451631
30
0
11
143.2182652029548
21
116.71373130249296
31
0
0
LINE
5
104
100
AcDbEntity
8
0
100
AcDbLine
10
107.44725410553403
20
129.14841611254874
30
0
11
125.67343595041035
21
124.97513148451631
31
0
0
LINE
5
105
100
AcDbEntity
8
0
100
AcDbLine
10
107.44725410553403
20
129.14841611254874
30
0
11
92.372328000192425
21
140.13522666389943
31
0
0
LINE
5
106
100
AcDbEntity
8
0
100
AcDbLine
10
92.372328000192425
20
140.13522666389943
30
0
11
71.091767854132158
21
137.91986575374452
31
0
0
LINE
5
107
100
AcDbEntity
8
0
100
AcDbLine
10
61.881799493343266
20
122.42005926327198
30
0
11
71.091767854132158
21
137.91986575374452
31
0
0
LINE
5
108
100
AcDbEntity
8
0
100
AcDbLine
10
39.303453259312661
20
105.61780062001885
30
0
11
61.881799493343266
21
122.42005926327198
31
0
0
LINE
5
109
100
AcDbEntity
8
0
100
AcDbLine
10
33.395322061891662
20
84.5540285248657
30
0
11
39.303453259312661
21
105.61780062001885
31
0
0
LINE
5
110
100
AcDbEntity
8
0
100
AcDbLine
10
41.653364498041469
20
67.287613516509538
30
0
11
33.395322061891662
21
84.5540285248657
31
0
0
LINE
5
111
100
AcDbEntity
8
0
100
AcDbLine
10
55.621554526076771
20
84.458657840154842
30
0
11
41.653364498041469
21
67.287613516509538
31
0
0
LINE
5
112
100
AcDbEntity
8
0
100
AcDbLine
10
75.252295755337869
20
89.278413581123715
30
0
11
55.621554526076771
21
84.458657840154842
31
0
0
LINE
5
113
100
AcDbEntity
8
0
100
AcDbLine
10
75.252295755337869
20
89.278413581123715
30
0
11
95.80122749533281
21
89.278413581123715
31
0
0
LINE
5
114
100
AcDbEntity
8
0
100
AcDbLine
10
95.80122749533281
20
89.334420793230549
30
0
11
114.3182438703294
21
90.046046467236323
31
0
0
LINE
5
115
100
AcDbEntity
8
0
100
AcDbLine
10
114.3182438703294
20
90.046046467236323
30
0
11
134.95365789410974
21
92.612301702756639
31
0
0
LINE
5
116
100
AcDbEntity
8
0
100
AcDbLine
10
25.175313439392887
20
78.003709153811968
30
0
11
41.653364498041469
21
67.287613516509538
31
0
0
LINE
5
117
100
AcDbEntity
8
0
100
AcDbLine
10
4.1757601616030282
20
77.361520980179264
30
0
11
25.175313439392887
21
78.003709153811968
31
0
0
LINE
5
118
100
AcDbEntity
8
0
100
AcDbLine
10
-17.209106020366445
20
83.697777626688747
30
0
11
4.1757601616030282
21
77.361520980179264
31
0
0
LINE
5
119
100
AcDbEntity
8
0
100
AcDbLine
10
-44.038300829911073
20
87.194135460911326
30
0
11
-17.209106020366445
21
83.697777626688747
31
0
0
LINE
5
120
100
AcDbEntity
8
0
100
AcDbLine
10
-70.439260173277091
20
86.00579373816521
30
0
11
-44.038300829911073
21
87.194135460911326
31
0
0
LINE
5
121
100
AcDbEntity
8
0
100
AcDbLine
10
-62.804466348289367
20
94.186851129356469
30
0
11
-70.439260173277091
21
86.00579373816521
31
0
0
LINE
5
122
100
AcDbEntity
8
0
100
AcDbLine
10
-44.038300829911073
20
87.194135460911326
30
0
11
-62.804466348289367
21
94.186851129356469
31
0
0
LINE
5
123
100
AcDbEntity
8
0
100
AcDbLine
10
-63.803425729495807
20
108.2436367077615
30
0
11
-62.804466348289367
21
94.186851129356469
31
0
0
LINE
5
124
100
AcDbEntity
8
0
100
AcDbLine
10
-38.258607267216632
20
110.02749274563016
30
0
11
-63.803425729495807
21
108.2436367077615
31
0
0
LINE
5
125
100
AcDbEntity
8
0
100
AcDbLine
10
-93.43813288358993
20
85.593968205802312
30
0
11
-70.439260173277091
21
86.00579373816521
31
0
0
LINE
5
126
100
AcDbEntity
8
0
100
AcDbLine
10
-93.43813288358993
20
85.593968205802312
30
0
11
-107.61075582391098
21
88.253949580647273
31
0
0
LINE
5
127
100
AcDbEntity
8
0
100
AcDbLine
10
-20.548484523256576
20
114.86531032032997
30
0
11
-38.258607267216632
21
110.02749274563016
31
0
0
LINE
5
128
100
AcDbEntity
8
0
100
AcDbLine
10
-0.25533823646271436
20
119.87437807466515
30
0
11
-20.548484523256576
21
114.86531032032997
31
0
0
LINE
5
129
100
AcDbEntity
8
0
100
AcDbLine
10
23.955155909490713
20
118.71843936212628
30
0
11
-0.25533823646271436
21
119.87437807466515
31
0
0
LINE
5
130
100
AcDbEntity
8
0
100
AcDbLine
10
40.973142510757725
20
120.32390979620807
30
0
11
23.955155909490713
21
118.71843936212628
31
0
0
LINE
5
131
100
AcDbEntity
8
0
100
AcDbLine
10
40.973142510757725
20
120.32390979620807
30
0
11
61.881799493343266
21
122.42005926327198
31
0
0
ENDSEC
0
SECTION
2
OBJECTS
0
DICTIONARY
5
C
100
AcDbDictionary
3
ACAD_GROUP
350
D
3
ACAD_MLINESTYLE
350
17
0
DICTIONARY
5
D
100
AcDbDictionary
0
DICTIONARY
5
1A
330
C
100
AcDbDictionary
0
DICTIONARY
5
17
100
AcDbDictionary
0
ENDSEC
0
EOF
