0
SECTION
2
HEADER
9
$INSUNITS
70
4
9
$ACADVER
1
AC1014
9
$HANDSEED
5
FFFF
0
ENDSEC
0
SECTION
2
TABLES
0
TABLE
2
VPORT
5
8
100
AcDbSymbolTable
0
ENDTAB
0
TABLE
2
LTYPE
5
5
100
AcDbSymbolTable
0
LTYPE
5
14
100
AcDbSymbolTableRecord
100
AcDbLinetypeTableRecord
2
BYBLOCK
70
0
0
LTYPE
5
15
100
AcDbSymbolTableRecord
100
AcDbLinetypeTableRecord
2
BYLAYER
70
0
0
ENDTAB
0
TABLE
2
LAYER
5
2
100
AcDbSymbolTable
70
2
0
LAYER
5
50
100
AcDbSymbolTableRecord
100
AcDbLayerTableRecord
2
0
70
0
6
CONTINUOUS
0
ENDTAB
0
TABLE
2
STYLE
5
3
100
AcDbSymbolTable
70
1
0
STYLE
5
11
100
AcDbSymbolTableRecord
100
AcDbTextStyleTableRecord
2
STANDARD
70
0
0
ENDTAB
0
TABLE
2
VIEW
5
6
100
AcDbSymbolTable
70
0
0
ENDTAB
0
TABLE
2
UCS
5
7
100
AcDbSymbolTable
70
0
0
ENDTAB
0
TABLE
2
APPID
5
9
100
AcDbSymbolTable
70
2
0
APPID
5
12
100
AcDbSymbolTableRecord
100
AcDbRegAppTableRecord
2
ACAD
70
0
0
ENDTAB
0
TABLE
2
DIMSTYLE
5
A
100
AcDbSymbolTable
70
1
0
ENDTAB
0
TABLE
2
BLOCK_RECORD
5
1
100
AcDbSymbolTable
70
1
0
BLOCK_RECORD
5
1F
100
AcDbSymbolTableRecord
100
AcDbBlockTableRecord
2
*MODEL_SPACE
0
BLOCK_RECORD
5
1B
100
AcDbSymbolTableRecord
100
AcDbBlockTableRecord
2
*PAPER_SPACE
0
ENDTAB
0
ENDSEC
0
SECTION
2
BLOCKS
0
BLOCK
5
20
100
AcDbEntity
100
AcDbBlockBegin
2
*MODEL_SPACE
0
ENDBLK
5
21
100
AcDbEntity
100
AcDbBlockEnd
0
BLOCK
5
1C
100
AcDbEntity
100
AcDbBlockBegin
2
*PAPER_SPACE
0
ENDBLK
5
1D
100
AcDbEntity
100
AcDbBlockEnd
0
ENDSEC
0
SECTION
2
ENTITIES
0
LINE
5
100
100
AcDbEntity
8
0
100
AcDbLine
10
17.443937257511983
20
46.737459446863561
30
0
11
1.920488199226833
21
45.02416908257122
31
0
0
LINE
5
101
100
AcDbEntity
8
0
100
AcDbLine
10
1.920488199226833
20
45.02416908257122
30
0
11
-14.427878441865714
21
43.33972199040501
31
0
0
LINE
5
102
100
AcDbEntity
8
0
100
AcDbLine
10
17.443937257511983
20
46.737459446863561
30
0
11
26.996828985687458
21
55.04432181919006
31
0
0
LINE
5
103
100
AcDbEntity
8
0
100
AcDbLine
10
26.996828985687458
20
55.04432181919006
30
0
11
41.653364498041469
21
67.287613516509538
31
0
0
LINE
5
104
100
AcDbEntity
8
0
100
AcDbLine
10
41.653364498041469
20
67.287613516509538
30
0
11
53.873477789841957
21
62.961909696403175
31
0
0
LINE
5
105
100
AcDbEntity
8
0
100
AcDbLine
10
53.873477789841957
20
62.961909696403175
30
0
11
71.163760094420383
21
62.521101003550243
31
0
0
LINE
5
106
100
AcDbEntity
8
0
100
AcDbLine
10
71.163760094420383
20
62.521101003550243
30
0
11
94.964749175536554
21
69.061830827368425
31
0
0
LINE
5
107
100
AcDbEntity
8
0
100
AcDbLine
10
94.964749175536554
20
69.061830827368425
30
0
11
117.76646008912493
21
70.606169813547709
31
0
0
LINE
5
108
100
AcDbEntity
8
0
100
AcDbLine
10
119.57519581444274
20
56.452115908711221
30
0
11
117.76646008912493
21
70.606169813547709
31
0
0
LINE
5
109
100
AcDbEntity
8
0
100
AcDbLine
10
122.96030452886549
20
44.149247677798385
30
0
11
119.57519581444274
21
56.452115908711221
31
0
0
LINE
5
110
100
AcDbEntity
8
0
100
AcDbLine
10
122.96030452886549
20
44.149247677798385
30
0
11
132.83295298945737
21
32.2615374606372
31
0
0
LINE
5
111
100
AcDbEntity
8
0
100
AcDbLine
10
134.40042146472928
20
83.535238889593245
30
0
11
117.76646008912493
21
70.606169813547709
31
0
0
LINE
5
112
100
AcDbEntity
8
0
100
AcDbLine
10
134.40042146472928
20
83.535238889593245
30
0
11
154.01482417054467
21
93.153109417044519
31
0
0
LINE
5
113
100
AcDbEntity
8
0
100
AcDbLine
10
57.322464941636326
20
42.091615598007607
30
0
11
64.882935459863504
21
28.423348115116276
31
0
0
LINE
5
114
100
AcDbEntity
8
0
100
AcDbLine
10
45.287618266265248
20
53.517424959806057
30
0
11
57.322464941636326
21
42.091615598007607
31
0
0
LINE
5
115
100
AcDbEntity
8
0
100
AcDbLine
10
41.653364498041469
20
67.287613516509538
30
0
11
45.287618266265248
21
53.517424959806057
31
0
0
LINE
5
116
100
AcDbEntity
8
0
100
AcDbLine
10
-5.4518521562129152
20
60.859125479818601
30
0
11
26.996828985687458
21
55.04432181919006
31
0
0
LINE
5
117
100
AcDbEntity
8
0
100
AcDbLine
10
-30.700807671383515
20
72.869455553601426
30
0
11
-5.4518521562129152
21
60.859125479818601
31
0
0
LINE
5
118
100
AcDbEntity
8
0
100
AcDbLine
10
-58.002977628643038
20
75.093161703966459
30
0
11
-30.700807671383515
21
72.869455553601426
31
0
0
LINE
5
119
100
AcDbEntity
8
0
100
AcDbLine
10
-79.087006313585533
20
75.010802216915906
30
0
11
-58.002977628643038
21
75.093161703966459
31
0
0
LINE
5
120
100
AcDbEntity
8
0
100
AcDbLine
10
-79.087006313585533
20
75.010802216915906
30
0
11
-70.439260173277091
21
86.00579373816521
31
0
0
LINE
5
121
100
AcDbEntity
8
0
100
AcDbLine
10
-58.002977628643038
20
75.093161703966459
30
0
11
-70.439260173277091
21
86.00579373816521
31
0
0
LINE
5
122
100
AcDbEntity
8
0
100
AcDbLine
10
-93.43813288358993
20
85.593968205802312
30
0
11
-79.087006313585533
21
75.010802216915906
31
0
0
LINE
5
123
100
AcDbEntity
8
0
100
AcDbLine
10
-93.43813288358993
20
85.593968205802312
30
0
11
-88.352448606773152
21
69.698615302154991
31
0
0
LINE
5
124
100
AcDbEntity
8
0
100
AcDbLine
10
-88.352448606773152
20
69.698615302154991
30
0
11
-89.834919373683164
21
53.514976096720623
31
0
0
LINE
5
125
100
AcDbEntity
8
0
100
AcDbLine
10
-89.834919373683164
20
53.514976096720623
30
0
11
-89.593445602570057
21
31.167861153176602
31
0
0
LINE
5
126
100
AcDbEntity
8
0
100
AcDbLine
10
-87.343670376731637
20
18.707567594686864
30
0
11
-89.593445602570057
21
31.167861153176602
31
0
0
LINE
5
127
100
AcDbEntity
8
0
100
AcDbLine
10
-84.548495096144478
20
7.5163780097470063
30
0
11
-87.343670376731637
21
18.707567594686864
31
0
0
LINE
5
128
100
AcDbEntity
8
0
100
AcDbLine
10
-68.537856950492483
20
40.109275512278032
30
0
11
-89.593445602570057
21
31.167861153176602
31
0
0
LINE
5
129
100
AcDbEntity
8
0
100
AcDbLine
10
-48.809058816217046
20
37.917186830691882
30
0
11
-68.537856950492483
21
40.109275512278032
31
0
0
LINE
5
130
100
AcDbEntity
8
0
100
AcDbLine
10
-30.407051199743769
20
42.128304561107399
30
0
11
-48.809058816217046
21
37.917186830691882
31
0
0
LINE
5
131
100
AcDbEntity
8
0
100
AcDbLine
10
-14.427878441865714
20
43.33972199040501
30
0
11
-30.407051199743769
21
42.128304561107399
31
0
0
LINE
5
132
100
AcDbEntity
8
0
100
AcDbLine
10
-84.548495096144478
20
7.5163780097470063
30
0
11
-82.129686371340611
21
-12.429918524724277
31
0
0
LINE
5
133
100
AcDbEntity
8
0
100
AcDbLine
10
-82.129686371340611
20
-12.429918524724277
30
0
11
-66.615138257130127
21
-25.184667214772325
31
0
0
LINE
5
134
100
AcDbEntity
8
0
100
AcDbLine
10
-66.615138257130127
20
-25.184667214772325
30
0
11
-50.280109233033492
21
-32.643584577373524
31
0
0
LINE
5
135
100
AcDbEntity
8
0
100
AcDbLine
10
-37.972895584741508
20
-48.083543517957999
30
0
11
-50.280109233033492
21
-32.643584577373524
31
0
0
LINE
5
136
100
AcDbEntity
8
0
100
AcDbLine
10
-19.623958872742548
20
-56.661298484949398
30
0
11
-37.972895584741508
21
-48.083543517957999
31
0
0
LINE
5
137
100
AcDbEntity
8
0
100
AcDbLine
10
-19.623958872742548
20
-56.661298484949398
30
0
11
-4.4077674530360955
21
-63.598091632168504
31
0
0
LINE
5
138
100
AcDbEntity
8
0
100
AcDbLine
10
-4.4077674530360955
20
-63.598091632168504
30
0
11
12.076439918312554
21
-67.625907007973154
31
0
0
LINE
5
139
100
AcDbEntity
8
0
100
AcDbLine
10
12.076439918312554
20
-67.625907007973154
30
0
11
26.099204560002811
21
-76.0544836277125
31
0
0
LINE
5
140
100
AcDbEntity
8
0
100
AcDbLine
10
32.886819359969898
20
-88.510875623256524
30
0
11
26.099204560002811
21
-76.0544836277125
31
0
0
LINE
5
141
100
AcDbEntity
8
0
100
AcDbLine
10
-93.43813288358993
20
85.593968205802312
30
0
11
-107.61075582391098
21
88.253949580647273
31
0
0
LINE
5
142
100
AcDbEntity
8
0
100
AcDbLine
10
-107.61075582391098
20
88.253949580647273
30
0
11
-124.27420521464981
21
94.86521506722778
31
0
0
LINE
5
143
100
AcDbEntity
8
0
100
AcDbLine
10
-124.27420521464981
20
94.86521506722778
30
0
11
-130.88330890826822
21
109.2636195426108
31
0
0
LINE
5
144
100
AcDbEntity
8
0
100
AcDbLine
10
-130.88330890826822
20
109.2636195426108
30
0
11
-134.89597900796514
21
125.13727037817648
31
0
0
LINE
5
145
100
AcDbEntity
8
0
100
AcDbLine
10
-134.89597900796514
20
125.13727037817648
30
0
11
-138.37756041799628
21
139.29963543593027
31
0
0
ENDSEC
0
SECTION
2
OBJECTS
0
DICTIONARY
5
C
100
AcDbDictionary
3
ACAD_GROUP
350
D
3
ACAD_MLINESTYLE
350
17
0
DICTIONARY
5
D
100
AcDbDictionary
0
DICTIONARY
5
1A
330
C
100
AcDbDictionary
0
DICTIONARY
5
17
100
AcDbDictionary
0
ENDSEC
0
EOF
