0
SECTION
2
HEADER
9
$INSUNITS
70
4
9
$ACADVER
1
AC1014
9
$HANDSEED
5
FFFF
0
ENDSEC
0
SECTION
2
TABLES
0
TABLE
2
VPORT
5
8
100
AcDbSymbolTable
0
ENDTAB
0
TABLE
2
LTYPE
5
5
100
AcDbSymbolTable
0
LTYPE
5
14
100
AcDbSymbolTableRecord
100
AcDbLinetypeTableRecord
2
BYBLOCK
70
0
0
LTYPE
5
15
100
AcDbSymbolTableRecord
100
AcDbLinetypeTableRecord
2
BYLAYER
70
0
0
ENDTAB
0
TABLE
2
LAYER
5
2
100
AcDbSymbolTable
70
2
0
LAYER
5
50
100
AcDbSymbolTableRecord
100
AcDbLayerTableRecord
2
0
70
0
6
CONTINUOUS
0
ENDTAB
0
TABLE
2
STYLE
5
3
100
AcDbSymbolTable
70
1
0
STYLE
5
11
100
AcDbSymbolTableRecord
100
AcDbTextStyleTableRecord
2
STANDARD
70
0
0
ENDTAB
0
TABLE
2
VIEW
5
6
100
AcDbSymbolTable
70
0
0
ENDTAB
0
TABLE
2
UCS
5
7
100
AcDbSymbolTable
70
0
0
ENDTAB
0
TABLE
2
APPID
5
9
100
AcDbSymbolTable
70
2
0
APPID
5
12
100
AcDbSymbolTableRecord
100
AcDbRegAppTableRecord
2
ACAD
70
0
0
ENDTAB
0
TABLE
2
DIMSTYLE
5
A
100
AcDbSymbolTable
70
1
0
ENDTAB
0
TABLE
2
BLOCK_RECORD
5
1
100
AcDbSymbolTable
70
1
0
BLOCK_RECORD
5
1F
100
AcDbSymbolTableRecord
100
AcDbBlockTableRecord
2
*MODEL_SPACE
0
BLOCK_RECORD
5
1B
100
AcDbSymbolTableRecord
100
AcDbBlockTableRecord
2
*PAPER_SPACE
0
ENDTAB
0
ENDSEC
0
SECTION
2
BLOCKS
0
BLOCK
5
20
100
AcDbEntity
100
AcDbBlockBegin
2
*MODEL_SPACE
0
ENDBLK
5
21
100
AcDbEntity
100
AcDbBlockEnd
0
BLOCK
5
1C
100
AcDbEntity
100
AcDbBlockBegin
2
*PAPER_SPACE
0
ENDBLK
5
1D
100
AcDbEntity
100
AcDbBlockEnd
0
ENDSEC
0
SECTION
2
ENTITIES
0
LINE
5
100
100
AcDbEntity
8
0
100
AcDbLine
10
133.37942218951892
20
-35.193588676705616
30
0
11
148.46193777294448
21
-29.371929742965804
31
0
0
LINE
5
101
100
AcDbEntity
8
0
100
AcDbLine
10
114.56913009554803
20
-39.756085056945366
30
0
11
133.37942218951892
21
-35.193588676705616
31
0
0
LINE
5
102
100
AcDbEntity
8
0
100
AcDbLine
10
96.237911465049649
20
-39.840418217614953
30
0
11
114.56913009554803
21
-39.756085056945366
31
0
0
LINE
5
103
100
AcDbEntity
8
0
100
AcDbLine
10
72.153823396892406
20
-44.528140577610571
30
0
11
96.237911465049649
21
-39.840418217614953
31
0
0
LINE
5
104
100
AcDbEntity
8
0
100
AcDbLine
10
72.153823396892406
20
-44.528140577610571
30
0
11
50.38633774499101
21
-48.485599026055503
31
0
0
LINE
5
105
100
AcDbEntity
8
0
100
AcDbLine
10
50.38633774499101
20
-48.485599026055503
30
0
11
31.813702804672008
21
-39.633051754679578
31
0
0
LINE
5
106
100
AcDbEntity
8
0
100
AcDbLine
10
31.813702804672008
20
-39.633051754679578
30
0
11
18.989482272860542
21
-39.219367221395338
31
0
0
LINE
5
107
100
AcDbEntity
8
0
100
AcDbLine
10
22.562212333042634
20
-55.804356237608971
30
0
11
18.989482272860542
21
-39.219367221395338
31
0
0
LINE
5
108
100
AcDbEntity
8
0
100
AcDbLine
10
26.099204560002811
20
-76.0544836277125
30
0
11
22.562212333042634
21
-55.804356237608971
31
0
0
LINE
5
109
100
AcDbEntity
8
0
100
AcDbLine
10
32.886819359969898
20
-88.510875623256524
30
0
11
26.099204560002811
21
-76.0544836277125
31
0
0
LINE
5
110
100
AcDbEntity
8
0
100
AcDbLine
10
-16.627237750609027
20
-47.916965743926156
30
0
11
-37.972895584741508
21
-48.083543517957999
31
0
0
LINE
5
111
100
AcDbEntity
8
0
100
AcDbLine
10
-70.532603460616684
20
-49.745301445367353
30
0
11
-37.972895584741508
21
-48.083543517957999
31
0
0
LINE
5
112
100
AcDbEntity
8
0
100
AcDbLine
10
-50.280109233033492
20
-32.643584577373524
30
0
11
-70.532603460616684
21
-49.745301445367353
31
0
0
LINE
5
113
100
AcDbEntity
8
0
100
AcDbLine
10
-50.280109233033492
20
-32.643584577373524
30
0
11
-35.096680171385614
21
-21.856182454710826
31
0
0
LINE
5
114
100
AcDbEntity
8
0
100
AcDbLine
10
-35.096680171385614
20
-21.856182454710826
30
0
11
-21.967332780842135
21
-10.956346885203034
31
0
0
LINE
5
115
100
AcDbEntity
8
0
100
AcDbLine
10
-21.967332780842135
20
-10.956346885203034
30
0
11
-2.9917099484717635
21
-4.6146243720348679
31
0
0
LINE
5
116
100
AcDbEntity
8
0
100
AcDbLine
10
-2.9917099484717635
20
-4.6146243720348679
30
0
11
14.69575049841132
21
3.1143499408888387
31
0
0
LINE
5
117
100
AcDbEntity
8
0
100
AcDbLine
10
18.989482272860542
20
-39.219367221395338
30
0
11
20.321902505020375
21
-24.156602783681997
31
0
0
LINE
5
118
100
AcDbEntity
8
0
100
AcDbLine
10
18.989482272860542
20
-39.219367221395338
30
0
11
3.0814315838392803
21
-44.785304578310573
31
0
0
LINE
5
119
100
AcDbEntity
8
0
100
AcDbLine
10
3.0814315838392803
20
-44.785304578310573
30
0
11
-16.627237750609027
21
-47.916965743926156
31
0
0
LINE
5
120
100
AcDbEntity
8
0
100
AcDbLine
10
20.321902505020375
20
-24.156602783681997
30
0
11
24.555147218102455
21
-9.4204609640451196
31
0
0
LINE
5
121
100
AcDbEntity
8
0
100
AcDbLine
10
24.555147218102455
20
-9.4204609640451196
30
0
11
30.550056781331733
21
5.5420405904610259
31
0
0
LINE
5
122
100
AcDbEntity
8
0
100
AcDbLine
10
30.550056781331733
20
5.5420405904610259
30
0
11
31.939322810541437
21
18.456732192008445
31
0
0
LINE
5
123
100
AcDbEntity
8
0
100
AcDbLine
10
31.939322810541437
20
18.456732192008445
30
0
11
14.69575049841132
21
3.1143499408888387
31
0
0
LINE
5
124
100
AcDbEntity
8
0
100
AcDbLine
10
47.154893681582386
20
28.879997276894763
30
0
11
31.939322810541437
21
18.456732192008445
31
0
0
LINE
5
125
100
AcDbEntity
8
0
100
AcDbLine
10
47.154893681582386
20
28.879997276894763
30
0
11
64.882935459863504
21
28.423348115116276
31
0
0
LINE
5
126
100
AcDbEntity
8
0
100
AcDbLine
10
68.256769061612303
20
46.623493792881035
30
0
11
64.882935459863504
21
28.423348115116276
31
0
0
LINE
5
127
100
AcDbEntity
8
0
100
AcDbLine
10
27.266824669040673
20
31.515765459279809
30
0
11
47.154893681582386
21
28.879997276894763
31
0
0
LINE
5
128
100
AcDbEntity
8
0
100
AcDbLine
10
5.6066583769467204
20
35.471277354395752
30
0
11
27.266824669040673
21
31.515765459279809
31
0
0
LINE
5
129
100
AcDbEntity
8
0
100
AcDbLine
10
5.6066583769467204
20
35.471277354395752
30
0
11
17.443937257511983
21
46.737459446863561
31
0
0
LINE
5
130
100
AcDbEntity
8
0
100
AcDbLine
10
17.443937257511983
20
46.737459446863561
30
0
11
26.996828985687458
21
55.04432181919006
31
0
0
LINE
5
131
100
AcDbEntity
8
0
100
AcDbLine
10
26.996828985687458
20
55.04432181919006
30
0
11
41.653364498041469
21
67.287613516509538
31
0
0
LINE
5
132
100
AcDbEntity
8
0
100
AcDbLine
10
71.163760094420383
20
62.521101003550243
30
0
11
73.246908960612345
21
76.726695645247688
31
0
0
LINE
5
133
100
AcDbEntity
8
0
100
AcDbLine
10
71.163760094420383
20
62.521101003550243
30
0
11
68.256769061612303
21
46.623493792881035
31
0
0
LINE
5
134
100
AcDbEntity
8
0
100
AcDbLine
10
-10.735939609720608
20
35.955844326114786
30
0
11
5.6066583769467204
21
35.471277354395752
31
0
0
LINE
5
135
100
AcDbEntity
8
0
100
AcDbLine
10
-28.157275973905342
20
28.860399383085905
30
0
11
-10.735939609720608
21
35.955844326114786
31
0
0
LINE
5
136
100
AcDbEntity
8
0
100
AcDbLine
10
-47.193835577153564
20
24.995400918184004
30
0
11
-28.157275973905342
21
28.860399383085905
31
0
0
LINE
5
137
100
AcDbEntity
8
0
100
AcDbLine
10
-65.422783560870045
20
24.995400918184004
30
0
11
-47.193835577153564
21
24.995400918184004
31
0
0
LINE
5
138
100
AcDbEntity
8
0
100
AcDbLine
10
-87.343670376731637
20
18.707567594686864
30
0
11
-65.422783560870045
21
24.995400918184004
31
0
0
LINE
5
139
100
AcDbEntity
8
0
100
AcDbLine
10
134.40042146472928
20
83.535238889593245
30
0
11
113.88575789322974
21
81.729034048198997
31
0
0
LINE
5
140
100
AcDbEntity
8
0
100
AcDbLine
10
113.88575789322974
20
81.729034048198997
30
0
11
94.964417558340358
21
80.065194305049232
31
0
0
LINE
5
141
100
AcDbEntity
8
0
100
AcDbLine
10
94.964417558340358
20
80.065194305049232
30
0
11
73.246908960612345
21
76.726695645247688
31
0
0
LINE
5
142
100
AcDbEntity
8
0
100
AcDbLine
10
73.246908960612345
20
76.726695645247688
30
0
11
57.148528956384375
21
72.873168440656201
31
0
0
LINE
5
143
100
AcDbEntity
8
0
100
AcDbLine
10
57.148528956384375
20
72.873168440656201
30
0
11
41.653364498041469
21
67.287613516509538
31
0
0
LINE
5
144
100
AcDbEntity
8
0
100
AcDbLine
10
134.40042146472928
20
83.535238889593245
30
0
11
154.01482417054467
21
93.153109417044519
31
0
0
LINE
5
145
100
AcDbEntity
8
0
100
AcDbLine
10
75.252295755337869
20
89.278413581123715
30
0
11
73.246908960612345
21
76.726695645247688
31
0
0
LINE
5
146
100
AcDbEntity
8
0
100
AcDbLine
10
75.764358562104192
20
105.55658260305933
30
0
11
75.252295755337869
21
89.278413581123715
31
0
0
LINE
5
147
100
AcDbEntity
8
0
100
AcDbLine
10
73.209286340859848
20
121.5683685228572
30
0
11
75.764358562104192
21
105.55658260305933
31
0
0
LINE
5
148
100
AcDbEntity
8
0
100
AcDbLine
10
71.091767854132158
20
137.91986575374452
30
0
11
73.209286340859848
21
121.5683685228572
31
0
0
ENDSEC
0
SECTION
2
OBJECTS
0
DICTIONARY
5
C
100
AcDbDictionary
3
ACAD_GROUP
350
D
3
ACAD_MLINESTYLE
350
17
0
DICTIONARY
5
D
100
AcDbDictionary
0
DICTIONARY
5
1A
330
C
100
AcDbDictionary
0
DICTIONARY
5
17
100
AcDbDictionary
0
ENDSEC
0
EOF
