0
SECTION
2
HEADER
9
$INSUNITS
70
4
9
$ACADVER
1
AC1014
9
$HANDSEED
5
FFFF
0
ENDSEC
0
SECTION
2
TABLES
0
TABLE
2
VPORT
5
8
100
AcDbSymbolTable
0
ENDTAB
0
TABLE
2
LTYPE
5
5
100
AcDbSymbolTable
0
LTYPE
5
14
100
AcDbSymbolTableRecord
100
AcDbLinetypeTableRecord
2
BYBLOCK
70
0
0
LTYPE
5
15
100
AcDbSymbolTableRecord
100
AcDbLinetypeTableRecord
2
BYLAYER
70
0
0
ENDTAB
0
TABLE
2
LAYER
5
2
100
AcDbSymbolTable
70
2
0
LAYER
5
50
100
AcDbSymbolTableRecord
100
AcDbLayerTableRecord
2
0
70
0
6
CONTINUOUS
0
ENDTAB
0
TABLE
2
STYLE
5
3
100
AcDbSymbolTable
70
1
0
STYLE
5
11
100
AcDbSymbolTableRecord
100
AcDbTextStyleTableRecord
2
STANDARD
70
0
0
ENDTAB
0
TABLE
2
VIEW
5
6
100
AcDbSymbolTable
70
0
0
ENDTAB
0
TABLE
2
UCS
5
7
100
AcDbSymbolTable
70
0
0
ENDTAB
0
TABLE
2
APPID
5
9
100
AcDbSymbolTable
70
2
0
APPID
5
12
100
AcDbSymbolTableRecord
100
AcDbRegAppTableRecord
2
ACAD
70
0
0
ENDTAB
0
TABLE
2
DIMSTYLE
5
A
100
AcDbSymbolTable
70
1
0
ENDTAB
0
TABLE
2
BLOCK_RECORD
5
1
100
AcDbSymbolTable
70
1
0
BLOCK_RECORD
5
1F
100
AcDbSymbolTableRecord
100
AcDbBlockTableRecord
2
*MODEL_SPACE
0
BLOCK_RECORD
5
1B
100
AcDbSymbolTableRecord
100
AcDbBlockTableRecord
2
*PAPER_SPACE
0
ENDTAB
0
ENDSEC
0
SECTION
2
BLOCKS
0
BLOCK
5
20
100
AcDbEntity
100
AcDbBlockBegin
2
*MODEL_SPACE
0
ENDBLK
5
21
100
AcDbEntity
100
AcDbBlockEnd
0
BLOCK
5
1C
100
AcDbEntity
100
AcDbBlockBegin
2
*PAPER_SPACE
0
ENDBLK
5
1D
100
AcDbEntity
100
AcDbBlockEnd
0
ENDSEC
0
SECTION
2
ENTITIES
0
LINE
5
100
100
AcDbEntity
8
0
100
AcDbLine
10
-67.871839575943568
20
5.8382239951355945
30
0
11
-84.548495096144478
21
7.5163780097470063
31
0
0
LINE
5
101
100
AcDbEntity
8
0
100
AcDbLine
10
-44.797221875036612
20
9.194532024358427
30
0
11
-67.871839575943568
21
5.8382239951355945
31
0
0
LINE
5
102
100
AcDbEntity
8
0
100
AcDbLine
10
-24.969308400044767
20
10.423538575137446
30
0
11
-44.797221875036612
21
9.194532024358427
31
0
0
LINE
5
103
100
AcDbEntity
8
0
100
AcDbLine
10
-5.5604699661185375
20
12.406446136988221
30
0
11
-24.969308400044767
21
10.423538575137446
31
0
0
LINE
5
104
100
AcDbEntity
8
0
100
AcDbLine
10
14.267695224096242
20
11.028658223468764
30
0
11
-5.5604699661185375
21
12.406446136988221
31
0
0
LINE
5
105
100
AcDbEntity
8
0
100
AcDbLine
10
31.939322810541437
20
18.456732192008445
30
0
11
14.267695224096242
21
11.028658223468764
31
0
0
LINE
5
106
100
AcDbEntity
8
0
100
AcDbLine
10
31.939322810541437
20
18.456732192008445
30
0
11
50.210594706040808
21
17.165734750229213
31
0
0
LINE
5
107
100
AcDbEntity
8
0
100
AcDbLine
10
50.210594706040808
20
17.165734750229213
30
0
11
64.882935459863504
21
28.423348115116276
31
0
0
LINE
5
108
100
AcDbEntity
8
0
100
AcDbLine
10
70.747446985516461
20
16.620319571401861
30
0
11
64.882935459863504
21
28.423348115116276
31
0
0
LINE
5
109
100
AcDbEntity
8
0
100
AcDbLine
10
64.882935459863504
20
28.423348115116276
30
0
11
83.093158775471409
21
23.763135122608752
31
0
0
LINE
5
110
100
AcDbEntity
8
0
100
AcDbLine
10
72.666296690368483
20
3.1073903599548225
30
0
11
70.747446985516461
21
16.620319571401861
31
0
0
LINE
5
111
100
AcDbEntity
8
0
100
AcDbLine
10
72.666296690368483
20
3.1073903599548225
30
0
11
78.873101136795626
21
-9.0656447171464656
31
0
0
LINE
5
112
100
AcDbEntity
8
0
100
AcDbLine
10
99.360808828082199
20
-13.261588533096997
30
0
11
78.873101136795626
21
-9.0656447171464656
31
0
0
LINE
5
113
100
AcDbEntity
8
0
100
AcDbLine
10
116.89040018374016
20
-17.18373454418029
30
0
11
99.360808828082199
21
-13.261588533096997
31
0
0
LINE
5
114
100
AcDbEntity
8
0
100
AcDbLine
10
116.89040018374016
20
-17.18373454418029
30
0
11
126.055070154323
21
-29.156392988022382
31
0
0
LINE
5
115
100
AcDbEntity
8
0
100
AcDbLine
10
133.58603066440085
20
-14.721109257995629
30
0
11
116.89040018374016
21
-17.18373454418029
31
0
0
LINE
5
116
100
AcDbEntity
8
0
100
AcDbLine
10
126.055070154323
20
-29.156392988022382
30
0
11
133.58603066440085
21
-14.721109257995629
31
0
0
LINE
5
117
100
AcDbEntity
8
0
100
AcDbLine
10
148.46193777294448
20
-29.371929742965804
30
0
11
126.055070154323
21
-29.156392988022382
31
0
0
LINE
5
118
100
AcDbEntity
8
0
100
AcDbLine
10
114.56913009554803
20
-39.756085056945366
30
0
11
126.055070154323
21
-29.156392988022382
31
0
0
LINE
5
119
100
AcDbEntity
8
0
100
AcDbLine
10
114.56913009554803
20
-39.756085056945366
30
0
11
98.445412253251945
21
-52.048209886747884
31
0
0
LINE
5
120
100
AcDbEntity
8
0
100
AcDbLine
10
98.445412253251945
20
-52.048209886747884
30
0
11
88.309164092044767
21
-69.249256015899746
31
0
0
LINE
5
121
100
AcDbEntity
8
0
100
AcDbLine
10
133.58603066440085
20
-14.721109257995629
30
0
11
135.31536266161865
21
0.95816751677894718
31
0
0
LINE
5
122
100
AcDbEntity
8
0
100
AcDbLine
10
135.31536266161865
20
0.95816751677894718
30
0
11
128.53781787296575
21
16.596927035785441
31
0
0
LINE
5
123
100
AcDbEntity
8
0
100
AcDbLine
10
128.53781787296575
20
16.596927035785441
30
0
11
132.83295298945737
21
32.2615374606372
31
0
0
LINE
5
124
100
AcDbEntity
8
0
100
AcDbLine
10
118.85270927695527
20
27.62952900167566
30
0
11
132.83295298945737
21
32.2615374606372
31
0
0
LINE
5
125
100
AcDbEntity
8
0
100
AcDbLine
10
99.145618742464322
20
24.597668919446281
30
0
11
118.85270927695527
21
27.62952900167566
31
0
0
LINE
5
126
100
AcDbEntity
8
0
100
AcDbLine
10
83.093158775471409
20
23.763135122608752
30
0
11
99.145618742464322
21
24.597668919446281
31
0
0
LINE
5
127
100
AcDbEntity
8
0
100
AcDbLine
10
79.838632158652985
20
-86.991739276557411
30
0
11
88.309164092044767
21
-69.249256015899746
31
0
0
LINE
5
128
100
AcDbEntity
8
0
100
AcDbLine
10
68.277846377004124
20
-101.0159178667392
30
0
11
79.838632158652985
21
-86.991739276557411
31
0
0
LINE
5
129
100
AcDbEntity
8
0
100
AcDbLine
10
68.277846377004124
20
-101.0159178667392
30
0
11
59.877816976733072
21
-112.76340946289885
31
0
0
LINE
5
130
100
AcDbEntity
8
0
100
AcDbLine
10
59.877816976733072
20
-112.76340946289885
30
0
11
47.167052968944461
21
-122.89646608449257
31
0
0
LINE
5
131
100
AcDbEntity
8
0
100
AcDbLine
10
71.358882287016385
20
-117.01626913678734
30
0
11
68.277846377004124
21
-101.0159178667392
31
0
0
LINE
5
132
100
AcDbEntity
8
0
100
AcDbLine
10
71.358882287016385
20
-117.01626913678734
30
0
11
75.931637320058542
21
-137.00741614021521
31
0
0
LINE
5
133
100
AcDbEntity
8
0
100
AcDbLine
10
47.167052968944461
20
-122.89646608449257
30
0
11
34.160000755846085
21
-135.0739113227236
31
0
0
LINE
5
134
100
AcDbEntity
8
0
100
AcDbLine
10
34.160000755846085
20
-135.0739113227236
30
0
11
23.819542390535538
21
-149.56240456237077
31
0
0
ENDSEC
0
SECTION
2
OBJECTS
0
DICTIONARY
5
C
100
AcDbDictionary
3
ACAD_GROUP
350
D
3
ACAD_MLINESTYLE
350
17
0
DICTIONARY
5
D
100
AcDbDictionary
0
DICTIONARY
5
1A
330
C
100
AcDbDictionary
0
DICTIONARY
5
17
100
AcDbDictionary
0
ENDSEC
0
EOF
