0
SECTION
2
HEADER
9
$INSUNITS
70
4
9
$ACADVER
1
AC1014
9
$HANDSEED
5
FFFF
0
ENDSEC
0
SECTION
2
TABLES
0
TABLE
2
VPORT
5
8
100
AcDbSymbolTable
0
ENDTAB
0
TABLE
2
LTYPE
5
5
100
AcDbSymbolTable
0
LTYPE
5
14
100
AcDbSymbolTableRecord
100
AcDbLinetypeTableRecord
2
BYBLOCK
70
0
0
LTYPE
5
15
100
AcDbSymbolTableRecord
100
AcDbLinetypeTableRecord
2
BYLAYER
70
0
0
ENDTAB
0
TABLE
2
LAYER
5
2
100
AcDbSymbolTable
70
2
0
LAYER
5
50
100
AcDbSymbolTableRecord
100
AcDbLayerTableRecord
2
0
70
0
6
CONTINUOUS
0
ENDTAB
0
TABLE
2
STYLE
5
3
100
AcDbSymbolTable
70
1
0
STYLE
5
11
100
AcDbSymbolTableRecord
100
AcDbTextStyleTableRecord
2
STANDARD
70
0
0
ENDTAB
0
TABLE
2
VIEW
5
6
100
AcDbSymbolTable
70
0
0
ENDTAB
0
TABLE
2
UCS
5
7
100
AcDbSymbolTable
70
0
0
ENDTAB
0
TABLE
2
APPID
5
9
100
AcDbSymbolTable
70
2
0
APPID
5
12
100
AcDbSymbolTableRecord
100
AcDbRegAppTableRecord
2
ACAD
70
0
0
ENDTAB
0
TABLE
2
DIMSTYLE
5
A
100
AcDbSymbolTable
70
1
0
ENDTAB
0
TABLE
2
BLOCK_RECORD
5
1
100
AcDbSymbolTable
70
1
0
BLOCK_RECORD
5
1F
100
AcDbSymbolTableRecord
100
AcDbBlockTableRecord
2
*MODEL_SPACE
0
BLOCK_RECORD
5
1B
100
AcDbSymbolTableRecord
100
AcDbBlockTableRecord
2
*PAPER_SPACE
0
ENDTAB
0
ENDSEC
0
SECTION
2
BLOCKS
0
BLOCK
5
20
100
AcDbEntity
100
AcDbBlockBegin
2
*MODEL_SPACE
0
ENDBLK
5
21
100
AcDbEntity
100
AcDbBlockEnd
0
BLOCK
5
1C
100
AcDbEntity
100
AcDbBlockBegin
2
*PAPER_SPACE
0
ENDBLK
5
1D
100
AcDbEntity
100
AcDbBlockEnd
0
ENDSEC
0
SECTION
2
ENTITIES
0
LINE
5
100
100
AcDbEntity
8
0
100
AcDbLine
10
300.44504732009432
20
-113.55974709401238
30
0
11
301.33547640322774
21
-125.75862553294047
31
0
0
LINE
5
101
100
AcDbEntity
8
0
100
AcDbLine
10
315.04808428348269
20
-125.75862553294047
30
0
11
300.44504732009432
21
-113.55974709401238
31
0
0
LINE
5
102
100
AcDbEntity
8
0
100
AcDbLine
10
330.09633578843773
20
-131.10120003174109
30
0
11
315.04808428348269
21
-125.75862553294047
31
0
0
LINE
5
103
100
AcDbEntity
8
0
100
AcDbLine
10
345.85693055989958
20
-135.8204741723483
30
0
11
330.09633578843773
21
-131.10120003174109
31
0
0
LINE
5
104
100
AcDbEntity
8
0
100
AcDbLine
10
348.0830032677332
20
-150.51255404405001
30
0
11
345.85693055989958
21
-135.8204741723483
31
0
0
LINE
5
105
100
AcDbEntity
8
0
100
AcDbLine
10
300.44504732009432
20
-113.55974709401238
30
0
11
297.59567425406726
21
-97.175851964357136
31
0
0
LINE
5
106
100
AcDbEntity
8
0
100
AcDbLine
10
297.59567425406726
20
-97.175851964357136
30
0
11
300.53409022840759
21
-84.086544442295619
31
0
0
LINE
5
107
100
AcDbEntity
8
0
100
AcDbLine
10
283.61593764887232
20
-90.675719657483072
30
0
11
300.53409022840759
21
-84.086544442295619
31
0
0
LINE
5
108
100
AcDbEntity
8
0
100
AcDbLine
10
268.12247160235052
20
-92.634663640376615
30
0
11
283.61593764887232
21
-90.675719657483072
31
0
0
LINE
5
109
100
AcDbEntity
8
0
100
AcDbLine
10
243.90280054112108
20
-92.100406190496614
30
0
11
268.12247160235052
21
-92.634663640376615
31
0
0
LINE
5
110
100
AcDbEntity
8
0
100
AcDbLine
10
252.45091973920208
20
-86.045488425189234
30
0
11
268.12247160235052
21
-92.634663640376615
31
0
0
LINE
5
111
100
AcDbEntity
8
0
100
AcDbLine
10
252.45091973920208
20
-86.045488425189234
30
0
11
243.90280054112108
21
-92.100406190496614
31
0
0
LINE
5
112
100
AcDbEntity
8
0
100
AcDbLine
10
240.43012711690068
20
-68.682121304087218
30
0
11
252.45091973920208
21
-86.045488425189234
31
0
0
LINE
5
113
100
AcDbEntity
8
0
100
AcDbLine
10
216.57383834993931
20
-66.251717221612623
30
0
11
240.43012711690068
21
-68.682121304087218
31
0
0
LINE
5
114
100
AcDbEntity
8
0
100
AcDbLine
10
300.53409022840759
20
-84.086544442295619
30
0
11
297.32854552912721
21
-70.462979470354043
31
0
0
LINE
5
115
100
AcDbEntity
8
0
100
AcDbLine
10
297.32854552912721
20
-70.462979470354043
30
0
11
298.42134207426807
21
-55.785461665472923
31
0
0
LINE
5
116
100
AcDbEntity
8
0
100
AcDbLine
10
298.42134207426807
20
-55.785461665472923
30
0
11
314.98773959623162
21
-39.714933219767332
31
0
0
LINE
5
117
100
AcDbEntity
8
0
100
AcDbLine
10
314.98773959623162
20
-39.714933219767332
30
0
11
318.7789287859265
21
-23.003506893326158
31
0
0
LINE
5
118
100
AcDbEntity
8
0
100
AcDbLine
10
318.7789287859265
20
-23.003506893326158
30
0
11
316.06468781794484
21
-9.4323020534178958
31
0
0
LINE
5
119
100
AcDbEntity
8
0
100
AcDbLine
10
306.4757465199732
20
-3.4940148573815177
30
0
11
316.06468781794484
21
-9.4323020534178958
31
0
0
LINE
5
120
100
AcDbEntity
8
0
100
AcDbLine
10
306.4757465199732
20
-3.4940148573815177
30
0
11
293.33882023494203
21
-8.9589005118356564
31
0
0
LINE
5
121
100
AcDbEntity
8
0
100
AcDbLine
10
293.33882023494203
20
-8.9589005118356564
30
0
11
286.70148988278277
21
-0.62102839913507735
31
0
0
LINE
5
122
100
AcDbEntity
8
0
100
AcDbLine
10
293.33882023494203
20
-8.9589005118356564
30
0
11
278.54107303755683
21
-18.023047655533134
31
0
0
LINE
5
123
100
AcDbEntity
8
0
100
AcDbLine
10
278.54107303755683
20
-18.023047655533134
30
0
11
265.21888467751774
21
-25.906747729353725
31
0
0
LINE
5
124
100
AcDbEntity
8
0
100
AcDbLine
10
265.21888467751774
20
-25.906747729353725
30
0
11
253.23734691826735
21
-31.699370136535279
31
0
0
LINE
5
125
100
AcDbEntity
8
0
100
AcDbLine
10
253.23734691826735
20
-31.699370136535279
30
0
11
241.17992327595351
21
-35.131098403963072
31
0
0
LINE
5
126
100
AcDbEntity
8
0
100
AcDbLine
10
218.1762179194881
20
-37.988282587091618
30
0
11
241.17992327595351
21
-35.131098403963072
31
0
0
LINE
5
127
100
AcDbEntity
8
0
100
AcDbLine
10
202.75060862283743
20
-49.143525468285311
30
0
11
218.1762179194881
21
-37.988282587091618
31
0
0
LINE
5
128
100
AcDbEntity
8
0
100
AcDbLine
10
308.49701473736383
20
6.812940962531469
30
0
11
306.4757465199732
21
-3.4940148573815177
31
0
0
LINE
5
129
100
AcDbEntity
8
0
100
AcDbLine
10
317.01615969810712
20
17.150401448492708
30
0
11
308.49701473736383
21
6.812940962531469
31
0
0
LINE
5
130
100
AcDbEntity
8
0
100
AcDbLine
10
318.77592877015411
20
28.68160049274271
30
0
11
317.01615969810712
21
17.150401448492708
31
0
0
LINE
5
131
100
AcDbEntity
8
0
100
AcDbLine
10
323.3987540812584
20
40.36364945363151
30
0
11
318.77592877015411
21
28.68160049274271
31
0
0
LINE
5
132
100
AcDbEntity
8
0
100
AcDbLine
10
319.90391534475242
20
52.698182655815735
30
0
11
323.3987540812584
21
40.36364945363151
31
0
0
ENDSEC
0
SECTION
2
OBJECTS
0
DICTIONARY
5
C
100
AcDbDictionary
3
ACAD_GROUP
350
D
3
ACAD_MLINESTYLE
350
17
0
DICTIONARY
5
D
100
AcDbDictionary
0
DICTIONARY
5
1A
330
C
100
AcDbDictionary
0
DICTIONARY
5
17
100
AcDbDictionary
0
ENDSEC
0
EOF
