0
SECTION
2
HEADER
9
$INSUNITS
70
4
9
$ACADVER
1
AC1014
9
$HANDSEED
5
FFFF
0
ENDSEC
0
SECTION
2
TABLES
0
TABLE
2
VPORT
5
8
100
AcDbSymbolTable
0
ENDTAB
0
TABLE
2
LTYPE
5
5
100
AcDbSymbolTable
0
LTYPE
5
14
100
AcDbSymbolTableRecord
100
AcDbLinetypeTableRecord
2
BYBLOCK
70
0
0
LTYPE
5
15
100
AcDbSymbolTableRecord
100
AcDbLinetypeTableRecord
2
BYLAYER
70
0
0
ENDTAB
0
TABLE
2
LAYER
5
2
100
AcDbSymbolTable
70
2
0
LAYER
5
50
100
AcDbSymbolTableRecord
100
AcDbLayerTableRecord
2
0
70
0
6
CONTINUOUS
0
ENDTAB
0
TABLE
2
STYLE
5
3
100
AcDbSymbolTable
70
1
0
STYLE
5
11
100
AcDbSymbolTableRecord
100
AcDbTextStyleTableRecord
2
STANDARD
70
0
0
ENDTAB
0
TABLE
2
VIEW
5
6
100
AcDbSymbolTable
70
0
0
ENDTAB
0
TABLE
2
UCS
5
7
100
AcDbSymbolTable
70
0
0
ENDTAB
0
TABLE
2
APPID
5
9
100
AcDbSymbolTable
70
2
0
APPID
5
12
100
AcDbSymbolTableRecord
100
AcDbRegAppTableRecord
2
ACAD
70
0
0
ENDTAB
0
TABLE
2
DIMSTYLE
5
A
100
AcDbSymbolTable
70
1
0
ENDTAB
0
TABLE
2
BLOCK_RECORD
5
1
100
AcDbSymbolTable
70
1
0
BLOCK_RECORD
5
1F
100
AcDbSymbolTableRecord
100
AcDbBlockTableRecord
2
*MODEL_SPACE
0
BLOCK_RECORD
5
1B
100
AcDbSymbolTableRecord
100
AcDbBlockTableRecord
2
*PAPER_SPACE
0
ENDTAB
0
ENDSEC
0
SECTION
2
BLOCKS
0
BLOCK
5
20
100
AcDbEntity
100
AcDbBlockBegin
2
*MODEL_SPACE
0
ENDBLK
5
21
100
AcDbEntity
100
AcDbBlockEnd
0
BLOCK
5
1C
100
AcDbEntity
100
AcDbBlockBegin
2
*PAPER_SPACE
0
ENDBLK
5
1D
100
AcDbEntity
100
AcDbBlockEnd
0
ENDSEC
0
SECTION
2
ENTITIES
0
LINE
5
100
100
AcDbEntity
8
0
100
AcDbLine
10
140.94683387959384
20
-126.10315413834545
30
0
11
163.16573333501665
21
-120.18202262120113
31
0
0
LINE
5
101
100
AcDbEntity
8
0
100
AcDbLine
10
140.94683387959384
20
-126.10315413834545
30
0
11
117.08643261743799
21
-123.46502623466728
31
0
0
LINE
5
102
100
AcDbEntity
8
0
100
AcDbLine
10
117.08643261743799
20
-123.46502623466728
30
0
11
96.626285097800618
21
-129.26890762275926
31
0
0
LINE
5
103
100
AcDbEntity
8
0
100
AcDbLine
10
96.626285097800618
20
-129.26890762275926
30
0
11
75.931637320058542
21
-137.00741614021521
31
0
0
LINE
5
104
100
AcDbEntity
8
0
100
AcDbLine
10
75.931637320058542
20
-137.00741614021521
30
0
11
79.038765739946157
21
-115.31614226552804
31
0
0
LINE
5
105
100
AcDbEntity
8
0
100
AcDbLine
10
79.038765739946157
20
-115.31614226552804
30
0
11
87.07039958003304
21
-99.194249520828137
31
0
0
LINE
5
106
100
AcDbEntity
8
0
100
AcDbLine
10
87.07039958003304
20
-99.194249520828137
30
0
11
97.894354393694357
21
-83.522425641733818
31
0
0
LINE
5
107
100
AcDbEntity
8
0
100
AcDbLine
10
59.457994188201546
20
-140.34904481820757
30
0
11
75.931637320058542
21
-137.00741614021521
31
0
0
LINE
5
108
100
AcDbEntity
8
0
100
AcDbLine
10
41.952380555492716
20
-144.37736096945
30
0
11
59.457994188201546
21
-140.34904481820757
31
0
0
LINE
5
109
100
AcDbEntity
8
0
100
AcDbLine
10
23.819542390535538
20
-149.56240456237077
30
0
11
41.952380555492716
21
-144.37736096945
31
0
0
LINE
5
110
100
AcDbEntity
8
0
100
AcDbLine
10
-0.56497690645753051
20
-147.99207707422906
30
0
11
23.819542390535531
21
-149.56240456237077
31
0
0
LINE
5
111
100
AcDbEntity
8
0
100
AcDbLine
10
-23.053251689468151
20
-142.57000291706046
30
0
11
-0.56497690645752829
21
-147.99207707422906
31
0
0
LINE
5
112
100
AcDbEntity
8
0
100
AcDbLine
10
-48.267377961328549
20
-140.49598547989217
30
0
11
-23.053251689468151
21
-142.57000291706046
31
0
0
LINE
5
113
100
AcDbEntity
8
0
100
AcDbLine
10
-71.348229154958688
20
-138.03679337582116
30
0
11
-48.267377961328549
21
-140.49598547989217
31
0
0
LINE
5
114
100
AcDbEntity
8
0
100
AcDbLine
10
-92.147661167703703
20
-123.54830013617402
30
0
11
-71.348229154958688
21
-138.03679337582116
31
0
0
LINE
5
115
100
AcDbEntity
8
0
100
AcDbLine
10
-112.44340323142208
20
-108.58574576803123
30
0
11
-92.147661167703703
21
-123.54830013617402
31
0
0
LINE
5
116
100
AcDbEntity
8
0
100
AcDbLine
10
-112.44340323142208
20
-108.58574576803123
30
0
11
-104.10595015479234
21
-91.268404998255704
31
0
0
LINE
5
117
100
AcDbEntity
8
0
100
AcDbLine
10
-104.10595015479234
20
-91.268404998255704
30
0
11
-101.30676878473416
21
-74.345369908652941
31
0
0
LINE
5
118
100
AcDbEntity
8
0
100
AcDbLine
10
-101.30676878473416
20
-74.345369908652941
30
0
11
-93.456163540551557
21
-59.944794899801622
31
0
0
LINE
5
119
100
AcDbEntity
8
0
100
AcDbLine
10
-93.456163540551557
20
-59.944794899801622
30
0
11
-70.532603460616684
21
-49.745301445367353
31
0
0
LINE
5
120
100
AcDbEntity
8
0
100
AcDbLine
10
-127.19855585584801
20
-100.20078955776511
30
0
11
-112.44340323142208
21
-108.58574576803123
31
0
0
LINE
5
121
100
AcDbEntity
8
0
100
AcDbLine
10
-148.73870838186741
20
-96.734217555640925
30
0
11
-127.19855585584801
21
-100.20078955776511
31
0
0
LINE
5
122
100
AcDbEntity
8
0
100
AcDbLine
10
-168.93576999324745
20
-100.74872008444072
30
0
11
-148.73870838186741
21
-96.734217555640925
31
0
0
LINE
5
123
100
AcDbEntity
8
0
100
AcDbLine
10
-189.15626977874072
20
-88.909085341618976
30
0
11
-168.93576999324745
21
-100.74872008444072
31
0
0
LINE
5
124
100
AcDbEntity
8
0
100
AcDbLine
10
-199.33303447341333
20
-70.085396396570928
30
0
11
-189.15626977874072
21
-88.909085341618976
31
0
0
LINE
5
125
100
AcDbEntity
8
0
100
AcDbLine
10
-220.92373917858154
20
-74.781341412544023
30
0
11
-199.33303447341333
21
-70.085396396570928
31
0
0
LINE
5
126
100
AcDbEntity
8
0
100
AcDbLine
10
-242.29494503739406
20
-72.566398508409407
30
0
11
-220.92373917858154
21
-74.781341412544023
31
0
0
LINE
5
127
100
AcDbEntity
8
0
100
AcDbLine
10
-260.07435159220444
20
-55.086308562265849
30
0
11
-242.29494503739406
21
-72.566398508409407
31
0
0
LINE
5
128
100
AcDbEntity
8
0
100
AcDbLine
10
-282.8889690348139
20
-41.997160382435212
30
0
11
-260.07435159220444
21
-55.086308562265849
31
0
0
LINE
5
129
100
AcDbEntity
8
0
100
AcDbLine
10
-295.4414320108832
20
-39.780389878935111
30
0
11
-282.8889690348139
21
-41.997160382435212
31
0
0
LINE
5
130
100
AcDbEntity
8
0
100
AcDbLine
10
-311.01424479797146
20
-29.943470769653402
30
0
11
-295.4414320108832
21
-39.780389878935111
31
0
0
LINE
5
131
100
AcDbEntity
8
0
100
AcDbLine
10
-324.53654486932203
20
-21.353485068590501
30
0
11
-311.01424479797146
21
-29.943470769653402
31
0
0
LINE
5
132
100
AcDbEntity
8
0
100
AcDbLine
10
-326.42079979729715
20
-4.3951907168147279
30
0
11
-324.53654486932203
21
-21.353485068590501
31
0
0
LINE
5
133
100
AcDbEntity
8
0
100
AcDbLine
10
-332.25367718463161
20
11.174851107144113
30
0
11
-326.42079979729715
21
-4.3951907168147279
31
0
0
LINE
5
134
100
AcDbEntity
8
0
100
AcDbLine
10
-337.34393645329368
20
27.542930312362994
30
0
11
-332.25367718463161
21
11.174851107144113
31
0
0
LINE
5
135
100
AcDbEntity
8
0
100
AcDbLine
10
-342.41285930585951
20
39.997301193652426
30
0
11
-337.34393645329368
21
27.542930312362994
31
0
0
LINE
5
136
100
AcDbEntity
8
0
100
AcDbLine
10
-338.2979790587375
20
51.326938140728515
30
0
11
-342.41285930585951
21
39.997301193652426
31
0
0
LINE
5
137
100
AcDbEntity
8
0
100
AcDbLine
10
-338.16081638383338
20
64.71401521136562
30
0
11
-338.2979790587375
21
51.326938140728515
31
0
0
LINE
5
138
100
AcDbEntity
8
0
100
AcDbLine
10
-338.2979790587375
20
51.326938140728515
30
0
11
-330.15051616943583
21
55.359520782908135
31
0
0
LINE
5
139
100
AcDbEntity
8
0
100
AcDbLine
10
-330.15051616943583
20
55.359520782908135
30
0
11
-338.16081638383338
21
64.71401521136562
31
0
0
LINE
5
140
100
AcDbEntity
8
0
100
AcDbLine
10
-319.2872323170335
20
62.409682272977271
30
0
11
-330.15051616943583
21
55.359520782908135
31
0
0
LINE
5
141
100
AcDbEntity
8
0
100
AcDbLine
10
-306.33690797006983
20
64.226855412710236
30
0
11
-319.2872323170335
21
62.409682272977271
31
0
0
LINE
5
142
100
AcDbEntity
8
0
100
AcDbLine
10
-306.33690797006983
20
64.226855412710236
30
0
11
-280.87068853443043
21
70.204903791533482
31
0
0
LINE
5
143
100
AcDbEntity
8
0
100
AcDbLine
10
-280.87068853443043
20
70.204903791533482
30
0
11
-259.11926457993809
21
71.068655984305821
31
0
0
LINE
5
144
100
AcDbEntity
8
0
100
AcDbLine
10
-232.20659152388788
20
71.770289918727997
30
0
11
-259.11926457993809
21
71.068655984305821
31
0
0
LINE
5
145
100
AcDbEntity
8
0
100
AcDbLine
10
-208.80208813994847
20
70.467255469086808
30
0
11
-232.20659152388788
21
71.770289918727997
31
0
0
LINE
5
146
100
AcDbEntity
8
0
100
AcDbLine
10
-190.4895109561831
20
69.977723344687917
30
0
11
-208.80208813994847
21
70.467255469086808
31
0
0
LINE
5
147
100
AcDbEntity
8
0
100
AcDbLine
10
-340.80296048831576
20
82.991480827293898
30
0
11
-338.16081638383338
21
64.71401521136562
31
0
0
LINE
5
148
100
AcDbEntity
8
0
100
AcDbLine
10
-340.80296048831576
20
103.13188429417471
30
0
11
-340.80296048831576
21
82.991480827293898
31
0
0
LINE
5
149
100
AcDbEntity
8
0
100
AcDbLine
10
-340.80296048831576
20
120.86235278000139
30
0
11
-340.80296048831576
21
103.13188429417471
31
0
0
LINE
5
150
100
AcDbEntity
8
0
100
AcDbLine
10
-351.73108186865636
20
136.14928408371654
30
0
11
-340.80296048831576
21
120.86235278000139
31
0
0
LINE
5
151
100
AcDbEntity
8
0
100
AcDbLine
10
-343.60873493744282
20
153.39068644224182
30
0
11
-351.73108186865636
21
136.14928408371654
31
0
0
LINE
5
152
100
AcDbEntity
8
0
100
AcDbLine
10
-333.08245549812284
20
170.99191633549924
30
0
11
-343.60873493744282
21
153.39068644224182
31
0
0
ENDSEC
0
SECTION
2
OBJECTS
0
DICTIONARY
5
C
100
AcDbDictionary
3
ACAD_GROUP
350
D
3
ACAD_MLINESTYLE
350
17
0
DICTIONARY
5
D
100
AcDbDictionary
0
DICTIONARY
5
1A
330
C
100
AcDbDictionary
0
DICTIONARY
5
17
100
AcDbDictionary
0
ENDSEC
0
EOF
