0
SECTION
2
HEADER
9
$INSUNITS
70
4
9
$ACADVER
1
AC1014
9
$HANDSEED
5
FFFF
0
ENDSEC
0
SECTION
2
TABLES
0
TABLE
2
VPORT
5
8
100
AcDbSymbolTable
0
ENDTAB
0
TABLE
2
LTYPE
5
5
100
AcDbSymbolTable
0
LTYPE
5
14
100
AcDbSymbolTableRecord
100
AcDbLinetypeTableRecord
2
BYBLOCK
70
0
0
LTYPE
5
15
100
AcDbSymbolTableRecord
100
AcDbLinetypeTableRecord
2
BYLAYER
70
0
0
ENDTAB
0
TABLE
2
LAYER
5
2
100
AcDbSymbolTable
70
2
0
LAYER
5
50
100
AcDbSymbolTableRecord
100
AcDbLayerTableRecord
2
0
70
0
6
CONTINUOUS
0
ENDTAB
0
TABLE
2
STYLE
5
3
100
AcDbSymbolTable
70
1
0
STYLE
5
11
100
AcDbSymbolTableRecord
100
AcDbTextStyleTableRecord
2
STANDARD
70
0
0
ENDTAB
0
TABLE
2
VIEW
5
6
100
AcDbSymbolTable
70
0
0
ENDTAB
0
TABLE
2
UCS
5
7
100
AcDbSymbolTable
70
0
0
ENDTAB
0
TABLE
2
APPID
5
9
100
AcDbSymbolTable
70
2
0
APPID
5
12
100
AcDbSymbolTableRecord
100
AcDbRegAppTableRecord
2
ACAD
70
0
0
ENDTAB
0
TABLE
2
DIMSTYLE
5
A
100
AcDbSymbolTable
70
1
0
ENDTAB
0
TABLE
2
BLOCK_RECORD
5
1
100
AcDbSymbolTable
70
1
0
BLOCK_RECORD
5
1F
100
AcDbSymbolTableRecord
100
AcDbBlockTableRecord
2
*MODEL_SPACE
0
BLOCK_RECORD
5
1B
100
AcDbSymbolTableRecord
100
AcDbBlockTableRecord
2
*PAPER_SPACE
0
ENDTAB
0
ENDSEC
0
SECTION
2
BLOCKS
0
BLOCK
5
20
100
AcDbEntity
100
AcDbBlockBegin
2
*MODEL_SPACE
0
ENDBLK
5
21
100
AcDbEntity
100
AcDbBlockEnd
0
BLOCK
5
1C
100
AcDbEntity
100
AcDbBlockBegin
2
*PAPER_SPACE
0
ENDBLK
5
1D
100
AcDbEntity
100
AcDbBlockEnd
0
ENDSEC
0
SECTION
2
ENTITIES
0
LINE
5
100
100
AcDbEntity
8
0
100
AcDbLine
10
-295.4414320108832
20
-39.780389878935111
30
0
11
-282.8889690348139
21
-41.997160382435212
31
0
0
LINE
5
101
100
AcDbEntity
8
0
100
AcDbLine
10
-282.8889690348139
20
-41.997160382435212
30
0
11
-275.57425089912454
21
-27.427383952672457
31
0
0
LINE
5
102
100
AcDbEntity
8
0
100
AcDbLine
10
-252.85467587974014
20
-28.095606747360232
30
0
11
-275.57425089912454
21
-27.427383952672457
31
0
0
LINE
5
103
100
AcDbEntity
8
0
100
AcDbLine
10
-244.58541879547894
20
-11.623914858306541
30
0
11
-252.85467587974014
21
-28.095606747360232
31
0
0
LINE
5
104
100
AcDbEntity
8
0
100
AcDbLine
10
-234.41172674635752
20
2.5591139589415279
30
0
11
-244.58541879547894
21
-11.623914858306541
31
0
0
LINE
5
105
100
AcDbEntity
8
0
100
AcDbLine
10
-222.13313289396964
20
10.87848775280435
30
0
11
-234.41172674635752
21
2.5591139589415279
31
0
0
LINE
5
106
100
AcDbEntity
8
0
100
AcDbLine
10
-207.49905369030733
20
21.753813736347919
30
0
11
-222.13313289396964
21
10.87848775280435
31
0
0
LINE
5
107
100
AcDbEntity
8
0
100
AcDbLine
10
-196.5234942875606
20
39.845945902519446
30
0
11
-207.49905369030733
21
21.753813736347919
31
0
0
LINE
5
108
100
AcDbEntity
8
0
100
AcDbLine
10
-190.51449589042682
20
58.259932917978688
30
0
11
-196.5234942875606
21
39.845945902519446
31
0
0
LINE
5
109
100
AcDbEntity
8
0
100
AcDbLine
10
-190.4895109561831
20
69.977723344687917
30
0
11
-190.51449589042682
21
58.259932917978688
31
0
0
LINE
5
110
100
AcDbEntity
8
0
100
AcDbLine
10
-190.4895109561831
20
69.977723344687917
30
0
11
-189.3085800559291
21
85.989757021660992
31
0
0
LINE
5
111
100
AcDbEntity
8
0
100
AcDbLine
10
-189.3085800559291
20
85.989757021660992
30
0
11
-197.94573409350531
21
98.288680615863328
31
0
0
LINE
5
112
100
AcDbEntity
8
0
100
AcDbLine
10
-197.94573409350531
20
98.288680615863328
30
0
11
-182.70926031921567
21
86.441289424699278
31
0
0
LINE
5
113
100
AcDbEntity
8
0
100
AcDbLine
10
-182.70926031921567
20
86.441289424699278
30
0
11
-164.23853161692284
21
70.200346533349304
31
0
0
LINE
5
114
100
AcDbEntity
8
0
100
AcDbLine
10
-178.40233585946589
20
66.782263261647742
30
0
11
-190.4895109561831
21
69.977723344687917
31
0
0
LINE
5
115
100
AcDbEntity
8
0
100
AcDbLine
10
-164.23853161692284
20
70.200346533349304
30
0
11
-178.40233585946589
21
66.782263261647742
31
0
0
LINE
5
116
100
AcDbEntity
8
0
100
AcDbLine
10
-142.92885102459931
20
68.374245388747582
30
0
11
-164.23853161692284
21
70.200346533349304
31
0
0
LINE
5
117
100
AcDbEntity
8
0
100
AcDbLine
10
-123.57707578047658
20
68.570314141365159
30
0
11
-142.92885102459931
21
68.374245388747582
31
0
0
LINE
5
118
100
AcDbEntity
8
0
100
AcDbLine
10
-102.87626644215763
20
65.246190237528324
30
0
11
-123.57707578047658
21
68.570314141365159
31
0
0
LINE
5
119
100
AcDbEntity
8
0
100
AcDbLine
10
-89.834919373683164
20
53.514976096720623
30
0
11
-102.87626644215763
21
65.246190237528324
31
0
0
LINE
5
120
100
AcDbEntity
8
0
100
AcDbLine
10
-89.834919373683164
20
53.514976096720623
30
0
11
-89.593445602570057
21
31.167861153176602
31
0
0
LINE
5
121
100
AcDbEntity
8
0
100
AcDbLine
10
-89.834919373683164
20
53.514976096720623
30
0
11
-66.93898197362843
21
57.097613783419831
31
0
0
LINE
5
122
100
AcDbEntity
8
0
100
AcDbLine
10
-66.93898197362843
20
57.097613783419831
30
0
11
-42.642933293714222
21
58.822587484423167
31
0
0
LINE
5
123
100
AcDbEntity
8
0
100
AcDbLine
10
-42.642933293714222
20
58.822587484423167
30
0
11
-20.940538167541281
21
54.503202385101346
31
0
0
LINE
5
124
100
AcDbEntity
8
0
100
AcDbLine
10
-20.940538167541281
20
54.503202385101346
30
0
11
-0.57157051247109791
21
52.967606226108437
31
0
0
LINE
5
125
100
AcDbEntity
8
0
100
AcDbLine
10
-0.57157051247109791
20
52.967606226108437
30
0
11
17.443937257511983
21
46.737459446863561
31
0
0
LINE
5
126
100
AcDbEntity
8
0
100
AcDbLine
10
19.31365715496743
20
67.200420751956912
30
0
11
-0.57157051247109791
21
52.967606226108437
31
0
0
LINE
5
127
100
AcDbEntity
8
0
100
AcDbLine
10
41.653364498041469
20
67.287613516509538
30
0
11
19.31365715496743
21
67.200420751956912
31
0
0
LINE
5
128
100
AcDbEntity
8
0
100
AcDbLine
10
33.856245125003291
20
38.105185915242423
30
0
11
17.443937257511983
21
46.737459446863561
31
0
0
LINE
5
129
100
AcDbEntity
8
0
100
AcDbLine
10
47.154893681582386
20
28.879997276894763
30
0
11
33.856245125003291
21
38.105185915242423
31
0
0
LINE
5
130
100
AcDbEntity
8
0
100
AcDbLine
10
47.154893681582386
20
28.879997276894763
30
0
11
64.882935459863504
21
28.423348115116276
31
0
0
LINE
5
131
100
AcDbEntity
8
0
100
AcDbLine
10
-197.94573409350531
20
98.288680615863328
30
0
11
-190.88743542450501
21
112.06471845639578
31
0
0
LINE
5
132
100
AcDbEntity
8
0
100
AcDbLine
10
-190.88743542450501
20
112.06471845639578
30
0
11
-190.97728596591563
21
127.88068817892942
31
0
0
LINE
5
133
100
AcDbEntity
8
0
100
AcDbLine
10
-190.97728596591563
20
127.88068817892942
30
0
11
-193.56920808638176
21
140.02836389169312
31
0
0
LINE
5
134
100
AcDbEntity
8
0
100
AcDbLine
10
-193.56920808638176
20
140.02836389169312
30
0
11
-190.88743542450501
21
152.41058302865699
31
0
0
LINE
5
135
100
AcDbEntity
8
0
100
AcDbLine
10
-215.22630567771222
20
99.213408463149278
30
0
11
-197.94573409350531
21
98.288680615863328
31
0
0
LINE
5
136
100
AcDbEntity
8
0
100
AcDbLine
10
-234.63012639930497
20
101.88890181565804
30
0
11
-215.22630567771222
21
99.213408463149278
31
0
0
LINE
5
137
100
AcDbEntity
8
0
100
AcDbLine
10
-246.70880998101936
20
115.78588185053371
30
0
11
-234.63012639930497
21
101.88890181565804
31
0
0
LINE
5
138
100
AcDbEntity
8
0
100
AcDbLine
10
-255.54053561065996
20
131.13749904793843
30
0
11
-246.70880998101936
21
115.78588185053371
31
0
0
LINE
5
139
100
AcDbEntity
8
0
100
AcDbLine
10
-264.52032252291514
20
141.38489834468319
30
0
11
-255.54053561065996
21
131.13749904793843
31
0
0
LINE
5
140
100
AcDbEntity
8
0
100
AcDbLine
10
-271.15970214331554
20
154.2662299321502
30
0
11
-264.52032252291514
21
141.38489834468319
31
0
0
LINE
5
141
100
AcDbEntity
8
0
100
AcDbLine
10
-281.65664517664135
20
165.30665087282287
30
0
11
-271.15970214331554
21
154.2662299321502
31
0
0
LINE
5
142
100
AcDbEntity
8
0
100
AcDbLine
10
-306.91731331194194
20
166.98638839588637
30
0
11
-281.65664517664135
21
165.30665087282287
31
0
0
LINE
5
143
100
AcDbEntity
8
0
100
AcDbLine
10
-333.08245549812284
20
170.99191633549924
30
0
11
-306.91731331194194
21
166.98638839588637
31
0
0
ENDSEC
0
SECTION
2
OBJECTS
0
DICTIONARY
5
C
100
AcDbDictionary
3
ACAD_GROUP
350
D
3
ACAD_MLINESTYLE
350
17
0
DICTIONARY
5
D
100
AcDbDictionary
0
DICTIONARY
5
1A
330
C
100
AcDbDictionary
0
DICTIONARY
5
17
100
AcDbDictionary
0
ENDSEC
0
EOF
